<svg width="464" height="238" viewBox="0 0 464 238" fill="none" xmlns="http://www.w3.org/2000/svg">
<g clip-path="url(#clip0)">
<path d="M0 16C0 7.16344 7.16344 0 16 0H448C456.837 0 464 7.16345 464 16V222C464 230.837 456.837 238 448 238H16C7.16345 238 0 230.837 0 222V16Z" fill="white"/>
<g clip-path="url(#clip1)">
<path d="M627 253.61V163.87C617.29 152.56 605.02 143.02 592.95 134.11C583.41 127.07 573.69 120.08 562.8 115.4C552.28 110.87 540.94 108.62 529.71 106.39C490.6 98.64 451.5 90.88 412.39 83.13C384.5 77.6 362.98 60.58 334.63 58.32C314.97 56.75 296.87 66.65 276.6 67.06C256.03 67.47 235.15 64.88 214.88 69.58C209.98 70.72 205.13 72.29 200.11 72.55C196.22 72.75 192.34 72.17 188.5 71.58C175.93 69.67 163.36 67.75 150.79 65.84C147.19 65.29 143.55 64.73 140.18 63.36C137.7 62.35 135.42 60.93 133.02 59.73C117.27 51.83 98.56 54.19 81.13 56.74C63.1 59.38 44.98 62.04 27.57 67.43C23.41 68.72 19.29 70.16 15.04 71.05C10.26 72.05 5.36002 72.35 0.510025 72.88C-24.15 75.58 -51.4 83.66 -73.52 95C-91.28 104.1 -87.36 122.37 -85.67 139.96C-84.73 149.74 -90.41 238.13 -92.16 253.61H627Z" fill="url(#paint0_linear)" fill-opacity="0.5"/>
<g filter="url(#filter0_d)">
<path d="M324.97 94.12C337.91 91.88 350.83 91.14 363.08 92.72C393.93 96.7 427.47 107.5 456.88 118.06C504.49 135.16 551.79 161.94 598.5 180C494.5 195.99 387.14 194.33 280.15 193.16C251.9 192.85 223.45 191.81 195.57 186.85C188.98 185.68 182.53 183.91 175.95 182.62C169.07 181.29 163.32 183.64 158.67 177.77C181.17 150.79 229.45 128.98 261.27 114.78C280.27 106.3 302.63 97.99 324.97 94.12Z" fill="url(#paint1_linear)"/>
</g>
</g>
<path d="M115 160.5C46.876 157.675 -25.5 178 -25.5 178L-33 182.5L-29 235L468.5 249.5V191.5C468.5 191.5 347.256 194.954 295.5 196C230.68 197.31 223.5 165 115 160.5Z" fill="url(#paint2_linear)"/>
<g filter="url(#filter1_f)">
<path d="M-2.5 178C-2.5 178 71.8069 201.586 115 194.5C179 184 233.5 178 233.5 178L224 261H-13L-2.5 178Z" fill="#C6EDF8"/>
</g>
<g filter="url(#filter2_d)">
<path d="M285.5 166.5C353.624 163.675 466.5 186.5 466.5 186.5V190.5V243H-13V166.5C-13 166.5 48.744 204.454 100.5 205.5C165.32 206.81 177 171 285.5 166.5Z" fill="url(#paint3_linear)"/>
</g>
<path d="M328.444 167.809L328.452 167.817L328.444 167.809Z" fill="#D23943"/>
<path d="M329.329 168.696L329.321 168.688L329.329 168.696Z" fill="#D23943"/>
<path d="M351.678 167.127L351.67 167.135L351.678 167.127Z" fill="#D23943"/>
<path d="M350.797 168.014L350.805 168.006L350.797 168.014Z" fill="#D23943"/>
<ellipse rx="1.7909" ry="1.79761" transform="matrix(1 -1.33683e-08 0.00216959 0.999998 369.937 83.283)" fill="white" fill-opacity="0.22"/>
<ellipse rx="1.93838" ry="1.94565" transform="matrix(1 -1.33683e-08 0.00216959 0.999998 318.943 93.9456)" fill="white"/>
<ellipse rx="0.970151" ry="0.973787" transform="matrix(1 -1.33683e-08 0.00216959 0.999998 349.972 92.9738)" fill="white" fill-opacity="0.22"/>
<ellipse cx="352.824" cy="85.3029" rx="6" ry="3.5" transform="rotate(19.5109 352.824 85.3029)" fill="#EDFBFF"/>
<path d="M375.49 127.292C375.186 127.292 374.882 127.292 374.578 127.301C372.247 127.364 369.818 127.642 366.683 128.189C365.611 128.377 364.549 128.592 363.486 128.817C362.04 129.122 360.602 129.409 359.155 129.678C356.298 130.216 353.493 130.673 350.823 131.032C345.777 131.714 340.909 132.109 336.353 132.189C335.63 132.207 334.897 132.216 334.173 132.216C329.948 132.216 325.865 131.956 322.031 131.445C321.182 131.328 320.387 131.194 319.591 131.059C317.947 130.781 316.24 130.494 314.489 130.395C314.221 130.377 313.953 130.377 313.685 130.377C312.684 130.377 311.702 130.476 310.764 130.664C310.175 130.79 309.63 130.96 309.13 131.167L309.157 131.149C309.532 130.889 309.897 130.62 310.272 130.368C310.602 130.144 310.708 129.741 310.52 129.418C310.394 129.202 310.144 129.059 309.894 129.059C309.769 129.059 309.653 129.095 309.564 129.167C307.637 130.458 305.827 132.001 304.187 133.768C302.645 135.445 301.193 137.392 299.875 139.553C298.682 141.518 297.615 143.697 296.611 146.218C295.723 148.469 294.96 150.9 294.358 153.447C293.198 158.299 292.655 163.367 292.729 168.534C292.77 170.902 292.962 173.35 293.316 175.799C293.661 178.212 294.175 180.508 294.832 182.625C295.57 184.984 296.575 187.271 297.822 189.424C298.96 191.388 300.376 193.28 302.024 195.065C304.961 198.241 308.728 200.985 313.208 203.219C317.197 205.21 321.64 206.753 326.789 207.946C331.142 208.959 335.833 209.659 341.141 210.089C344.429 210.358 347.61 210.493 350.585 210.493C357.553 210.493 364.082 209.766 369.984 208.331C374.493 207.246 378.697 205.694 382.472 203.721C386.336 201.703 389.761 199.182 392.667 196.222C395.671 193.155 398.12 189.567 399.933 185.558C400.876 183.495 401.666 181.27 402.286 178.938C402.907 176.597 403.357 174.14 403.655 171.422C404.356 165.116 403.958 158.963 402.472 153.151C400.931 147.097 398.068 141.275 394.172 136.315C392.425 134.091 390.437 132.234 388.263 130.799C386.322 129.507 384.131 128.566 381.745 127.983C379.85 127.516 377.803 127.292 375.49 127.292Z" fill="#EDFBFF"/>
<mask id="mask0" mask-type="alpha" maskUnits="userSpaceOnUse" x="293" y="127" width="112" height="84">
<path d="M375.855 127C375.551 127 375.248 127 374.944 127.009C372.612 127.072 370.183 127.35 367.049 127.897C365.977 128.085 364.914 128.301 363.852 128.525C362.405 128.83 360.967 129.117 359.521 129.386C356.663 129.924 353.859 130.381 351.189 130.74C346.143 131.422 341.275 131.817 336.719 131.897C335.995 131.915 335.263 131.924 334.539 131.924C330.313 131.924 326.23 131.664 322.396 131.153C321.548 131.036 320.752 130.902 319.957 130.767C318.312 130.489 316.605 130.202 314.854 130.103C314.586 130.086 314.318 130.086 314.05 130.086C313.05 130.086 312.067 130.184 311.129 130.373C310.54 130.498 309.996 130.669 309.496 130.875L309.522 130.857C309.897 130.597 310.263 130.328 310.637 130.077C310.968 129.852 311.074 129.449 310.886 129.126C310.76 128.91 310.51 128.767 310.259 128.767C310.134 128.767 310.018 128.803 309.929 128.875C308.002 130.166 306.192 131.709 304.552 133.476C303.01 135.153 301.558 137.1 300.241 139.261C299.048 141.226 297.981 143.405 296.977 145.926C296.088 148.177 295.325 150.608 294.723 153.155C293.563 158.008 293.02 163.075 293.094 168.242C293.135 170.61 293.328 173.058 293.682 175.507C294.026 177.92 294.541 180.216 295.197 182.333C295.935 184.692 296.941 186.979 298.187 189.132C299.326 191.096 300.742 192.989 302.389 194.773C305.326 197.949 309.093 200.693 313.574 202.927C317.563 204.918 322.006 206.461 327.154 207.654C331.507 208.667 336.199 209.367 341.506 209.797C344.795 210.066 347.975 210.201 350.95 210.201C357.918 210.201 364.447 209.474 370.349 208.039C374.858 206.954 379.063 205.402 382.837 203.429C386.701 201.411 390.126 198.89 393.032 195.931C396.036 192.863 398.485 189.275 400.299 185.266C401.241 183.203 402.032 180.978 402.652 178.646C403.272 176.305 403.723 173.848 404.02 171.13C404.721 164.824 404.324 158.671 402.837 152.859C401.296 146.805 398.434 140.983 394.537 136.023C392.79 133.799 390.803 131.942 388.629 130.507C386.688 129.215 384.497 128.274 382.11 127.691C380.215 127.224 378.169 127 375.855 127Z" fill="#EDFBFF"/>
</mask>
<g mask="url(#mask0)">
<g filter="url(#filter3_f)">
<path d="M375.957 127.337C373.608 127.418 371.169 127.687 368.062 128.225C366.99 128.414 365.927 128.629 364.856 128.853C363.409 129.158 361.971 129.445 360.525 129.714C357.658 130.261 354.854 130.719 352.193 131.069C347.102 131.759 342.234 132.154 337.723 132.226C336.999 132.244 336.267 132.253 335.543 132.253C331.308 132.253 327.225 131.993 323.4 131.481C322.552 131.365 321.756 131.23 320.961 131.096L320.827 131.078C319.218 130.809 317.556 130.531 315.858 130.441C315.59 130.423 315.313 130.423 315.045 130.423C314.054 130.423 313.062 130.522 312.125 130.71C311.517 130.853 310.964 131.024 310.491 131.221C310.741 131.078 310.973 130.916 311.196 130.764L311.651 130.459C311.998 130.235 312.105 129.813 311.907 129.481C311.782 129.257 311.531 129.113 311.272 129.113C311.147 129.113 311.031 129.149 310.933 129.221C308.988 130.513 307.178 132.064 305.547 133.822C305.021 134.396 304.505 134.997 304.006 135.634C304.221 136.172 304.464 136.702 304.724 137.213C305.119 137.993 305.567 138.738 306.051 139.464C306.669 140.37 307.35 141.24 308.093 142.056C308.863 142.908 309.678 143.707 310.537 144.46C310.519 144.442 310.502 144.433 310.493 144.424C313.196 146.774 316.264 148.658 319.466 150.228C319.448 150.219 319.43 150.21 319.412 150.201C322.211 151.564 325.126 152.685 328.094 153.609C331.026 154.524 334.012 155.259 337.023 155.834C337.023 155.834 337.023 155.834 337.015 155.834C340.107 156.417 343.235 156.829 346.38 157.044C347.747 157.134 349.105 157.188 350.48 157.188C352.464 157.188 354.456 157.107 356.43 156.946C356.421 156.946 356.412 156.946 356.412 156.946C362.119 156.479 367.781 155.376 373.191 153.483C373.173 153.492 373.155 153.501 373.137 153.501C375.155 152.784 377.136 151.968 379.055 151.008C380.902 150.084 382.695 149.053 384.408 147.887C384.408 147.887 384.399 147.895 384.39 147.904C385.416 147.196 386.415 146.46 387.369 145.671C387.869 145.258 388.359 144.837 388.832 144.406C389.072 144.182 389.304 143.967 389.536 143.743C389.625 143.653 389.723 143.563 389.803 143.474C389.875 143.393 389.946 143.312 390.017 143.24C390.097 143.151 390.258 143.178 390.33 143.258C390.366 143.303 390.393 143.357 390.384 143.42C390.384 143.456 390.375 143.483 390.357 143.518C390.411 143.527 390.456 143.554 390.5 143.59C391.521 144.46 392.39 145.501 393.098 146.64C393.815 147.797 394.389 149.053 394.83 150.344C395.441 152.147 395.83 154.022 396.048 155.905C396.276 157.888 396.36 159.879 396.302 161.861C396.253 163.879 396.088 165.897 395.815 167.897C395.56 169.772 395.234 171.638 394.809 173.477C394.437 175.091 394.003 176.697 393.479 178.266C392.822 180.213 392.013 182.114 391.052 183.926C389.086 187.639 386.53 191.03 383.543 193.981C380.53 196.968 377.123 199.542 373.474 201.686C369.771 203.865 365.835 205.632 361.764 206.995C357.712 208.359 353.524 209.328 349.282 209.875C347.754 210.072 346.218 210.225 344.673 210.314C347.201 210.476 349.64 210.556 351.945 210.556C358.905 210.556 365.433 209.83 371.353 208.386C375.862 207.309 380.058 205.758 383.841 203.775C387.696 201.766 391.13 199.246 394.045 196.277C397.058 193.2 399.498 189.613 401.312 185.603C402.245 183.558 403.036 181.334 403.665 178.984C404.294 176.643 404.735 174.176 405.033 171.458C405.725 165.153 405.328 159 403.841 153.179C402.309 147.124 399.438 141.303 395.541 136.343C393.785 134.118 391.798 132.262 389.633 130.827C387.683 129.526 385.492 128.584 383.114 128.01C381.184 127.535 379.128 127.302 376.823 127.302C376.564 127.319 376.261 127.328 375.957 127.337ZM384.444 147.869C384.435 147.869 384.426 147.878 384.417 147.887C384.426 147.887 384.435 147.878 384.444 147.869ZM337.032 155.825C337.041 155.825 337.059 155.825 337.068 155.834C337.059 155.834 337.041 155.834 337.032 155.825ZM356.421 156.946C356.403 156.946 356.394 156.946 356.385 156.946C356.394 156.946 356.403 156.946 356.421 156.946Z" fill="#BBEAF8"/>
</g>
<g filter="url(#filter4_f)">
<path d="M302.014 187.5C296.235 175.705 299.014 154 299.014 154L269.514 156.5C268.347 170.167 265.814 197.6 265.014 198C264.214 198.4 300.167 215.5 317.5 221.5L358 209C358 209 321 209 302.014 187.5Z" fill="url(#paint4_linear)"/>
</g>
</g>
<mask id="mask1" mask-type="alpha" maskUnits="userSpaceOnUse" x="305" y="112" width="90" height="39">
<path d="M389.147 112.767L389.138 112.767C388.942 112.767 388.745 112.857 388.629 113.009C388.05 113.745 387.409 114.444 386.722 115.099C385.376 116.346 383.77 117.476 381.977 118.454C380.344 119.324 378.487 120.113 376.318 120.857C374.399 121.512 372.399 122.095 370.372 122.597C364.934 123.889 359.138 124.544 353.143 124.544C352.485 124.544 351.834 124.535 351.176 124.518C351.172 124.518 351.171 124.524 351.175 124.525C351.177 124.526 351.178 124.527 351.179 124.528C351.187 124.535 351.223 124.535 351.231 124.535C343.387 124.311 335.371 123.019 327.486 120.66C321.586 118.884 315.917 116.543 310.631 113.709C310.476 113.622 310.29 113.602 310.121 113.549C310.024 113.519 309.934 113.502 309.845 113.502C309.657 113.502 309.497 113.574 309.39 113.7C308.499 114.794 307.768 115.852 307.154 116.938C306.505 118.095 305.989 119.341 305.599 120.642C304.854 123.189 304.806 125.97 305.456 128.67C305.744 129.854 306.22 131.109 306.875 132.401C307.413 133.459 308.113 134.536 309.026 135.702C310.487 137.585 312.367 139.361 314.774 141.11C316.885 142.653 319.273 144.026 322.063 145.299C324.487 146.411 327.133 147.38 329.931 148.178C334.991 149.64 340.487 150.51 346.277 150.789C347.465 150.842 348.662 150.869 349.85 150.869C354.371 150.869 358.908 150.466 363.337 149.667C368.928 148.663 374.115 147.012 378.755 144.761C381.236 143.559 383.529 142.16 385.571 140.599C386.651 139.774 387.667 138.886 388.576 137.989C389.503 137.074 390.395 136.034 391.214 134.895C392.835 132.661 393.92 130.141 394.361 127.62C394.802 125.082 394.582 122.409 393.719 119.898C392.989 117.765 391.783 115.673 390.123 113.689C389.926 113.453 389.826 113.127 389.585 112.937C389.469 112.821 389.317 112.767 389.147 112.767Z" fill="url(#paint5_linear)"/>
</mask>
<g mask="url(#mask1)">
<g filter="url(#filter5_f)">
<path d="M389.138 112.74C388.933 112.74 388.737 112.839 388.612 112.991C388.042 113.709 387.4 114.417 386.705 115.081C385.367 116.319 383.78 117.449 381.959 118.427C380.317 119.297 378.47 120.086 376.3 120.83C374.39 121.485 372.39 122.068 370.354 122.57C369.417 122.795 368.479 122.992 367.524 123.18C367.873 123.683 368.178 124.212 368.447 124.759C368.869 125.62 369.202 126.535 369.382 127.477C369.563 128.428 369.628 129.405 369.514 130.374C369.4 131.361 369.143 132.329 368.77 133.253C368.414 134.114 367.978 134.948 367.444 135.72C366.366 137.272 364.984 138.59 363.441 139.657C361.836 140.77 360.095 141.658 358.283 142.357C356.471 143.057 354.605 143.595 352.712 143.999C350.587 144.456 348.426 144.752 346.255 144.887C343.781 145.039 341.297 145.003 338.84 144.77C336.374 144.537 333.925 144.133 331.512 143.55C326.605 142.375 321.848 140.572 317.35 138.267C315.132 137.128 312.976 135.89 310.882 134.536C309.344 133.54 307.841 132.491 306.382 131.388C306.535 131.728 306.696 132.069 306.867 132.41C307.414 133.477 308.113 134.554 309.018 135.72C310.478 137.603 312.358 139.37 314.765 141.137C316.895 142.689 319.283 144.061 322.064 145.326C324.505 146.438 327.152 147.407 329.932 148.205C334.974 149.658 340.479 150.537 346.277 150.815C347.528 150.869 348.734 150.896 349.86 150.896C354.362 150.896 358.9 150.493 363.347 149.694C368.946 148.681 374.142 147.03 378.773 144.779C381.263 143.577 383.556 142.178 385.599 140.617C386.678 139.792 387.685 138.904 388.604 137.998C389.54 137.074 390.422 136.034 391.241 134.904C392.862 132.67 393.947 130.15 394.397 127.611C394.838 125.073 394.618 122.4 393.755 119.88C392.982 117.61 391.663 115.395 389.845 113.305C389.818 113.153 389.738 113.018 389.612 112.91C389.487 112.812 389.326 112.749 389.165 112.749L389.138 112.749L389.138 112.74Z" fill="#19CCAE"/>
</g>
</g>
<g clip-path="url(#clip2)">
<path d="M378.554 130.26L378.676 130.288C379.327 130.441 379.961 130.72 380.516 131.104C380.993 131.427 381.431 131.865 381.823 132.403C382.525 133.375 382.943 134.498 383.343 135.586C383.421 135.807 383.505 136.03 383.591 136.246C384.825 139.451 386.477 142.51 388.08 145.466L388.366 145.986C388.795 146.786 389.225 147.585 389.648 148.389L389.903 148.878L390.039 149.143L390.235 149.519C390.378 149.804 390.535 150.08 390.698 150.357L390.742 150.435C391.106 151.065 391.469 151.702 391.75 152.35C391.883 152.652 391.997 152.985 392.093 153.34C392.184 153.668 392.237 154.025 392.245 154.421C392.255 154.725 392.212 155.048 392.115 155.421C392.092 155.49 392.114 155.566 392.152 155.629C392.235 155.768 392.251 155.965 392.134 156.115L392.056 156.219C392.026 156.258 392 156.301 391.978 156.345C391.191 157.571 390.097 158.747 388.633 159.938C387.883 160.625 387.14 161.227 386.378 161.782C385.287 162.57 384.25 163.174 383.209 163.635C381.485 164.515 379.772 165.052 378.104 165.229C378.028 165.243 377.961 165.24 377.903 165.227C377.866 165.219 377.83 165.204 377.798 165.185C377.771 165.168 377.747 165.152 377.723 165.133C377.644 165.07 377.567 164.997 377.495 164.927C377.471 164.903 377.45 164.877 377.432 164.85C375.832 162.418 374.4 159.68 373.175 156.705C371.943 153.734 370.982 150.616 370.31 147.445C369.673 144.412 369.327 141.414 369.294 138.524C369.261 135.473 369.594 132.585 370.276 129.942C370.339 129.692 370.589 129.533 370.839 129.589C370.962 129.617 371.066 129.696 371.132 129.809C371.198 129.923 371.219 130.045 371.186 130.16C371.057 130.668 371.645 131.083 372.122 130.868C372.133 130.863 372.144 130.858 372.154 130.853C372.796 130.561 373.483 130.34 374.189 130.192C374.857 130.053 375.583 129.983 376.358 129.992C377.094 130.01 377.833 130.097 378.554 130.26Z" fill="url(#paint6_linear)"/>
<mask id="mask2" mask-type="alpha" maskUnits="userSpaceOnUse" x="369" y="129" width="24" height="37">
<path d="M378.554 130.26L378.676 130.288C379.327 130.441 379.961 130.72 380.516 131.104C380.993 131.427 381.431 131.865 381.823 132.403C382.525 133.375 382.942 134.498 383.343 135.586C383.421 135.807 383.505 136.03 383.591 136.246C384.825 139.451 386.477 142.51 388.08 145.466L388.366 145.986C388.795 146.786 389.225 147.585 389.648 148.389L389.903 148.878L390.039 149.143L390.235 149.519C390.378 149.804 390.535 150.08 390.698 150.357L390.742 150.435C391.106 151.065 391.469 151.702 391.75 152.35C391.883 152.652 391.997 152.985 392.093 153.34C392.184 153.668 392.237 154.025 392.245 154.421C392.255 154.725 392.212 155.048 392.115 155.421C392.092 155.49 392.114 155.566 392.152 155.629C392.235 155.768 392.251 155.965 392.134 156.115L392.056 156.219C392.026 156.258 392 156.301 391.978 156.345C391.191 157.571 390.097 158.747 388.633 159.938C387.883 160.625 387.14 161.227 386.378 161.782C385.287 162.57 384.25 163.174 383.209 163.635C381.485 164.515 379.772 165.052 378.104 165.229C378.028 165.243 377.961 165.24 377.903 165.227C377.866 165.219 377.83 165.204 377.798 165.185C377.771 165.168 377.747 165.152 377.723 165.133C377.644 165.07 377.567 164.997 377.495 164.927C377.471 164.903 377.45 164.877 377.432 164.85C375.832 162.418 374.4 159.68 373.175 156.705C371.943 153.734 370.982 150.616 370.309 147.445C369.673 144.412 369.327 141.414 369.294 138.524C369.261 135.473 369.594 132.585 370.276 129.942C370.339 129.692 370.589 129.533 370.839 129.589C370.961 129.617 371.066 129.696 371.132 129.809C371.198 129.923 371.219 130.045 371.186 130.16C371.057 130.668 371.645 131.083 372.122 130.868C372.133 130.863 372.144 130.858 372.154 130.853C372.796 130.561 373.483 130.34 374.189 130.192C374.857 130.053 375.583 129.983 376.358 129.992C377.094 130.01 377.833 130.097 378.554 130.26Z" fill="url(#paint7_linear)"/>
</mask>
<g mask="url(#mask2)">
</g>
<path d="M390.096 128.204C390.131 128.212 390.164 128.225 390.208 128.248C390.322 128.31 390.381 128.404 390.428 128.519L390.472 128.621C390.5 128.687 390.553 128.739 390.617 128.771C390.765 128.846 390.891 128.926 391.007 129.013C391.089 129.081 391.175 129.162 391.206 129.292C391.233 129.415 391.211 129.54 391.145 129.642C391.134 129.659 391.122 129.676 391.107 129.693C391.062 129.745 391.046 129.818 391.078 129.878C391.659 130.962 392.376 132.042 393.216 133.081C393.217 133.082 393.213 133.085 393.212 133.084C393.212 133.084 393.212 133.084 393.212 133.084C393.211 133.083 393.201 133.075 393.197 133.069C394.635 134.816 396.409 136.456 398.476 137.939C400.797 139.591 403.379 140.962 406.147 142.025C407.574 142.557 409.01 142.992 410.412 143.309C410.992 143.44 411.576 143.554 412.153 143.647C412.156 143.648 412.16 143.648 412.164 143.649C412.175 143.652 412.186 143.655 412.197 143.658C412.397 143.719 412.577 143.887 412.681 144.068C413.695 146.114 413.978 148.661 413.508 151.641C413.085 154.33 412.159 156.973 410.744 159.506C410.311 160.276 409.831 161.018 409.327 161.699C409.095 162.016 408.834 162.333 408.542 162.674C408.244 163.013 407.852 163.448 407.401 163.814C407.401 163.815 407.4 163.815 407.399 163.816C407.288 163.916 407.135 163.983 406.986 163.973C406.025 163.947 405.082 163.845 404.186 163.667C404.068 163.647 403.952 163.62 403.836 163.594C403.126 163.434 402.371 163.202 401.532 162.883C400.134 162.357 398.693 161.675 397.252 160.856C394.755 159.436 392.385 157.619 390.204 155.457C386.316 151.603 383.02 146.596 380.403 140.571C379.187 137.77 378.13 134.729 377.26 131.538C377.193 131.295 377.33 131.043 377.572 130.974C377.638 130.952 377.718 130.952 377.793 130.969C377.859 130.984 377.931 130.957 377.956 130.895C378.004 130.777 378.063 130.656 378.137 130.535C378.49 129.95 379.093 129.451 379.928 129.036C380.671 128.674 381.541 128.402 382.599 128.216C383.531 128.045 384.56 127.957 385.646 127.944C386.755 127.936 387.83 128.025 388.851 128.218C388.968 128.239 389.092 128.26 389.214 128.288C389.252 128.296 389.29 128.305 389.328 128.315C389.507 128.359 389.698 128.262 389.874 128.209C389.941 128.187 390.02 128.187 390.096 128.204Z" fill="url(#paint8_linear)"/>
<mask id="mask3" mask-type="alpha" maskUnits="userSpaceOnUse" x="377" y="127" width="37" height="37">
<path d="M390.096 128.204C390.131 128.212 390.164 128.225 390.208 128.248C390.322 128.31 390.381 128.404 390.428 128.519L390.472 128.621C390.5 128.687 390.552 128.739 390.617 128.771C390.765 128.846 390.891 128.926 391.007 129.013C391.089 129.081 391.175 129.162 391.206 129.292C391.233 129.416 391.211 129.54 391.145 129.642C391.134 129.66 391.122 129.677 391.107 129.693C391.062 129.745 391.046 129.818 391.078 129.878C391.659 130.962 392.376 132.042 393.216 133.081C393.217 133.082 393.213 133.085 393.212 133.085C393.212 133.085 393.212 133.084 393.212 133.084C393.211 133.083 393.201 133.075 393.197 133.069C394.635 134.817 396.409 136.456 398.476 137.939C400.797 139.591 403.379 140.963 406.147 142.025C407.574 142.557 409.01 142.992 410.412 143.309C410.992 143.44 411.576 143.554 412.153 143.647C412.156 143.648 412.16 143.649 412.164 143.649C412.175 143.652 412.186 143.655 412.197 143.658C412.397 143.719 412.577 143.887 412.681 144.068C413.695 146.115 413.978 148.661 413.507 151.641C413.085 154.33 412.159 156.973 410.744 159.506C410.311 160.277 409.831 161.018 409.327 161.699C409.095 162.016 408.834 162.333 408.542 162.674C408.244 163.013 407.852 163.448 407.401 163.814C407.401 163.815 407.4 163.816 407.399 163.816C407.288 163.916 407.135 163.983 406.986 163.973C406.025 163.947 405.082 163.845 404.186 163.667C404.068 163.647 403.952 163.62 403.836 163.594C403.126 163.434 402.371 163.202 401.532 162.883C400.134 162.358 398.693 161.675 397.252 160.856C394.755 159.436 392.385 157.619 390.204 155.457C386.316 151.603 383.02 146.596 380.403 140.571C379.187 137.771 378.13 134.729 377.26 131.538C377.193 131.295 377.33 131.043 377.572 130.974C377.638 130.952 377.718 130.952 377.793 130.969C377.859 130.984 377.931 130.957 377.956 130.895C378.004 130.777 378.063 130.656 378.137 130.535C378.49 129.95 379.093 129.451 379.928 129.036C380.671 128.674 381.541 128.403 382.598 128.217C383.531 128.045 384.56 127.957 385.646 127.944C386.755 127.936 387.83 128.025 388.851 128.218C388.968 128.239 389.092 128.26 389.214 128.288C389.252 128.297 389.29 128.306 389.328 128.315C389.507 128.359 389.698 128.263 389.874 128.209C389.941 128.187 390.02 128.187 390.096 128.204Z" fill="url(#paint9_linear)"/>
</mask>
<g mask="url(#mask3)">
<g filter="url(#filter6_f)">
<path fill-rule="evenodd" clip-rule="evenodd" d="M336.498 116.82C336.343 116.454 336.151 116.171 335.796 115.962C335.664 115.895 335.546 115.85 335.441 115.826C335.197 115.771 334.937 115.786 334.739 115.852C334.389 115.939 334.12 116.154 334.034 116.374C333.637 116.266 333.222 116.154 332.804 116.059C332.438 115.977 332.068 115.911 331.715 115.85C328.653 115.287 325.416 115.016 322.089 115.057C318.909 115.094 315.916 115.357 313.205 115.831C313.691 116.917 314.185 117.968 314.714 119.026C314.719 119.034 314.725 119.04 314.73 119.045C314.738 119.053 314.743 119.058 314.741 119.069L314.714 119.026C316.734 123.037 319.024 126.906 321.554 130.608C323.789 133.913 326.243 137.064 328.837 140.081C332.194 138.298 335.363 136.214 338.297 133.875C340.159 132.38 341.995 130.677 343.635 128.948C341.621 126.283 339.799 123.496 338.241 120.676C338.417 120.55 338.54 120.412 338.628 120.266C338.847 119.948 338.918 119.558 338.823 119.169C338.719 118.74 338.463 118.498 338.198 118.291C337.779 117.957 337.314 117.667 336.749 117.411L336.626 117.144L336.498 116.82ZM344.847 130.548C349.09 135.743 354.381 140.603 360.54 145.033C359.891 146.028 359.23 147.002 358.576 147.941C358.179 148.495 357.785 149.04 357.399 149.572C357.079 150.013 356.765 150.446 356.461 150.87C354.384 153.694 352.314 156.279 350.172 158.713C352.32 156.285 354.398 153.69 356.486 150.839C357.787 149.07 359.184 147.121 360.613 145.031L360.635 145.017L360.627 145.052C366.075 148.898 371.969 152.237 378.163 154.981L378.154 155.023C379.907 155.803 381.707 156.538 383.515 157.24C387.773 158.828 392.077 160.131 396.296 161.085C397.045 161.254 397.795 161.423 398.553 161.558L398.549 161.575L398.514 161.567C398.568 166.883 398.037 172.436 396.926 178.041C396.783 178.746 396.637 179.468 396.474 180.186C396.322 180.852 396.171 181.517 396.002 182.179C395.24 181.954 394.482 181.712 393.725 181.47C393.735 181.475 393.746 181.481 393.758 181.488C386.356 179.134 379.118 176.228 372.159 172.815L372.163 172.807C366.845 170.197 361.672 167.275 356.692 164.053C356.662 164.043 356.634 164.02 356.606 163.997L356.692 164.053C356.696 164.054 356.699 164.055 356.703 164.056C354.325 162.506 351.994 160.912 349.722 159.22L349.695 159.25C342.57 153.994 335.926 148.073 330.027 141.455C329.832 141.226 329.635 141.002 329.439 140.779C329.242 140.555 329.046 140.331 328.85 140.102C332.208 138.319 335.359 136.232 338.311 133.897C340.155 132.398 342.004 130.716 343.627 128.983C344.006 129.493 344.416 130.027 344.847 130.548ZM402.433 162.71C402.721 162.812 402.982 163.037 403.135 163.33C406.042 169.161 406.932 176.361 405.824 184.766C402.529 184.022 399.262 183.155 396.037 182.187C396.206 181.525 396.357 180.86 396.509 180.194C396.672 179.476 396.818 178.754 396.96 178.049C398.072 172.444 398.603 166.891 398.549 161.575L399.349 161.682C400.089 161.813 400.812 161.939 401.539 162.048C401.922 162.135 402.235 162.371 402.433 162.71Z" fill="#19CCAE"/>
</g>
</g>
</g>
<g filter="url(#filter7_f)">
<rect x="369.551" y="138.923" width="23.8572" height="7.9524" transform="rotate(-19.7467 369.551 138.923)" fill="#0FAF8F" fill-opacity="0.5"/>
</g>
<path d="M389.147 112.767L389.138 112.767C388.942 112.767 388.745 112.857 388.629 113.009C388.05 113.745 387.409 114.444 386.722 115.099C385.376 116.346 383.77 117.476 381.977 118.454C380.344 119.324 378.487 120.113 376.318 120.857C374.399 121.512 372.399 122.095 370.372 122.597C364.934 123.889 359.138 124.544 353.143 124.544C352.485 124.544 351.834 124.535 351.176 124.518C351.172 124.518 351.171 124.524 351.175 124.525C351.177 124.526 351.178 124.527 351.179 124.528C351.187 124.535 351.223 124.535 351.231 124.535C343.387 124.311 335.371 123.019 327.486 120.66C321.586 118.884 315.917 116.543 310.631 113.709C310.476 113.622 310.29 113.602 310.121 113.549C310.024 113.519 309.934 113.502 309.845 113.502C309.657 113.502 309.497 113.574 309.39 113.7C308.499 114.794 307.768 115.852 307.154 116.938C306.505 118.095 305.989 119.341 305.599 120.642C304.854 123.189 304.806 125.97 305.456 128.67C305.744 129.854 306.22 131.109 306.875 132.401C307.413 133.459 308.113 134.536 309.026 135.702C310.487 137.585 312.367 139.361 314.774 141.11C316.885 142.653 319.273 144.026 322.063 145.299C324.487 146.411 327.133 147.38 329.931 148.178C334.991 149.64 340.487 150.51 346.277 150.789C347.465 150.842 348.662 150.869 349.85 150.869C354.371 150.869 358.908 150.466 363.337 149.667C368.928 148.663 374.115 147.012 378.755 144.761C381.236 143.559 383.529 142.16 385.571 140.599C386.651 139.774 387.667 138.886 388.576 137.989C389.503 137.074 390.395 136.034 391.214 134.895C392.835 132.661 393.92 130.141 394.361 127.62C394.802 125.082 394.582 122.409 393.719 119.898C392.989 117.765 391.783 115.673 390.123 113.689C389.926 113.453 389.826 113.127 389.585 112.937C389.469 112.821 389.317 112.767 389.147 112.767Z" fill="url(#paint10_linear)"/>
<path d="M353.155 47L352.672 47C348.706 47 344.722 47.4216 340.82 48.2468C336.963 49.072 333.169 50.3456 329.563 52.0409C326.1 53.6554 322.781 55.7183 319.696 58.167C316.699 60.5619 313.972 63.3514 311.593 66.4548C309.206 69.5672 307.185 73.0026 305.594 76.6531C303.949 80.4203 302.743 84.4566 302.002 88.6633C301.402 92.1076 301.097 95.7043 301.114 99.3729C301.226 101.561 301.365 104.1 301.825 106.1C302.249 107.957 302.879 109.831 303.687 111.688C305.123 114.989 307.22 118.047 309.897 120.774C312.342 123.259 315.321 125.456 318.738 127.304C321.868 129.008 325.418 130.416 329.298 131.502C332.829 132.497 336.663 133.206 340.693 133.609C343.105 133.852 345.544 133.968 347.939 133.968C349.189 133.968 350.538 133.932 351.941 133.861C356.032 133.636 360.113 133.062 364.078 132.156C368.212 131.215 372.202 129.887 375.933 128.201C379.771 126.47 383.268 124.317 386.327 121.815C389.51 119.213 392.148 116.182 394.169 112.809C395.299 110.935 396.207 109.096 396.962 106.765C398.314 102.591 398.231 99.3887 398.223 95.4532C398.216 92.1786 396.822 85.3291 396.822 85.3291C397.102 86.7463 396.551 83.9119 396.822 85.3291C396.082 81.5888 394.573 76.7697 393.161 72.4823C391.731 68.1411 390.026 64.5533 387.938 61.5395C386.782 59.8622 385.474 58.3195 384.06 56.9472C382.583 55.53 380.9 54.2563 379.084 53.162C377.26 52.0588 375.158 51.0991 372.852 50.3097C370.867 49.6281 368.686 49.0271 366.174 48.471C361.875 47.5292 357.488 47.0359 353.155 47Z" fill="#EDFBFF"/>
<mask id="mask4" mask-type="alpha" maskUnits="userSpaceOnUse" x="301" y="47" width="98" height="87">
<path d="M353.155 47L352.672 47C348.706 47 344.722 47.4216 340.82 48.2468C336.962 49.072 333.168 50.3456 329.563 52.0409C326.1 53.6554 322.781 55.7183 319.696 58.167C316.699 60.5619 313.971 63.3514 311.593 66.4548C309.205 69.5672 307.185 73.0026 305.594 76.6531C303.949 80.4203 302.743 84.4566 302.002 88.6633C301.402 92.1076 301.097 95.7043 301.114 99.3729C301.226 101.561 301.365 104.1 301.825 106.1C302.249 107.957 302.878 109.831 303.687 111.688C305.123 114.989 307.22 118.047 309.897 120.774C312.342 123.259 315.321 125.456 318.738 127.304C321.868 129.008 325.418 130.416 329.298 131.502C332.828 132.497 336.663 133.206 340.692 133.609C343.105 133.852 345.544 133.968 347.938 133.968C349.189 133.968 350.538 133.932 351.94 133.861C356.032 133.636 360.113 133.062 364.078 132.156C368.212 131.215 372.202 129.887 375.933 128.201C379.771 126.47 383.268 124.317 386.327 121.815C389.51 119.213 392.148 116.182 394.169 112.809C395.299 110.935 396.207 109.096 396.962 106.765C398.314 102.591 398.231 99.3887 398.223 95.4532C398.216 92.1786 396.822 85.3291 396.822 85.3291C397.102 86.7463 396.551 83.9119 396.822 85.3291C396.082 81.5888 394.573 76.7697 393.161 72.4823C391.731 68.1411 390.026 64.5533 387.938 61.5395C386.782 59.8622 385.474 58.3195 384.06 56.9472C382.583 55.53 380.9 54.2563 379.084 53.162C377.26 52.0588 375.158 51.0991 372.851 50.3097C370.867 49.6281 368.686 49.0271 366.174 48.471C361.875 47.5292 357.487 47.0359 353.155 47Z" fill="#EDFBFF"/>
</mask>
<g mask="url(#mask4)">
<g filter="url(#filter8_f)">
<path d="M320.756 62.9278C320.751 62.9299 320.744 62.9338 320.737 62.9394L295.327 78.6102L296.545 108.277L305.605 133.58L350.89 138.216L351.687 132.8C344.406 132.158 317.227 131.667 309.964 104.667C304.192 83.2082 319.944 63.5228 320.737 62.9394L320.756 62.9278Z" fill="#BBEAF8"/>
</g>
</g>
<path d="M338 169.257L338.008 169.265L338 169.257Z" fill="#D23943"/>
<path d="M338.885 170.144L338.877 170.136L338.885 170.144Z" fill="#D23943"/>
<path d="M373.731 171.611C373.739 173.339 372.692 175.086 371.121 175.96C370.916 176.069 370.674 176.089 370.468 175.992C361.912 174.001 353.755 169.338 347.477 162.858C343.394 158.642 340.319 153.87 338.335 148.695C338.308 148.623 338.298 148.552 338.298 148.48C338.297 148.355 338.333 148.22 338.413 148.103C338.421 148.076 338.439 148.04 338.448 148.013C338.864 147.051 339.792 146.55 340.498 146.293C340.882 146.156 341.329 146.071 341.875 146.021C342.313 145.981 342.797 146.013 343.289 146.107C343.558 146.158 343.765 146.389 343.802 146.684L344.209 147.567C344.426 148.049 344.652 148.521 344.878 149.003L344.869 148.985C346.351 151.962 346.662 154.363 352.339 159.932C358.015 165.5 365.339 168.24 369.175 169.521C370.412 169.922 371.702 170.295 372.993 170.606C373.118 170.632 373.244 170.702 373.333 170.791C373.558 170.905 373.702 171.128 373.712 171.379C373.731 171.468 373.731 171.54 373.731 171.611Z" fill="#997144"/>
<path d="M361.234 168.575L361.226 168.583L361.234 168.575Z" fill="#D23943"/>
<path d="M360.352 169.462L360.36 169.454L360.352 169.462Z" fill="#D23943"/>
<ellipse rx="1.7909" ry="1.79761" transform="matrix(1 -1.33683e-08 0.00216959 0.999998 379.493 84.731)" fill="white" fill-opacity="0.22"/>
<path d="M389.13 64.6208C389.13 64.6208 376.22 28.5566 349.438 21.3232C307.026 9.8679 296.156 60.9328 293 60.1147C289.83 59.2951 283.881 49.7695 280.609 50.1417C277.323 50.5125 271.733 62.8777 271.733 62.8777C271.733 62.8777 279.71 55.3872 281.174 56.0417C282.638 56.6963 288.147 68.7443 293.267 69.0774C298.388 69.4104 308.511 57.4468 308.511 57.4468L305.484 69.0204L389.13 64.6208Z" fill="url(#paint11_linear)"/>
<path d="M322.712 32.7918C321.527 34.7483 319.852 36.4188 318.458 38.2358C317.049 40.0662 315.735 41.9803 314.533 43.9648C313.259 46.0765 312.125 48.2762 311.134 50.5344C310.2 52.6641 309.582 54.8988 308.692 57.0326C308.441 57.6341 307.389 57.458 307.532 56.7566C308.457 52.1231 310.926 47.4898 313.334 43.4764C315.635 39.6464 318.616 34.9286 322.498 32.5477C322.671 32.4452 322.798 32.6661 322.712 32.7918Z" fill="#0BCFA9"/>
<path d="M314.02 35.3484C313.161 38.5431 311.754 41.5656 310.937 44.7793C310.073 48.1673 309.334 52.1064 309.203 55.595C309.169 56.3963 307.92 56.2755 307.968 55.4756C308.129 51.9899 308.924 48.0859 309.815 44.7156C310.665 41.4752 311.753 37.9153 313.81 35.2238C313.896 35.098 314.064 35.2036 314.02 35.3484Z" fill="#0BCFA9"/>
<path d="M306.47 44.1687C306.862 48.3783 307.198 52.2547 308.768 56.2504C309.065 57.0092 307.901 57.5373 307.618 56.78C306.157 52.8841 305.27 48.2691 306.264 44.1488C306.288 44.0617 306.449 44.0773 306.47 44.1687Z" fill="#0BCFA9"/>
<path d="M394.571 74.2877C394.3 75.7521 392.72 76.2015 391.36 75.6001C382.124 71.517 346.36 58.553 304.5 80.5073C304.5 80.5073 302.794 79.7647 302.672 75.7505C302.454 68.6029 307.972 62.7638 314.483 59.8177C327.876 53.7579 353.219 45.5681 378.965 54.7628C385.631 57.1435 391.974 61.6216 394.067 68.3904C394.853 70.9352 394.826 72.9057 394.571 74.2877Z" fill="#00B9C2"/>
<circle cx="272.847" cy="59.1371" r="6.03185" transform="rotate(-71.6422 272.847 59.1371)" fill="#00B9C2"/>
<path d="M360.278 102.799C360.442 99.7593 357.12 97.509 354.1 97.8737C353.219 97.98 352.294 98.0259 351.355 97.9761C350.561 97.9339 349.793 97.8251 349.064 97.6726C346.096 97.0519 342.455 98.9378 342.292 101.968C342.222 103.255 342.796 104.496 343.892 105.172C345.638 106.248 348.424 107.712 350.823 107.839C353.21 107.966 356.249 106.825 358.199 105.947C359.44 105.389 360.204 104.157 360.278 102.799Z" fill="#FA667F"/>
<path d="M356.792 100.947C356.856 99.7538 355.625 98.8489 354.444 99.0261C353.847 99.1156 353.185 99.1664 352.507 99.1304C351.892 99.0977 351.309 98.9962 350.785 98.8648C349.626 98.5742 348.272 99.3434 348.208 100.538C348.176 101.118 348.462 101.67 348.977 101.936C349.815 102.368 351.151 102.959 352.297 103.02C353.442 103.08 354.896 102.638 355.822 102.3C356.392 102.092 356.759 101.553 356.792 100.947Z" fill="white" fill-opacity="0.2"/>
<path d="M347.262 123.997C342.724 123.614 338.432 120.422 339.385 115.632C340.039 112.344 343.936 116.101 348.032 116.522C352.128 116.944 356.04 114.681 356.133 118.245C356.239 122.291 351.434 124.35 347.262 123.997Z" fill="#414A5B"/>
<path d="M345.815 125.044C344.303 125.265 343.317 126.014 343.026 127.163C342.508 129.204 349.975 129.772 350 127.693C350.019 126.077 347.904 124.738 345.815 125.044Z" fill="#CAEFFA"/>
<path fill-rule="evenodd" clip-rule="evenodd" d="M330.349 134.782C329.362 132.219 329.388 129.271 330.632 126.61L330.755 126.347C332.24 123.173 336.543 122.715 338.824 125.358C340.862 127.719 343.12 130.071 344.675 130.928C345.546 131.408 345.763 131.5 346.748 131.5C347.734 131.5 349.482 130.478 349.482 130.478C350.969 129.662 352.827 130.223 353.631 131.732C354.396 133.168 353.932 134.945 352.603 135.816C352.069 136.321 351.078 137.366 350.69 138.5C350.059 140.345 350.198 143.5 350.198 143.5H333.937C333.937 143.5 332.813 140.72 331.966 139C331.206 137.458 330.681 135.916 330.349 134.782Z" fill="#00B9C2"/>
<path d="M331.664 143.087C331.87 142.62 332.161 142.21 332.528 141.881C332.594 141.822 332.666 141.775 332.759 141.747C332.895 141.689 333.116 141.648 333.282 141.73C334.62 142.321 336.073 142.766 337.594 143.056C339.473 143.383 341.362 143.481 343.22 143.35C344.903 143.202 346.483 142.873 347.949 142.368C348.599 142.132 349.225 141.857 349.8 141.561C350.008 141.456 350.252 141.454 350.469 141.558C350.697 141.637 350.832 141.745 350.956 141.945C351.283 142.468 351.541 143.009 351.726 143.578C351.916 144.158 352.029 144.754 352.062 145.461C352.109 146.321 351.948 147.217 351.584 148.045C351.433 148.39 351.244 148.727 351.029 149.034C351.002 149.071 350.967 149.105 350.941 149.142C350.873 149.25 350.776 149.334 350.672 149.387C348.135 150.648 345.099 151.253 341.656 151.193C340.14 151.169 338.517 150.972 336.822 150.617C335.303 150.299 333.832 149.827 332.455 149.209C332.293 149.139 332.131 149.049 332.023 148.856C331.948 148.774 331.889 148.7 331.852 148.625C331.378 147.678 331.155 146.527 331.205 145.192C331.231 144.559 331.35 143.917 331.561 143.345C331.592 143.251 331.632 143.161 331.664 143.087Z" fill="#04AEB7"/>
<g filter="url(#filter9_f)">
<path d="M337.363 82.3791C337.413 80.8266 336.03 79.6118 334.487 79.7851C333.127 79.9379 331.538 80.0661 330.267 80.026C328.962 79.9848 327.336 79.7458 325.966 79.5008C324.485 79.2362 322.902 80.3905 323.473 81.783C323.899 82.8224 325.77 84.7031 330.112 84.8401C332.396 84.9122 334.268 84.7288 335.529 84.5388C336.594 84.3782 337.329 83.4565 337.363 82.3791Z" fill="#DAF5FD"/>
</g>
<g filter="url(#filter10_f)">
<path d="M362.145 78.9702C361.65 80.4424 362.624 82.0045 364.151 82.2833C365.498 82.5293 367.056 82.8644 368.262 83.2695C369.499 83.6852 370.987 84.3829 372.229 85.0126C373.57 85.693 375.419 85.0441 375.274 83.5461C375.165 82.4279 373.916 80.0877 369.798 78.7045C367.631 77.9768 365.787 77.6128 364.524 77.4312C363.458 77.2778 362.489 77.9486 362.145 78.9702Z" fill="#DAF5FD"/>
</g>
<path d="M363.784 77.3801C363.182 78.8115 364.036 80.4428 365.536 80.8354C366.861 81.1822 368.39 81.634 369.563 82.1291C370.766 82.6371 372.199 83.4458 373.39 84.1676C374.676 84.9469 376.566 84.4378 376.531 82.9323C376.506 81.8086 375.434 79.3799 371.432 77.6901C369.326 76.8009 367.513 76.299 366.269 76.0229C365.218 75.7899 364.203 76.3864 363.784 77.3801Z" fill="#C0E2EC"/>
<path d="M338.628 80.5069C338.546 78.9571 337.063 77.8593 335.54 78.1564C334.196 78.4185 332.622 78.6745 331.351 78.7373C330.046 78.8017 328.403 78.695 327.016 78.5618C325.516 78.4179 324.035 79.6952 324.723 81.0356C325.236 82.0361 327.262 83.7575 331.604 83.5432C333.889 83.4304 335.74 83.0966 336.982 82.8055C338.03 82.5596 338.685 81.5825 338.628 80.5069Z" fill="#C0E2EC"/>
<path d="M373.303 94.5291C372.505 98.7999 369.922 99.331 366.559 99.2314C363.195 99.1318 359.694 96.4767 360.492 92.2059C361.291 87.9351 364.807 84.993 368.344 85.6345C371.882 86.2761 374.102 90.2583 373.303 94.5291Z" fill="#414A5B"/>
<path d="M338.811 89.1469C339 91.0001 337.484 95.0218 333.622 96.5168C329.759 98.0118 324.847 96.8966 323.85 94.3213C322.853 91.746 323 86 329 85.5C333.074 85.1606 338.5 85.0001 338.811 89.1469Z" fill="#414A5B"/>
<ellipse rx="1.93838" ry="1.94565" transform="matrix(-0.992519 -0.122091 -0.124244 0.992252 328.166 89.1672)" fill="white"/>
<ellipse rx="1.93838" ry="1.94565" transform="matrix(-0.992519 -0.122091 -0.124244 0.992252 365.166 90.1673)" fill="white"/>
<ellipse rx="0.970151" ry="0.973787" transform="matrix(-0.992519 -0.122091 -0.124244 0.992252 331.084 91.0847)" fill="white" fill-opacity="0.22"/>
<ellipse rx="0.970151" ry="0.973787" transform="matrix(-0.992519 -0.122091 -0.124244 0.992252 368.084 92.0849)" fill="white" fill-opacity="0.22"/>
<path d="M307.644 147.952C306.872 146.405 305.15 145.319 303.354 145.247C303.121 145.242 302.896 145.333 302.756 145.512C296.016 151.146 290.837 158.986 288.155 167.6C286.411 173.205 285.818 178.85 286.38 184.365C286.388 184.441 286.412 184.509 286.444 184.573C286.5 184.685 286.592 184.789 286.716 184.858C286.736 184.878 286.768 184.902 286.788 184.922C287.593 185.593 288.647 185.622 289.393 185.533C289.798 185.483 290.235 185.357 290.745 185.155C291.154 184.993 291.571 184.747 291.969 184.441C292.186 184.274 292.266 183.975 292.166 183.694L292.132 182.723C292.108 182.195 292.097 181.671 292.082 181.14L292.082 181.16C292.062 177.834 291.258 175.55 293.814 168.021C296.37 160.492 301.672 154.745 304.519 151.871C305.443 150.956 306.426 150.041 307.438 149.182C307.538 149.102 307.618 148.983 307.659 148.863C307.807 148.66 307.836 148.396 307.732 148.168C307.708 148.08 307.676 148.016 307.644 147.952Z" fill="#997144"/>
<path d="M301.059 193.847C301.021 193.775 300.98 193.695 300.942 193.623C300.942 193.623 300.942 193.623 300.946 193.631C300.914 193.576 300.883 193.521 300.855 193.475C300.677 193.217 300.494 192.972 300.299 192.721C300.061 192.41 299.826 192.107 299.58 191.799C298.549 190.721 297.545 189.612 296.498 188.54C296.457 188.508 296.444 188.427 296.452 188.375C296.461 188.324 296.495 188.263 296.541 188.235C296.593 188.195 296.655 188.181 296.715 188.187C296.778 188.2 296.819 188.232 296.856 188.276C296.867 188.281 296.871 188.289 296.882 188.294C296.896 188.28 296.909 188.265 296.931 188.247C296.983 188.207 297.044 188.193 297.099 188.21C297.162 188.224 297.204 188.256 297.248 188.296C297.399 188.459 297.546 188.613 297.697 188.775C297.715 188.749 297.734 188.722 297.764 188.701C297.799 188.668 297.852 188.657 297.9 188.657L297.871 188.582C297.723 188.208 297.37 188.018 297.026 188.123C296.336 187.566 295.553 187.044 294.689 186.582C293.318 185.838 291.763 185.308 290.189 185.046C288.539 184.766 286.981 184.814 285.546 185.199C284.054 185.587 282.711 186.427 281.759 187.575C281.58 187.779 281.535 188.056 281.63 188.298C281.666 188.389 281.715 188.466 281.793 188.542C281.85 188.587 281.894 188.627 281.952 188.653C281.698 189.107 281.471 189.58 281.272 190.051C280.821 191.129 280.491 192.295 280.281 193.52C280.09 194.67 280.035 195.873 280.116 197.081C280.168 197.849 280.328 198.67 280.588 199.501C280.668 199.777 280.764 200.047 280.869 200.314C281.063 200.805 281.3 201.309 281.584 201.861C281.97 202.595 282.448 203.322 283.008 204.036C284.191 205.526 285.533 206.638 287.002 207.364C288.394 208.042 289.886 208.288 291.316 208.087C293.046 207.838 294.602 206.954 295.583 205.66C296.445 204.527 296.967 203.018 297.142 201.192C297.226 200.256 297.228 199.285 297.134 198.217C297.542 198.519 298.017 198.748 298.51 198.902C299.035 199.063 299.623 199.065 300.111 198.913C300.633 198.749 301.066 198.359 301.336 197.822C301.602 197.277 301.696 196.587 301.604 195.719C301.557 195.258 301.442 194.793 301.248 194.302C301.194 194.14 301.13 194.002 301.059 193.847Z" fill="#00B9C2"/>
<path d="M280.177 187.979C280.364 188.453 280.636 188.876 280.984 189.221C281.047 189.283 281.114 189.334 281.204 189.366C281.335 189.43 281.548 189.482 281.712 189.409C283.026 188.888 284.448 188.518 285.932 188.306C287.764 188.074 289.6 188.071 291.4 188.293C293.03 188.524 294.555 188.93 295.965 189.506C296.589 189.773 297.19 190.077 297.741 190.401C297.94 190.516 298.176 190.529 298.389 190.437C298.613 190.369 298.747 190.269 298.873 190.076C299.203 189.573 299.468 189.047 299.662 188.491C299.862 187.923 299.987 187.337 300.038 186.635C300.106 185.782 299.973 184.883 299.642 184.041C299.504 183.692 299.329 183.346 299.128 183.031C299.103 182.992 299.07 182.957 299.046 182.919C298.983 182.808 298.89 182.72 298.791 182.662C296.362 181.282 293.431 180.529 290.087 180.417C288.615 180.365 287.035 180.48 285.38 180.748C283.898 180.989 282.457 181.385 281.104 181.931C280.946 181.992 280.785 182.074 280.676 182.26C280.601 182.338 280.542 182.409 280.504 182.481C280.019 183.4 279.773 184.533 279.786 185.863C279.794 186.494 279.894 187.138 280.084 187.717C280.111 187.812 280.147 187.904 280.177 187.979Z" fill="#04AEB7"/>
<path d="M38.366 96.506V79.294C38.366 79.1727 38.4093 79.06 38.496 78.956C38.6 78.852 38.7213 78.8 38.86 78.8H41.278C41.3993 78.8 41.512 78.852 41.616 78.956C41.72 79.06 41.772 79.1727 41.772 79.294V96.506C41.772 96.6273 41.72 96.74 41.616 96.844C41.512 96.948 41.3993 97 41.278 97H38.86C38.7213 97 38.6 96.948 38.496 96.844C38.4093 96.74 38.366 96.6273 38.366 96.506ZM51.4487 96.506V87.094C51.4487 86.9553 51.492 86.8427 51.5787 86.756C51.6827 86.652 51.804 86.6 51.9427 86.6H52.9047C53.13 86.6 53.2773 86.6953 53.3467 86.886L53.7107 87.874C54.6293 86.8513 55.7907 86.34 57.1947 86.34C58.564 86.34 59.6907 86.8773 60.5747 87.952C61.5973 86.8773 62.8193 86.34 64.2407 86.34C65.8007 86.34 66.9447 86.834 67.6727 87.822C68.418 88.7927 68.7907 90.032 68.7907 91.54V96.506C68.7907 96.6447 68.7387 96.766 68.6347 96.87C68.548 96.9567 68.4353 97 68.2967 97H66.1907C66.052 97 65.9307 96.9567 65.8267 96.87C65.74 96.766 65.6967 96.6447 65.6967 96.506V91.358C65.6967 90.6647 65.532 90.1273 65.2027 89.746C64.8733 89.3473 64.388 89.148 63.7467 89.148C63.296 89.148 62.8887 89.2433 62.5247 89.434C62.1607 89.6073 61.9093 89.7893 61.7707 89.98L61.5627 90.24C61.58 90.5867 61.5887 90.916 61.5887 91.228V96.506C61.5887 96.6273 61.5367 96.74 61.4327 96.844C61.3287 96.948 61.216 97 61.0947 97H59.1447C59.006 97 58.8847 96.9567 58.7807 96.87C58.694 96.766 58.6507 96.6447 58.6507 96.506V91.358C58.6507 89.8847 58.0093 89.148 56.7267 89.148C55.6693 89.148 54.9413 89.694 54.5427 90.786V96.506C54.5427 96.6273 54.4907 96.74 54.3867 96.844C54.3 96.948 54.1873 97 54.0487 97H51.9427C51.8213 97 51.7087 96.948 51.6047 96.844C51.5007 96.74 51.4487 96.6273 51.4487 96.506ZM70.9564 93.698C70.9564 92.7447 71.3291 91.9647 72.0744 91.358C72.8197 90.734 73.8337 90.422 75.1164 90.422C75.4284 90.422 75.7404 90.448 76.0524 90.5C76.3644 90.5347 76.5984 90.578 76.7544 90.63L77.0144 90.708C77.0317 90.0493 76.9277 89.59 76.7024 89.33C76.4944 89.0527 76.1477 88.914 75.6624 88.914C74.5704 88.914 73.5997 89.044 72.7504 89.304C72.4211 89.408 72.2217 89.252 72.1524 88.836L71.9184 87.484C71.8491 87.1547 71.9704 86.938 72.2824 86.834C72.3864 86.7993 72.5944 86.7473 72.9064 86.678C73.2184 86.6087 73.6517 86.5393 74.2064 86.47C74.7784 86.3833 75.3157 86.34 75.8184 86.34C77.3611 86.34 78.4097 86.7127 78.9644 87.458C79.5364 88.186 79.8224 89.3213 79.8224 90.864V96.506C79.8224 96.6273 79.7704 96.74 79.6664 96.844C79.5624 96.948 79.4497 97 79.3284 97H78.3924C78.2017 97 78.0544 96.8787 77.9504 96.636L77.6384 95.934C76.6677 96.818 75.6104 97.26 74.4664 97.26C73.4091 97.26 72.5597 96.9393 71.9184 96.298C71.2771 95.6567 70.9564 94.79 70.9564 93.698ZM73.8164 93.698C73.8164 94.0967 73.9377 94.426 74.1804 94.686C74.4404 94.9287 74.7697 95.05 75.1684 95.05C75.5497 95.05 75.9137 94.9287 76.2604 94.686C76.6244 94.4433 76.8584 94.2267 76.9624 94.036V92.606C76.4944 92.398 76.0091 92.294 75.5064 92.294C75.0037 92.294 74.5964 92.424 74.2844 92.684C73.9724 92.944 73.8164 93.282 73.8164 93.698ZM85.6921 96.272L81.4541 87.276C81.3674 87.1027 81.3674 86.9467 81.4541 86.808C81.5581 86.6693 81.7054 86.6 81.8961 86.6H84.2361C84.4268 86.6 84.5741 86.6953 84.6781 86.886L87.3041 92.762H87.3301L89.9301 86.886C90.0341 86.6953 90.2421 86.6 90.5541 86.6H92.6341C92.8421 86.6 92.9894 86.6693 93.0761 86.808C93.1628 86.9467 93.1628 87.1027 93.0761 87.276L85.1201 104.488C85.0161 104.696 84.8688 104.8 84.6781 104.8H82.4421C82.2514 104.8 82.1041 104.722 82.0001 104.566C81.9134 104.427 81.9134 104.271 82.0001 104.098L85.6921 96.272ZM100.58 96.506V79.294C100.58 79.1727 100.632 79.06 100.736 78.956C100.84 78.852 100.952 78.8 101.074 78.8H103.284C103.422 78.8 103.535 78.852 103.622 78.956C103.726 79.06 103.778 79.1727 103.778 79.294V87.198C104.54 86.626 105.459 86.34 106.534 86.34C108.076 86.34 109.238 86.8427 110.018 87.848C110.798 88.836 111.188 90.058 111.188 91.514V96.506C111.188 96.6273 111.136 96.74 111.032 96.844C110.928 96.948 110.815 97 110.694 97H108.588C108.449 97 108.328 96.9567 108.224 96.87C108.137 96.766 108.094 96.6447 108.094 96.506V91.488C108.094 90.7773 107.903 90.214 107.522 89.798C107.158 89.3647 106.664 89.148 106.04 89.148C105.468 89.148 104.982 89.3213 104.584 89.668C104.185 89.9973 103.916 90.4393 103.778 90.994V96.506C103.778 96.8353 103.596 97 103.232 97H101.074C100.952 97 100.84 96.948 100.736 96.844C100.632 96.74 100.58 96.6273 100.58 96.506ZM113.333 93.698C113.333 92.7447 113.706 91.9647 114.451 91.358C115.197 90.734 116.211 90.422 117.493 90.422C117.805 90.422 118.117 90.448 118.429 90.5C118.741 90.5347 118.975 90.578 119.131 90.63L119.391 90.708C119.409 90.0493 119.305 89.59 119.079 89.33C118.871 89.0527 118.525 88.914 118.039 88.914C116.947 88.914 115.977 89.044 115.127 89.304C114.798 89.408 114.599 89.252 114.529 88.836L114.295 87.484C114.226 87.1547 114.347 86.938 114.659 86.834C114.763 86.7993 114.971 86.7473 115.283 86.678C115.595 86.6087 116.029 86.5393 116.583 86.47C117.155 86.3833 117.693 86.34 118.195 86.34C119.738 86.34 120.787 86.7127 121.341 87.458C121.913 88.186 122.199 89.3213 122.199 90.864V96.506C122.199 96.6273 122.147 96.74 122.043 96.844C121.939 96.948 121.827 97 121.705 97H120.769C120.579 97 120.431 96.8787 120.327 96.636L120.015 95.934C119.045 96.818 117.987 97.26 116.843 97.26C115.786 97.26 114.937 96.9393 114.295 96.298C113.654 95.6567 113.333 94.79 113.333 93.698ZM116.193 93.698C116.193 94.0967 116.315 94.426 116.557 94.686C116.817 94.9287 117.147 95.05 117.545 95.05C117.927 95.05 118.291 94.9287 118.637 94.686C119.001 94.4433 119.235 94.2267 119.339 94.036V92.606C118.871 92.398 118.386 92.294 117.883 92.294C117.381 92.294 116.973 92.424 116.661 92.684C116.349 92.944 116.193 93.282 116.193 93.698ZM128.537 97L123.805 87.224C123.718 87.0507 123.71 86.9033 123.779 86.782C123.848 86.6607 123.978 86.6 124.169 86.6H126.431C126.639 86.6 126.795 86.6953 126.899 86.886L129.005 91.722H129.057L131.293 86.886C131.38 86.6953 131.588 86.6 131.917 86.6H133.945C134.136 86.6 134.266 86.6607 134.335 86.782C134.404 86.9033 134.396 87.0507 134.309 87.224L129.551 97C129.447 97.1733 129.3 97.26 129.109 97.26H128.979C128.788 97.26 128.641 97.1733 128.537 97ZM135.27 91.8C135.27 90.3093 135.773 89.0267 136.778 87.952C137.784 86.8773 139.049 86.34 140.574 86.34C141.926 86.34 143.07 86.7993 144.006 87.718C144.96 88.6367 145.436 89.7893 145.436 91.176C145.436 91.4013 145.419 91.6353 145.384 91.878C145.35 92.1727 145.185 92.32 144.89 92.32H138.234C138.269 92.9093 138.512 93.438 138.962 93.906C139.43 94.3567 140.02 94.582 140.73 94.582C141.476 94.582 142.152 94.3653 142.758 93.932C143.053 93.7587 143.278 93.7587 143.434 93.932L144.5 95.154C144.743 95.3967 144.734 95.622 144.474 95.83C143.452 96.7833 142.16 97.26 140.6 97.26C139.058 97.26 137.784 96.7313 136.778 95.674C135.773 94.6167 135.27 93.3253 135.27 91.8ZM138.468 90.5H142.394C142.36 90.0147 142.152 89.5987 141.77 89.252C141.406 88.9053 140.982 88.732 140.496 88.732C139.976 88.732 139.526 88.9053 139.144 89.252C138.763 89.5813 138.538 89.9973 138.468 90.5ZM152.951 96.298C152.743 96.1247 152.691 95.9427 152.795 95.752L153.497 94.348C153.601 94.0707 153.8 94.01 154.095 94.166C154.875 94.582 155.663 94.79 156.461 94.79C157.05 94.79 157.345 94.5733 157.345 94.14C157.345 93.8973 157.223 93.6893 156.981 93.516C156.738 93.3427 156.279 93.1173 155.603 92.84C153.644 92.0773 152.665 90.9333 152.665 89.408C152.665 88.5413 152.985 87.8133 153.627 87.224C154.285 86.6347 155.239 86.34 156.487 86.34C157.804 86.34 158.87 86.6087 159.685 87.146C159.979 87.3367 160.057 87.5707 159.919 87.848L159.269 89.174C159.147 89.3993 158.939 89.46 158.645 89.356C157.865 88.992 157.145 88.81 156.487 88.81C155.897 88.81 155.603 89.0093 155.603 89.408C155.603 89.616 155.681 89.772 155.837 89.876C156.01 89.98 156.348 90.136 156.851 90.344C156.937 90.3787 156.998 90.4047 157.033 90.422C158.194 90.8727 159.069 91.3667 159.659 91.904C160.248 92.424 160.543 93.152 160.543 94.088C160.543 94.9893 160.17 95.7433 159.425 96.35C158.679 96.9567 157.674 97.26 156.409 97.26C154.953 97.26 153.8 96.9393 152.951 96.298ZM162.031 91.774C162.031 90.3007 162.551 89.0267 163.591 87.952C164.649 86.8773 165.905 86.34 167.361 86.34C168.817 86.34 170.065 86.8773 171.105 87.952C172.163 89.0267 172.691 90.3007 172.691 91.774C172.691 93.2647 172.171 94.556 171.131 95.648C170.091 96.7227 168.835 97.26 167.361 97.26C165.888 97.26 164.631 96.7227 163.591 95.648C162.551 94.556 162.031 93.2647 162.031 91.774ZM164.865 91.774C164.865 92.5193 165.108 93.152 165.593 93.672C166.079 94.192 166.668 94.452 167.361 94.452C168.055 94.452 168.644 94.192 169.129 93.672C169.615 93.152 169.857 92.5193 169.857 91.774C169.857 91.046 169.615 90.4307 169.129 89.928C168.644 89.408 168.055 89.148 167.361 89.148C166.668 89.148 166.079 89.408 165.593 89.928C165.108 90.4307 164.865 91.046 164.865 91.774ZM174.999 96.506V87.094C174.999 86.9553 175.043 86.8427 175.129 86.756C175.233 86.652 175.355 86.6 175.493 86.6H176.455C176.681 86.6 176.828 86.6953 176.897 86.886L177.261 87.874C178.18 86.8513 179.341 86.34 180.745 86.34C182.115 86.34 183.241 86.8773 184.125 87.952C185.148 86.8773 186.37 86.34 187.791 86.34C189.351 86.34 190.495 86.834 191.223 87.822C191.969 88.7927 192.341 90.032 192.341 91.54V96.506C192.341 96.6447 192.289 96.766 192.185 96.87C192.099 96.9567 191.986 97 191.847 97H189.741C189.603 97 189.481 96.9567 189.377 96.87C189.291 96.766 189.247 96.6447 189.247 96.506V91.358C189.247 90.6647 189.083 90.1273 188.753 89.746C188.424 89.3473 187.939 89.148 187.297 89.148C186.847 89.148 186.439 89.2433 186.075 89.434C185.711 89.6073 185.46 89.7893 185.321 89.98L185.113 90.24C185.131 90.5867 185.139 90.916 185.139 91.228V96.506C185.139 96.6273 185.087 96.74 184.983 96.844C184.879 96.948 184.767 97 184.645 97H182.695C182.557 97 182.435 96.9567 182.331 96.87C182.245 96.766 182.201 96.6447 182.201 96.506V91.358C182.201 89.8847 181.56 89.148 180.277 89.148C179.22 89.148 178.492 89.694 178.093 90.786V96.506C178.093 96.6273 178.041 96.74 177.937 96.844C177.851 96.948 177.738 97 177.599 97H175.493C175.372 97 175.259 96.948 175.155 96.844C175.051 96.74 174.999 96.6273 174.999 96.506ZM194.481 91.8C194.481 90.3093 194.984 89.0267 195.989 87.952C196.995 86.8773 198.26 86.34 199.785 86.34C201.137 86.34 202.281 86.7993 203.217 87.718C204.171 88.6367 204.647 89.7893 204.647 91.176C204.647 91.4013 204.63 91.6353 204.595 91.878C204.561 92.1727 204.396 92.32 204.101 92.32H197.445C197.48 92.9093 197.723 93.438 198.173 93.906C198.641 94.3567 199.231 94.582 199.941 94.582C200.687 94.582 201.363 94.3653 201.969 93.932C202.264 93.7587 202.489 93.7587 202.645 93.932L203.711 95.154C203.954 95.3967 203.945 95.622 203.685 95.83C202.663 96.7833 201.371 97.26 199.811 97.26C198.269 97.26 196.995 96.7313 195.989 95.674C194.984 94.6167 194.481 93.3253 194.481 91.8ZM197.679 90.5H201.605C201.571 90.0147 201.363 89.5987 200.981 89.252C200.617 88.9053 200.193 88.732 199.707 88.732C199.187 88.732 198.737 88.9053 198.355 89.252C197.974 89.5813 197.749 89.9973 197.679 90.5ZM37.43 124.232C37.1873 123.989 37.144 123.729 37.3 123.452L38.236 121.84C38.34 121.667 38.4873 121.571 38.678 121.554C38.8687 121.519 39.016 121.554 39.12 121.658L39.25 121.736C39.3367 121.805 39.432 121.875 39.536 121.944C39.6573 122.013 39.8047 122.1 39.978 122.204C40.1513 122.308 40.3247 122.412 40.498 122.516C40.6713 122.603 40.8707 122.698 41.096 122.802C41.3213 122.889 41.538 122.967 41.746 123.036C41.954 123.105 42.1707 123.166 42.396 123.218C42.6213 123.253 42.838 123.27 43.046 123.27C43.722 123.27 44.2853 123.079 44.736 122.698C45.1867 122.299 45.412 121.823 45.412 121.268C45.412 120.627 45.1433 120.063 44.606 119.578C44.0687 119.075 43.2367 118.599 42.11 118.148C40.654 117.559 39.4753 116.822 38.574 115.938C37.6727 115.054 37.222 113.919 37.222 112.532C37.222 111.215 37.716 110.053 38.704 109.048C39.7093 108.043 41.1653 107.54 43.072 107.54C44.996 107.54 46.7293 108.121 48.272 109.282C48.3933 109.351 48.4713 109.481 48.506 109.672C48.5407 109.863 48.5147 110.019 48.428 110.14L47.44 111.622C47.1627 112.038 46.8593 112.142 46.53 111.934C45.0047 110.981 43.8 110.504 42.916 110.504C42.2227 110.504 41.668 110.695 41.252 111.076C40.836 111.457 40.628 111.873 40.628 112.324C40.628 112.931 40.8707 113.459 41.356 113.91C41.8413 114.361 42.6213 114.803 43.696 115.236C44.4413 115.531 45.0827 115.834 45.62 116.146C46.1747 116.441 46.738 116.822 47.31 117.29C47.8993 117.741 48.35 118.295 48.662 118.954C48.974 119.595 49.13 120.315 49.13 121.112C49.13 122.516 48.5753 123.729 47.466 124.752C46.3567 125.757 44.918 126.26 43.15 126.26C42.162 126.26 41.2173 126.113 40.316 125.818C39.432 125.523 38.7993 125.255 38.418 125.012C38.0367 124.752 37.7073 124.492 37.43 124.232ZM52.4578 125.506V108.008C52.4578 107.887 52.5011 107.783 52.5878 107.696C52.6918 107.592 52.8131 107.54 52.9518 107.54H53.6018L64.4178 119.032H64.4438V108.294C64.4438 108.155 64.4871 108.043 64.5738 107.956C64.6778 107.852 64.7991 107.8 64.9378 107.8H67.3298C67.4511 107.8 67.5638 107.852 67.6678 107.956C67.7718 108.06 67.8238 108.173 67.8238 108.294V125.792C67.8238 125.913 67.7718 126.017 67.6678 126.104C67.5811 126.208 67.4685 126.26 67.3298 126.26H66.7058L55.8378 114.326H55.8118V125.506C55.8118 125.645 55.7598 125.766 55.6558 125.87C55.5691 125.957 55.4565 126 55.3178 126H52.9518C52.8131 126 52.6918 125.948 52.5878 125.844C52.5011 125.74 52.4578 125.627 52.4578 125.506ZM73.9712 123.556C72.1685 121.736 71.2672 119.526 71.2672 116.926C71.2672 114.326 72.1685 112.116 73.9712 110.296C75.7912 108.459 78.0012 107.54 80.6012 107.54C83.2012 107.54 85.4112 108.459 87.2312 110.296C89.0512 112.116 89.9612 114.326 89.9612 116.926C89.9612 119.526 89.0512 121.736 87.2312 123.556C85.4112 125.359 83.2012 126.26 80.6012 126.26C78.0012 126.26 75.7912 125.359 73.9712 123.556ZM76.3892 112.688C75.2278 113.867 74.6472 115.279 74.6472 116.926C74.6472 118.573 75.2278 119.977 76.3892 121.138C77.5678 122.299 78.9718 122.88 80.6012 122.88C82.2478 122.88 83.6518 122.299 84.8132 121.138C85.9918 119.959 86.5812 118.555 86.5812 116.926C86.5812 115.279 85.9918 113.867 84.8132 112.688C83.6345 111.509 82.2305 110.92 80.6012 110.92C78.9718 110.92 77.5678 111.509 76.3892 112.688ZM96.5371 125.896L91.6231 108.424C91.5711 108.251 91.5885 108.103 91.6751 107.982C91.7618 107.861 91.9005 107.8 92.0911 107.8H94.4831C94.7258 107.8 94.8818 107.921 94.9511 108.164L97.6551 118.538H97.7591L101.893 107.826C101.962 107.635 102.11 107.54 102.335 107.54H102.803C103.028 107.54 103.176 107.635 103.245 107.826L107.405 118.538H107.509L110.161 108.164C110.23 107.921 110.386 107.8 110.629 107.8H113.021C113.212 107.8 113.35 107.861 113.437 107.982C113.524 108.103 113.541 108.251 113.489 108.424L108.575 125.896C108.523 126.139 108.367 126.26 108.107 126.26H107.691C107.466 126.26 107.318 126.165 107.249 125.974L102.595 114.196H102.465L97.8631 125.974C97.7765 126.165 97.6291 126.26 97.4211 126.26H97.0051C96.7625 126.26 96.6065 126.139 96.5371 125.896ZM122.176 125.506V118.33H121.292C121.154 118.33 121.032 118.287 120.928 118.2C120.842 118.096 120.798 117.975 120.798 117.836V116.094C120.798 115.765 120.963 115.6 121.292 115.6H122.176V112.792C122.176 111.128 122.627 109.837 123.528 108.918C124.43 107.999 125.6 107.54 127.038 107.54C127.662 107.54 128.26 107.653 128.832 107.878C129.404 108.086 129.829 108.311 130.106 108.554C130.314 108.727 130.349 108.927 130.21 109.152L129.326 110.816C129.205 111.059 128.997 111.102 128.702 110.946C128.148 110.599 127.636 110.426 127.168 110.426C126.614 110.426 126.18 110.634 125.868 111.05C125.574 111.449 125.426 112.029 125.426 112.792V115.6H128.026C128.356 115.6 128.52 115.765 128.52 116.094V117.836C128.52 117.975 128.468 118.096 128.364 118.2C128.278 118.287 128.165 118.33 128.026 118.33H125.426V125.506C125.426 125.627 125.374 125.74 125.27 125.844C125.184 125.948 125.071 126 124.932 126H122.67C122.549 126 122.436 125.948 122.332 125.844C122.228 125.74 122.176 125.627 122.176 125.506ZM129.684 120.774C129.684 119.301 130.204 118.027 131.244 116.952C132.301 115.877 133.558 115.34 135.014 115.34C136.47 115.34 137.718 115.877 138.758 116.952C139.815 118.027 140.344 119.301 140.344 120.774C140.344 122.265 139.824 123.556 138.784 124.648C137.744 125.723 136.487 126.26 135.014 126.26C133.54 126.26 132.284 125.723 131.244 124.648C130.204 123.556 129.684 122.265 129.684 120.774ZM132.518 120.774C132.518 121.519 132.76 122.152 133.246 122.672C133.731 123.192 134.32 123.452 135.014 123.452C135.707 123.452 136.296 123.192 136.782 122.672C137.267 122.152 137.51 121.519 137.51 120.774C137.51 120.046 137.267 119.431 136.782 118.928C136.296 118.408 135.707 118.148 135.014 118.148C134.32 118.148 133.731 118.408 133.246 118.928C132.76 119.431 132.518 120.046 132.518 120.774ZM142.652 125.506V116.094C142.652 115.955 142.695 115.843 142.782 115.756C142.886 115.652 143.007 115.6 143.146 115.6H144.134C144.359 115.6 144.515 115.713 144.602 115.938L144.966 116.952C145.711 115.877 146.69 115.34 147.904 115.34C148.562 115.34 149.1 115.435 149.516 115.626C149.932 115.817 150.062 116.068 149.906 116.38L148.944 118.07C148.788 118.347 148.588 118.425 148.346 118.304C148.034 118.2 147.782 118.148 147.592 118.148C147.124 118.148 146.725 118.269 146.396 118.512C146.084 118.737 145.867 118.971 145.746 119.214V125.506C145.746 125.835 145.546 126 145.148 126H143.146C143.024 126 142.912 125.948 142.808 125.844C142.704 125.74 142.652 125.627 142.652 125.506ZM160.137 125.272L155.899 116.276C155.813 116.103 155.813 115.947 155.899 115.808C156.003 115.669 156.151 115.6 156.341 115.6H158.681C158.872 115.6 159.019 115.695 159.123 115.886L161.749 121.762H161.775L164.375 115.886C164.479 115.695 164.687 115.6 164.999 115.6H167.079C167.287 115.6 167.435 115.669 167.521 115.808C167.608 115.947 167.608 116.103 167.521 116.276L159.565 133.488C159.461 133.696 159.314 133.8 159.123 133.8H156.887C156.697 133.8 156.549 133.722 156.445 133.566C156.359 133.427 156.359 133.271 156.445 133.098L160.137 125.272ZM168.481 120.774C168.481 119.301 169.001 118.027 170.041 116.952C171.098 115.877 172.355 115.34 173.811 115.34C175.267 115.34 176.515 115.877 177.555 116.952C178.612 118.027 179.141 119.301 179.141 120.774C179.141 122.265 178.621 123.556 177.581 124.648C176.541 125.723 175.284 126.26 173.811 126.26C172.337 126.26 171.081 125.723 170.041 124.648C169.001 123.556 168.481 122.265 168.481 120.774ZM171.315 120.774C171.315 121.519 171.557 122.152 172.043 122.672C172.528 123.192 173.117 123.452 173.811 123.452C174.504 123.452 175.093 123.192 175.579 122.672C176.064 122.152 176.307 121.519 176.307 120.774C176.307 120.046 176.064 119.431 175.579 118.928C175.093 118.408 174.504 118.148 173.811 118.148C173.117 118.148 172.528 118.408 172.043 118.928C171.557 119.431 171.315 120.046 171.315 120.774ZM181.267 121.138V116.094C181.267 115.955 181.31 115.843 181.397 115.756C181.501 115.652 181.622 115.6 181.761 115.6H183.893C184.031 115.6 184.144 115.652 184.231 115.756C184.335 115.843 184.387 115.955 184.387 116.094V121.216C184.387 121.909 184.551 122.455 184.881 122.854C185.227 123.253 185.695 123.452 186.285 123.452C186.805 123.452 187.255 123.253 187.637 122.854C188.035 122.455 188.278 122.005 188.365 121.502V116.094C188.365 115.903 188.408 115.773 188.495 115.704C188.581 115.635 188.729 115.6 188.937 115.6H190.913C191.051 115.6 191.164 115.652 191.251 115.756C191.355 115.843 191.407 115.955 191.407 116.094V125.506C191.407 125.627 191.355 125.74 191.251 125.844C191.164 125.948 191.051 126 190.913 126H189.951C189.725 126 189.561 125.87 189.457 125.61L189.145 124.752C189.127 124.769 189.058 124.83 188.937 124.934C188.833 125.038 188.746 125.116 188.677 125.168C188.625 125.22 188.521 125.298 188.365 125.402C188.226 125.506 188.096 125.593 187.975 125.662C187.871 125.731 187.723 125.809 187.533 125.896C187.359 125.983 187.177 126.043 186.987 126.078C186.813 126.13 186.605 126.173 186.363 126.208C186.137 126.243 185.903 126.26 185.661 126.26C184.153 126.26 183.043 125.775 182.333 124.804C181.622 123.833 181.267 122.611 181.267 121.138ZM194.499 125.636C194.083 125.22 193.875 124.717 193.875 124.128C193.875 123.539 194.083 123.036 194.499 122.62C194.915 122.187 195.418 121.97 196.007 121.97C196.596 121.97 197.099 122.187 197.515 122.62C197.948 123.036 198.165 123.539 198.165 124.128C198.165 124.717 197.948 125.22 197.515 125.636C197.099 126.052 196.596 126.26 196.007 126.26C195.418 126.26 194.915 126.052 194.499 125.636ZM200.618 125.636C200.202 125.22 199.994 124.717 199.994 124.128C199.994 123.539 200.202 123.036 200.618 122.62C201.034 122.187 201.537 121.97 202.126 121.97C202.715 121.97 203.218 122.187 203.634 122.62C204.067 123.036 204.284 123.539 204.284 124.128C204.284 124.717 204.067 125.22 203.634 125.636C203.218 126.052 202.715 126.26 202.126 126.26C201.537 126.26 201.034 126.052 200.618 125.636ZM206.737 125.636C206.321 125.22 206.113 124.717 206.113 124.128C206.113 123.539 206.321 123.036 206.737 122.62C207.153 122.187 207.656 121.97 208.245 121.97C208.834 121.97 209.337 122.187 209.753 122.62C210.186 123.036 210.403 123.539 210.403 124.128C210.403 124.717 210.186 125.22 209.753 125.636C209.337 126.052 208.834 126.26 208.245 126.26C207.656 126.26 207.153 126.052 206.737 125.636Z" fill="#00B9C2"/>
<path d="M43.074 146.236C42.03 146.236 41.232 146.626 40.68 147.406C40.128 148.186 39.852 149.254 39.852 150.61C39.852 151.978 40.104 153.04 40.608 153.796C41.124 154.54 41.946 154.912 43.074 154.912C43.602 154.912 44.124 154.852 44.64 154.732C45.168 154.612 45.738 154.444 46.35 154.228V156.514C45.786 156.742 45.228 156.91 44.676 157.018C44.124 157.126 43.506 157.18 42.822 157.18C41.502 157.18 40.41 156.91 39.546 156.37C38.694 155.818 38.064 155.05 37.656 154.066C37.248 153.07 37.044 151.912 37.044 150.592C37.044 149.296 37.278 148.15 37.746 147.154C38.214 146.158 38.892 145.378 39.78 144.814C40.68 144.25 41.778 143.968 43.074 143.968C43.71 143.968 44.346 144.052 44.982 144.22C45.63 144.376 46.248 144.592 46.836 144.868L45.954 147.082C45.474 146.854 44.988 146.656 44.496 146.488C44.016 146.32 43.542 146.236 43.074 146.236ZM48.5409 156.658V144.742C48.5409 144.658 48.5769 144.58 48.6489 144.508C48.7209 144.436 48.7989 144.4 48.8829 144.4H50.3949C50.4789 144.4 50.5569 144.436 50.6289 144.508C50.7009 144.58 50.7369 144.658 50.7369 144.742V156.658C50.7369 156.742 50.7009 156.82 50.6289 156.892C50.5569 156.964 50.4789 157 50.3949 157H48.8829C48.7989 157 48.7209 156.964 48.6489 156.892C48.5769 156.82 48.5409 156.742 48.5409 156.658ZM52.3783 154.714C52.3783 154.054 52.6363 153.514 53.1523 153.094C53.6683 152.662 54.3703 152.446 55.2583 152.446C55.4743 152.446 55.6903 152.464 55.9063 152.5C56.1223 152.524 56.2843 152.554 56.3923 152.59L56.5723 152.644C56.5843 152.188 56.5123 151.87 56.3563 151.69C56.2123 151.498 55.9723 151.402 55.6363 151.402C54.8803 151.402 54.2083 151.492 53.6203 151.672C53.3923 151.744 53.2543 151.636 53.2063 151.348L53.0443 150.412C52.9963 150.184 53.0803 150.034 53.2963 149.962C53.3683 149.938 53.5123 149.902 53.7283 149.854C53.9443 149.806 54.2443 149.758 54.6283 149.71C55.0243 149.65 55.3963 149.62 55.7443 149.62C56.8123 149.62 57.5383 149.878 57.9223 150.394C58.3183 150.898 58.5163 151.684 58.5163 152.752V156.658C58.5163 156.742 58.4803 156.82 58.4083 156.892C58.3363 156.964 58.2583 157 58.1743 157H57.5263C57.3943 157 57.2923 156.916 57.2203 156.748L57.0043 156.262C56.3323 156.874 55.6003 157.18 54.8083 157.18C54.0763 157.18 53.4883 156.958 53.0443 156.514C52.6003 156.07 52.3783 155.47 52.3783 154.714ZM54.3583 154.714C54.3583 154.99 54.4423 155.218 54.6103 155.398C54.7903 155.566 55.0183 155.65 55.2943 155.65C55.5583 155.65 55.8103 155.566 56.0503 155.398C56.3023 155.23 56.4643 155.08 56.5363 154.948V153.958C56.2123 153.814 55.8763 153.742 55.5283 153.742C55.1803 153.742 54.8983 153.832 54.6823 154.012C54.4663 154.192 54.3583 154.426 54.3583 154.714ZM61.644 147.244C61.308 147.244 61.02 147.124 60.78 146.884C60.54 146.644 60.42 146.35 60.42 146.002C60.42 145.654 60.54 145.36 60.78 145.12C61.02 144.88 61.308 144.76 61.644 144.76C61.992 144.76 62.286 144.88 62.526 145.12C62.778 145.36 62.904 145.654 62.904 146.002C62.904 146.35 62.778 146.644 62.526 146.884C62.286 147.124 61.992 147.244 61.644 147.244ZM60.582 156.658V150.142C60.582 150.046 60.612 149.968 60.672 149.908C60.744 149.836 60.828 149.8 60.924 149.8H62.418C62.514 149.8 62.592 149.836 62.652 149.908C62.724 149.968 62.76 150.046 62.76 150.142V156.658C62.76 156.742 62.724 156.82 62.652 156.892C62.592 156.964 62.514 157 62.418 157H60.924C60.84 157 60.762 156.964 60.69 156.892C60.618 156.82 60.582 156.742 60.582 156.658ZM64.9238 156.658V150.142C64.9238 150.046 64.9538 149.968 65.0138 149.908C65.0858 149.836 65.1698 149.8 65.2658 149.8H65.9318C66.0878 149.8 66.1898 149.866 66.2378 149.998L66.4897 150.682C67.1258 149.974 67.9298 149.62 68.9018 149.62C69.8498 149.62 70.6298 149.992 71.2418 150.736C71.9498 149.992 72.7958 149.62 73.7798 149.62C74.8598 149.62 75.6518 149.962 76.1558 150.646C76.6718 151.318 76.9298 152.176 76.9298 153.22V156.658C76.9298 156.754 76.8938 156.838 76.8218 156.91C76.7618 156.97 76.6838 157 76.5878 157H75.1298C75.0338 157 74.9498 156.97 74.8778 156.91C74.8178 156.838 74.7878 156.754 74.7878 156.658V153.094C74.7878 152.614 74.6738 152.242 74.4458 151.978C74.2178 151.702 73.8818 151.564 73.4378 151.564C73.1258 151.564 72.8438 151.63 72.5918 151.762C72.3398 151.882 72.1658 152.008 72.0698 152.14L71.9258 152.32C71.9378 152.56 71.9438 152.788 71.9438 153.004V156.658C71.9438 156.742 71.9078 156.82 71.8358 156.892C71.7638 156.964 71.6858 157 71.6018 157H70.2518C70.1558 157 70.0718 156.97 69.9998 156.91C69.9398 156.838 69.9098 156.754 69.9098 156.658V153.094C69.9098 152.074 69.4658 151.564 68.5778 151.564C67.8458 151.564 67.3418 151.942 67.0658 152.698V156.658C67.0658 156.742 67.0298 156.82 66.9578 156.892C66.8978 156.964 66.8198 157 66.7238 157H65.2658C65.1818 157 65.1038 156.964 65.0317 156.892C64.9598 156.82 64.9238 156.742 64.9238 156.658ZM82.8338 155.776C82.6658 155.608 82.6358 155.428 82.7438 155.236L83.3918 154.12C83.4638 154 83.5658 153.934 83.6978 153.922C83.8298 153.898 83.9318 153.922 84.0038 153.994L84.0938 154.048C84.1538 154.096 84.2198 154.144 84.2918 154.192C84.3758 154.24 84.4778 154.3 84.5978 154.372C84.7178 154.444 84.8378 154.516 84.9578 154.588C85.0778 154.648 85.2158 154.714 85.3718 154.786C85.5278 154.846 85.6778 154.9 85.8218 154.948C85.9658 154.996 86.1158 155.038 86.2718 155.074C86.4278 155.098 86.5778 155.11 86.7218 155.11C87.1898 155.11 87.5798 154.978 87.8918 154.714C88.2038 154.438 88.3598 154.108 88.3598 153.724C88.3598 153.28 88.1738 152.89 87.8018 152.554C87.4298 152.206 86.8538 151.876 86.0738 151.564C85.0658 151.156 84.2498 150.646 83.6258 150.034C83.0018 149.422 82.6898 148.636 82.6898 147.676C82.6898 146.764 83.0318 145.96 83.7158 145.264C84.4118 144.568 85.4198 144.22 86.7398 144.22C88.0718 144.22 89.2718 144.622 90.3398 145.426C90.4238 145.474 90.4778 145.564 90.5018 145.696C90.5258 145.828 90.5078 145.936 90.4478 146.02L89.7638 147.046C89.5718 147.334 89.3618 147.406 89.1338 147.262C88.0778 146.602 87.2438 146.272 86.6318 146.272C86.1518 146.272 85.7678 146.404 85.4798 146.668C85.1918 146.932 85.0478 147.22 85.0478 147.532C85.0478 147.952 85.2158 148.318 85.5518 148.63C85.8878 148.942 86.4278 149.248 87.1718 149.548C87.6878 149.752 88.1318 149.962 88.5038 150.178C88.8878 150.382 89.2778 150.646 89.6738 150.97C90.0818 151.282 90.3938 151.666 90.6098 152.122C90.8258 152.566 90.9337 153.064 90.9337 153.616C90.9337 154.588 90.5498 155.428 89.7818 156.136C89.0138 156.832 88.0178 157.18 86.7938 157.18C86.1098 157.18 85.4558 157.078 84.8318 156.874C84.2198 156.67 83.7818 156.484 83.5178 156.316C83.2538 156.136 83.0258 155.956 82.8338 155.776ZM93.2376 156.658V144.544C93.2376 144.46 93.2676 144.388 93.3276 144.328C93.3996 144.256 93.4836 144.22 93.5796 144.22H94.0296L101.518 152.176H101.536V144.742C101.536 144.646 101.566 144.568 101.626 144.508C101.698 144.436 101.782 144.4 101.878 144.4H103.534C103.618 144.4 103.696 144.436 103.768 144.508C103.84 144.58 103.876 144.658 103.876 144.742V156.856C103.876 156.94 103.84 157.012 103.768 157.072C103.708 157.144 103.63 157.18 103.534 157.18H103.102L95.5776 148.918H95.5596V156.658C95.5596 156.754 95.5236 156.838 95.4516 156.91C95.3916 156.97 95.3136 157 95.2176 157H93.5796C93.4836 157 93.3996 156.964 93.3276 156.892C93.2676 156.82 93.2376 156.742 93.2376 156.658ZM108.131 155.308C106.883 154.048 106.259 152.518 106.259 150.718C106.259 148.918 106.883 147.388 108.131 146.128C109.391 144.856 110.921 144.22 112.721 144.22C114.521 144.22 116.051 144.856 117.311 146.128C118.571 147.388 119.201 148.918 119.201 150.718C119.201 152.518 118.571 154.048 117.311 155.308C116.051 156.556 114.521 157.18 112.721 157.18C110.921 157.18 109.391 156.556 108.131 155.308ZM109.805 147.784C109.001 148.6 108.599 149.578 108.599 150.718C108.599 151.858 109.001 152.83 109.805 153.634C110.621 154.438 111.593 154.84 112.721 154.84C113.861 154.84 114.833 154.438 115.637 153.634C116.453 152.818 116.861 151.846 116.861 150.718C116.861 149.578 116.453 148.6 115.637 147.784C114.821 146.968 113.849 146.56 112.721 146.56C111.593 146.56 110.621 146.968 109.805 147.784ZM123.754 156.928L120.352 144.832C120.316 144.712 120.328 144.61 120.388 144.526C120.448 144.442 120.544 144.4 120.676 144.4H122.332C122.5 144.4 122.608 144.484 122.656 144.652L124.528 151.834H124.6L127.462 144.418C127.51 144.286 127.612 144.22 127.768 144.22H128.092C128.248 144.22 128.35 144.286 128.398 144.418L131.278 151.834H131.35L133.186 144.652C133.234 144.484 133.342 144.4 133.51 144.4H135.166C135.298 144.4 135.394 144.442 135.454 144.526C135.514 144.61 135.526 144.712 135.49 144.832L132.088 156.928C132.052 157.096 131.944 157.18 131.764 157.18H131.476C131.32 157.18 131.218 157.114 131.17 156.982L127.948 148.828H127.858L124.672 156.982C124.612 157.114 124.51 157.18 124.366 157.18H124.078C123.91 157.18 123.802 157.096 123.754 156.928Z" fill="#414A5B"/>
</g>
<defs>
<filter id="filter0_d" x="154.67" y="91.8773" width="447.83" height="109.983" filterUnits="userSpaceOnUse" color-interpolation-filters="sRGB">
<feFlood flood-opacity="0" result="BackgroundImageFix"/>
<feColorMatrix in="SourceAlpha" type="matrix" values="0 0 0 0 0 0 0 0 0 0 0 0 0 0 0 0 0 0 127 0"/>
<feOffset dy="4"/>
<feGaussianBlur stdDeviation="2"/>
<feColorMatrix type="matrix" values="0 0 0 0 0 0 0 0 0 0 0 0 0 0 0 0 0 0 0.25 0"/>
<feBlend mode="normal" in2="BackgroundImageFix" result="effect1_dropShadow"/>
<feBlend mode="normal" in="SourceGraphic" in2="effect1_dropShadow" result="shape"/>
</filter>
<filter id="filter1_f" x="-53" y="138" width="326.5" height="163" filterUnits="userSpaceOnUse" color-interpolation-filters="sRGB">
<feFlood flood-opacity="0" result="BackgroundImageFix"/>
<feBlend mode="normal" in="SourceGraphic" in2="BackgroundImageFix" result="shape"/>
<feGaussianBlur stdDeviation="20" result="effect1_foregroundBlur"/>
</filter>
<filter id="filter2_d" x="-17" y="166.258" width="487.5" height="84.7422" filterUnits="userSpaceOnUse" color-interpolation-filters="sRGB">
<feFlood flood-opacity="0" result="BackgroundImageFix"/>
<feColorMatrix in="SourceAlpha" type="matrix" values="0 0 0 0 0 0 0 0 0 0 0 0 0 0 0 0 0 0 127 0"/>
<feOffset dy="4"/>
<feGaussianBlur stdDeviation="2"/>
<feColorMatrix type="matrix" values="0 0 0 0 0 0 0 0 0 0 0 0 0 0 0 0 0 0 0.25 0"/>
<feBlend mode="normal" in2="BackgroundImageFix" result="effect1_dropShadow"/>
<feBlend mode="normal" in="SourceGraphic" in2="effect1_dropShadow" result="shape"/>
</filter>
<filter id="filter3_f" x="294.006" y="117.302" width="121.357" height="103.255" filterUnits="userSpaceOnUse" color-interpolation-filters="sRGB">
<feFlood flood-opacity="0" result="BackgroundImageFix"/>
<feBlend mode="normal" in="SourceGraphic" in2="BackgroundImageFix" result="shape"/>
<feGaussianBlur stdDeviation="5" result="effect1_foregroundBlur"/>
</filter>
<filter id="filter4_f" x="255.001" y="144" width="112.999" height="87.5" filterUnits="userSpaceOnUse" color-interpolation-filters="sRGB">
<feFlood flood-opacity="0" result="BackgroundImageFix"/>
<feBlend mode="normal" in="SourceGraphic" in2="BackgroundImageFix" result="shape"/>
<feGaussianBlur stdDeviation="5" result="effect1_foregroundBlur"/>
</filter>
<filter id="filter5_f" x="296.382" y="102.74" width="108.236" height="58.1562" filterUnits="userSpaceOnUse" color-interpolation-filters="sRGB">
<feFlood flood-opacity="0" result="BackgroundImageFix"/>
<feBlend mode="normal" in="SourceGraphic" in2="BackgroundImageFix" result="shape"/>
<feGaussianBlur stdDeviation="5" result="effect1_foregroundBlur"/>
</filter>
<filter id="filter6_f" x="303.205" y="105.053" width="113.079" height="89.7134" filterUnits="userSpaceOnUse" color-interpolation-filters="sRGB">
<feFlood flood-opacity="0" result="BackgroundImageFix"/>
<feBlend mode="normal" in="SourceGraphic" in2="BackgroundImageFix" result="shape"/>
<feGaussianBlur stdDeviation="5" result="effect1_foregroundBlur"/>
</filter>
<filter id="filter7_f" x="365.551" y="126.863" width="33.1411" height="23.5452" filterUnits="userSpaceOnUse" color-interpolation-filters="sRGB">
<feFlood flood-opacity="0" result="BackgroundImageFix"/>
<feBlend mode="normal" in="SourceGraphic" in2="BackgroundImageFix" result="shape"/>
<feGaussianBlur stdDeviation="2" result="effect1_foregroundBlur"/>
</filter>
<filter id="filter8_f" x="285.327" y="52.9279" width="76.3604" height="95.2882" filterUnits="userSpaceOnUse" color-interpolation-filters="sRGB">
<feFlood flood-opacity="0" result="BackgroundImageFix"/>
<feBlend mode="normal" in="SourceGraphic" in2="BackgroundImageFix" result="shape"/>
<feGaussianBlur stdDeviation="5" result="effect1_foregroundBlur"/>
</filter>
<filter id="filter9_f" x="321.354" y="77.4628" width="18.011" height="9.39338" filterUnits="userSpaceOnUse" color-interpolation-filters="sRGB">
<feFlood flood-opacity="0" result="BackgroundImageFix"/>
<feBlend mode="normal" in="SourceGraphic" in2="BackgroundImageFix" result="shape"/>
<feGaussianBlur stdDeviation="1" result="effect1_foregroundBlur"/>
</filter>
<filter id="filter10_f" x="360.015" y="75.4094" width="17.2665" height="11.8731" filterUnits="userSpaceOnUse" color-interpolation-filters="sRGB">
<feFlood flood-opacity="0" result="BackgroundImageFix"/>
<feBlend mode="normal" in="SourceGraphic" in2="BackgroundImageFix" result="shape"/>
<feGaussianBlur stdDeviation="1" result="effect1_foregroundBlur"/>
</filter>
<linearGradient id="paint0_linear" x1="241.548" y1="12.1074" x2="252.76" y2="192.12" gradientUnits="userSpaceOnUse">
<stop stop-color="#DDF7FF"/>
<stop offset="1" stop-color="#F5FDFF"/>
</linearGradient>
<linearGradient id="paint1_linear" x1="362.697" y1="70.4036" x2="367.45" y2="162.102" gradientUnits="userSpaceOnUse">
<stop stop-color="#DDF7FF"/>
<stop offset="1" stop-color="#F5FDFF"/>
</linearGradient>
<linearGradient id="paint2_linear" x1="206.75" y1="158.253" x2="17.5" y2="182" gradientUnits="userSpaceOnUse">
<stop stop-color="#E2F7FD"/>
<stop offset="1" stop-color="#FEFFFF"/>
</linearGradient>
<linearGradient id="paint3_linear" x1="244" y1="150" x2="245.5" y2="237" gradientUnits="userSpaceOnUse">
<stop stop-color="#DDF7FF"/>
<stop offset="0.77123" stop-color="#F0FCFF"/>
<stop offset="1" stop-color="white"/>
</linearGradient>
<linearGradient id="paint4_linear" x1="303" y1="159" x2="293.757" y2="216.5" gradientUnits="userSpaceOnUse">
<stop stop-color="#BBEAF8"/>
<stop offset="1" stop-color="#B6EAF9" stop-opacity="0"/>
</linearGradient>
<linearGradient id="paint5_linear" x1="307.291" y1="147.46" x2="395.172" y2="130.869" gradientUnits="userSpaceOnUse">
<stop stop-color="#1FDACF"/>
<stop offset="1" stop-color="#00DD92"/>
</linearGradient>
<linearGradient id="paint6_linear" x1="389.519" y1="164.709" x2="363.094" y2="156.916" gradientUnits="userSpaceOnUse">
<stop stop-color="#1ACDC3"/>
<stop offset="1" stop-color="#04CA87"/>
</linearGradient>
<linearGradient id="paint7_linear" x1="389.519" y1="164.709" x2="363.094" y2="156.916" gradientUnits="userSpaceOnUse">
<stop stop-color="#1ACDC3"/>
<stop offset="1" stop-color="#04CA87"/>
</linearGradient>
<linearGradient id="paint8_linear" x1="410.148" y1="162.131" x2="371.907" y2="149.283" gradientUnits="userSpaceOnUse">
<stop stop-color="#1FDACF"/>
<stop offset="1" stop-color="#00DD92"/>
</linearGradient>
<linearGradient id="paint9_linear" x1="410.148" y1="162.131" x2="371.907" y2="149.283" gradientUnits="userSpaceOnUse">
<stop stop-color="#1FDACF"/>
<stop offset="1" stop-color="#00DD92"/>
</linearGradient>
<linearGradient id="paint10_linear" x1="307.291" y1="147.46" x2="395.172" y2="130.869" gradientUnits="userSpaceOnUse">
<stop stop-color="#1FDACF"/>
<stop offset="1" stop-color="#00DD92"/>
</linearGradient>
<linearGradient id="paint11_linear" x1="385.437" y1="72.0723" x2="271.731" y2="39.9665" gradientUnits="userSpaceOnUse">
<stop stop-color="#1FDACF"/>
<stop offset="1" stop-color="#00DD92"/>
</linearGradient>
<clipPath id="clip0">
<path d="M0 16C0 7.16344 7.16344 0 16 0H448C456.837 0 464 7.16345 464 16V222C464 230.837 456.837 238 448 238H16C7.16345 238 0 230.837 0 222V16Z" fill="white"/>
</clipPath>
<clipPath id="clip1">
<rect width="750" height="221.61" fill="white" transform="translate(-123 32)"/>
</clipPath>
<clipPath id="clip2">
<rect width="47.0596" height="38.802" fill="white" transform="matrix(-0.974568 -0.220161 -0.222219 0.975889 417.485 134.361)"/>
</clipPath>
</defs>
</svg>
