<svg width="464" height="238" viewBox="0 0 464 238" fill="none" xmlns="http://www.w3.org/2000/svg">
<g clip-path="url(#clip0)">
<path d="M0 16C0 7.16344 7.16344 0 16 0H448C456.837 0 464 7.16344 464 16V222C464 230.837 456.837 238 448 238H16C7.16345 238 0 230.837 0 222V16Z" fill="white"/>
<g clip-path="url(#clip1)">
<path d="M627 253.61V163.87C617.29 152.56 605.02 143.02 592.95 134.11C583.41 127.07 573.69 120.08 562.8 115.4C552.28 110.87 540.94 108.62 529.71 106.39C490.6 98.64 451.5 90.88 412.39 83.13C384.5 77.6 362.98 60.58 334.63 58.32C314.97 56.75 296.87 66.65 276.6 67.06C256.03 67.47 235.15 64.88 214.88 69.58C209.98 70.72 205.13 72.29 200.11 72.55C196.22 72.75 192.34 72.17 188.5 71.58C175.93 69.67 163.36 67.75 150.79 65.84C147.19 65.29 143.55 64.73 140.18 63.36C137.7 62.35 135.42 60.93 133.02 59.73C117.27 51.83 98.56 54.19 81.13 56.74C63.1 59.38 44.98 62.04 27.57 67.43C23.41 68.72 19.29 70.16 15.04 71.05C10.26 72.05 5.36002 72.35 0.510025 72.88C-24.15 75.58 -51.4 83.66 -73.52 95C-91.28 104.1 -87.36 122.37 -85.67 139.96C-84.73 149.74 -90.41 238.13 -92.16 253.61H627Z" fill="url(#paint0_linear)" fill-opacity="0.5"/>
<path d="M402.64 99.99H401.7V106.29H402.64V99.99Z" fill="#5EB6DD"/>
<g filter="url(#filter0_d)">
<path d="M324.97 94.12C337.91 91.88 350.83 91.14 363.08 92.72C393.93 96.7 427.47 107.5 456.88 118.06C504.49 135.16 551.79 161.94 598.5 180C494.5 195.99 387.14 194.33 280.15 193.16C251.9 192.85 223.45 191.81 195.57 186.85C188.98 185.68 182.53 183.91 175.95 182.62C169.07 181.29 163.32 183.64 158.67 177.77C181.17 150.79 229.45 128.98 261.27 114.78C280.27 106.3 302.63 97.99 324.97 94.12Z" fill="url(#paint1_linear)"/>
</g>
<path d="M203.19 181.53H199.77V204.47H203.19V181.53Z" fill="#2D71AE"/>
<path d="M199.77 204.47L179.22 217.85L203.19 204.47" fill="#9BC6E0"/>
</g>
<path d="M115 160.5C46.876 157.675 -25.5 178 -25.5 178L-33 182.5L-29 235L468.5 249.5V191.5C468.5 191.5 347.256 194.954 295.5 196C230.68 197.31 223.5 165 115 160.5Z" fill="url(#paint2_linear)"/>
<g filter="url(#filter1_f)">
<path d="M-2.5 178C-2.5 178 71.8069 201.586 115 194.5C179 184 233.5 178 233.5 178L224 261H-13L-2.5 178Z" fill="#C6EDF8"/>
</g>
<g filter="url(#filter2_d)">
<path d="M285.5 166.5C353.624 163.675 466.5 186.5 466.5 186.5V190.5V243H-13V166.5C-13 166.5 48.744 204.454 100.5 205.5C165.32 206.81 177 171 285.5 166.5Z" fill="url(#paint3_linear)"/>
</g>
<path d="M328.444 167.809L328.452 167.817L328.444 167.809Z" fill="#D23943"/>
<path d="M329.329 168.696L329.321 168.688L329.329 168.696Z" fill="#D23943"/>
<path d="M351.678 167.127L351.67 167.135L351.678 167.127Z" fill="#D23943"/>
<path d="M350.797 168.014L350.805 168.006L350.797 168.014Z" fill="#D23943"/>
<ellipse rx="1.7909" ry="1.79761" transform="matrix(1 -1.33683e-08 0.00216959 0.999998 369.937 83.283)" fill="white" fill-opacity="0.22"/>
<ellipse rx="1.93838" ry="1.94565" transform="matrix(1 -1.33683e-08 0.00216959 0.999998 318.943 93.9456)" fill="white"/>
<ellipse rx="0.970151" ry="0.973787" transform="matrix(1 -1.33683e-08 0.00216959 0.999998 349.972 92.9738)" fill="white" fill-opacity="0.22"/>
<path d="M378.934 126.844C378.63 126.844 378.326 126.844 378.023 126.853C375.691 126.916 373.262 127.194 370.127 127.741C369.056 127.929 367.993 128.144 366.93 128.369C365.484 128.674 364.046 128.961 362.6 129.23C359.742 129.768 356.938 130.225 354.267 130.584C349.221 131.266 344.353 131.661 339.797 131.741C339.074 131.759 338.341 131.768 337.618 131.768C333.392 131.768 329.309 131.508 325.475 130.997C324.626 130.88 323.831 130.746 323.035 130.611C321.391 130.333 319.684 130.046 317.933 129.947C317.665 129.929 317.397 129.929 317.129 129.929C316.128 129.929 315.146 130.028 314.208 130.216C313.619 130.342 313.074 130.512 312.574 130.719L312.601 130.701C312.976 130.441 313.342 130.172 313.716 129.92C314.046 129.696 314.153 129.293 313.964 128.97C313.839 128.754 313.588 128.611 313.338 128.611C313.213 128.611 313.097 128.647 313.008 128.719C311.081 130.01 309.271 131.553 307.631 133.32C306.089 134.997 304.637 136.944 303.32 139.105C302.127 141.07 301.059 143.249 300.055 145.77C299.167 148.021 298.404 150.452 297.802 152.999C296.642 157.851 296.099 162.919 296.173 168.086C296.214 170.454 296.407 172.902 296.76 175.351C297.105 177.764 297.619 180.06 298.276 182.177C299.014 184.536 300.019 186.823 301.266 188.976C302.405 190.94 303.82 192.832 305.468 194.617C308.405 197.793 312.172 200.537 316.653 202.771C320.641 204.762 325.085 206.305 330.233 207.498C334.586 208.511 339.278 209.211 344.585 209.641C347.873 209.91 351.054 210.045 354.029 210.045C360.997 210.045 367.526 209.318 373.428 207.883C377.937 206.798 382.141 205.246 385.916 203.273C389.78 201.255 393.205 198.734 396.111 195.774C399.115 192.707 401.564 189.119 403.378 185.11C404.32 183.047 405.11 180.822 405.731 178.49C406.351 176.149 406.801 173.692 407.099 170.974C407.8 164.668 407.403 158.515 405.916 152.703C404.375 146.649 401.513 140.827 397.616 135.867C395.869 133.643 393.882 131.786 391.708 130.351C389.766 129.059 387.576 128.118 385.189 127.535C383.294 127.068 381.248 126.844 378.934 126.844Z" fill="#EDFBFF"/>
<mask id="mask0" mask-type="alpha" maskUnits="userSpaceOnUse" x="296" y="126" width="112" height="85">
<path d="M378.934 126.844C378.63 126.844 378.326 126.844 378.023 126.853C375.691 126.916 373.262 127.194 370.127 127.741C369.056 127.929 367.993 128.144 366.93 128.369C365.484 128.674 364.046 128.961 362.6 129.23C359.742 129.768 356.938 130.225 354.267 130.584C349.221 131.266 344.353 131.661 339.797 131.741C339.074 131.759 338.341 131.768 337.618 131.768C333.392 131.768 329.309 131.508 325.475 130.997C324.626 130.88 323.831 130.746 323.035 130.611C321.391 130.333 319.684 130.046 317.933 129.947C317.665 129.929 317.397 129.929 317.129 129.929C316.128 129.929 315.146 130.028 314.208 130.216C313.619 130.342 313.074 130.512 312.574 130.719L312.601 130.701C312.976 130.441 313.342 130.172 313.716 129.92C314.046 129.696 314.153 129.293 313.964 128.97C313.839 128.754 313.588 128.611 313.338 128.611C313.213 128.611 313.097 128.647 313.008 128.719C311.081 130.01 309.271 131.553 307.631 133.32C306.089 134.997 304.637 136.944 303.32 139.105C302.127 141.07 301.059 143.249 300.055 145.77C299.167 148.021 298.404 150.452 297.802 152.999C296.642 157.851 296.099 162.919 296.173 168.086C296.214 170.454 296.407 172.902 296.76 175.351C297.105 177.764 297.619 180.06 298.276 182.177C299.014 184.536 300.019 186.823 301.266 188.976C302.405 190.94 303.82 192.832 305.468 194.617C308.405 197.793 312.172 200.537 316.653 202.771C320.641 204.762 325.085 206.305 330.233 207.498C334.586 208.511 339.278 209.211 344.585 209.641C347.873 209.91 351.054 210.045 354.029 210.045C360.997 210.045 367.526 209.318 373.428 207.883C377.937 206.798 382.141 205.246 385.916 203.273C389.78 201.255 393.205 198.734 396.111 195.774C399.115 192.707 401.564 189.119 403.378 185.11C404.32 183.047 405.11 180.822 405.731 178.49C406.351 176.149 406.801 173.692 407.099 170.974C407.8 164.668 407.403 158.515 405.916 152.703C404.375 146.649 401.513 140.827 397.616 135.867C395.869 133.643 393.882 131.786 391.708 130.351C389.766 129.059 387.576 128.118 385.189 127.535C383.294 127.068 381.248 126.844 378.934 126.844Z" fill="#EDFBFF"/>
</mask>
<g mask="url(#mask0)">
<g filter="url(#filter3_f)">
<path d="M379.036 127.181C376.686 127.262 374.248 127.531 371.14 128.069C370.069 128.258 369.006 128.473 367.934 128.697C366.488 129.002 365.05 129.289 363.604 129.558C360.737 130.105 357.933 130.563 355.271 130.913C350.181 131.603 345.313 131.998 340.801 132.07C340.078 132.088 339.345 132.097 338.622 132.097C334.387 132.097 330.304 131.836 326.479 131.325C325.63 131.209 324.835 131.074 324.039 130.94L323.905 130.922C322.297 130.653 320.635 130.374 318.937 130.285C318.669 130.267 318.392 130.267 318.124 130.267C317.132 130.267 316.141 130.365 315.203 130.554C314.596 130.697 314.043 130.868 313.57 131.065C313.819 130.922 314.051 130.76 314.274 130.608L314.729 130.303C315.077 130.078 315.183 129.657 314.986 129.325C314.861 129.101 314.61 128.957 314.351 128.957C314.226 128.957 314.11 128.993 314.012 129.065C312.067 130.357 310.257 131.908 308.626 133.666C308.1 134.24 307.583 134.841 307.084 135.478C307.3 136.016 307.542 136.545 307.802 137.057C308.197 137.837 308.646 138.582 309.13 139.308C309.748 140.214 310.429 141.084 311.172 141.9C311.942 142.752 312.757 143.551 313.616 144.304C313.598 144.286 313.58 144.277 313.571 144.268C316.274 146.618 319.343 148.502 322.544 150.071C322.527 150.063 322.509 150.054 322.491 150.045C325.29 151.408 328.205 152.529 331.173 153.453C334.105 154.368 337.09 155.103 340.102 155.677C340.102 155.677 340.102 155.677 340.093 155.677C343.186 156.26 346.313 156.673 349.458 156.888C350.825 156.978 352.183 157.032 353.559 157.032C355.542 157.032 357.534 156.951 359.508 156.79C359.5 156.79 359.491 156.79 359.491 156.79C365.198 156.323 370.86 155.22 376.269 153.327C376.251 153.336 376.234 153.345 376.216 153.345C378.233 152.628 380.215 151.812 382.133 150.852C383.981 149.928 385.774 148.896 387.487 147.73C387.487 147.73 387.478 147.739 387.469 147.748C388.495 147.04 389.494 146.304 390.448 145.515C390.947 145.102 391.438 144.681 391.91 144.25C392.151 144.026 392.383 143.811 392.615 143.587C392.704 143.497 392.802 143.407 392.882 143.317C392.953 143.237 393.025 143.156 393.096 143.084C393.176 142.995 393.337 143.021 393.409 143.102C393.444 143.147 393.471 143.201 393.463 143.264C393.463 143.3 393.454 143.326 393.436 143.362C393.49 143.371 393.534 143.398 393.579 143.434C394.599 144.304 395.468 145.345 396.176 146.484C396.894 147.641 397.468 148.896 397.909 150.188C398.52 151.991 398.908 153.866 399.127 155.749C399.354 157.731 399.439 159.723 399.381 161.705C399.332 163.723 399.166 165.741 398.894 167.741C398.639 169.616 398.312 171.482 397.887 173.32C397.516 174.935 397.081 176.54 396.558 178.11C395.901 180.056 395.092 181.958 394.131 183.77C392.165 187.483 389.608 190.874 386.622 193.825C383.609 196.812 380.202 199.386 376.553 201.529C372.85 203.709 368.914 205.476 364.843 206.839C360.79 208.203 356.603 209.171 352.36 209.719C350.833 209.916 349.297 210.068 347.751 210.158C350.28 210.32 352.719 210.4 355.024 210.4C361.983 210.4 368.512 209.674 374.432 208.23C378.941 207.153 383.137 205.602 386.92 203.619C390.775 201.61 394.209 199.09 397.124 196.121C400.137 193.044 402.577 189.457 404.391 185.447C405.324 183.402 406.114 181.178 406.744 178.828C407.373 176.487 407.814 174.02 408.112 171.302C408.804 164.997 408.407 158.844 406.92 153.022C405.388 146.968 402.517 141.147 398.62 136.187C396.864 133.962 394.877 132.106 392.712 130.67C390.761 129.37 388.571 128.428 386.193 127.854C384.262 127.379 382.207 127.145 379.902 127.145C379.643 127.163 379.339 127.172 379.036 127.181ZM387.522 147.713C387.514 147.713 387.505 147.721 387.496 147.73C387.505 147.73 387.514 147.721 387.522 147.713ZM340.111 155.668C340.12 155.668 340.138 155.668 340.147 155.677C340.138 155.677 340.12 155.677 340.111 155.668ZM359.5 156.79C359.482 156.79 359.473 156.79 359.464 156.79C359.473 156.79 359.482 156.79 359.5 156.79Z" fill="#BBEAF8"/>
</g>
</g>
<mask id="mask1" mask-type="alpha" maskUnits="userSpaceOnUse" x="308" y="112" width="91" height="39">
<path d="M392.591 112.319L392.582 112.319C392.386 112.319 392.189 112.409 392.074 112.561C391.495 113.297 390.853 113.996 390.166 114.651C388.82 115.898 387.215 117.028 385.421 118.006C383.788 118.876 381.932 119.665 379.762 120.409C377.843 121.064 375.843 121.647 373.816 122.149C368.378 123.441 362.582 124.096 356.588 124.096C355.929 124.096 355.279 124.087 354.62 124.07C354.616 124.07 354.615 124.076 354.619 124.077C354.621 124.078 354.622 124.079 354.623 124.08C354.631 124.087 354.668 124.087 354.676 124.087C346.832 123.863 338.815 122.571 330.931 120.212C325.031 118.436 319.362 116.095 314.076 113.261C313.92 113.174 313.735 113.154 313.565 113.101C313.468 113.071 313.378 113.054 313.289 113.054C313.101 113.054 312.941 113.126 312.834 113.252C311.943 114.346 311.213 115.404 310.599 116.49C309.949 117.647 309.434 118.894 309.043 120.194C308.298 122.741 308.251 125.522 308.9 128.222C309.188 129.406 309.664 130.661 310.319 131.953C310.858 133.011 311.557 134.088 312.471 135.254C313.931 137.137 315.811 138.913 318.218 140.662C320.329 142.205 322.718 143.578 325.508 144.851C327.931 145.963 330.578 146.932 333.376 147.73C338.435 149.192 343.931 150.063 349.721 150.341C350.909 150.394 352.106 150.421 353.295 150.421C357.815 150.421 362.352 150.018 366.782 149.219C372.372 148.215 377.559 146.564 382.199 144.313C384.68 143.111 386.973 141.712 389.016 140.151C390.095 139.326 391.111 138.438 392.021 137.541C392.948 136.626 393.839 135.586 394.658 134.447C396.279 132.213 397.364 129.693 397.805 127.172C398.246 124.634 398.026 121.961 397.163 119.45C396.434 117.317 395.227 115.225 393.567 113.241C393.37 113.005 393.27 112.679 393.029 112.489C392.913 112.373 392.761 112.319 392.591 112.319Z" fill="url(#paint4_linear)"/>
</mask>
<g mask="url(#mask1)">
<g filter="url(#filter4_f)">
<path d="M392.583 112.292C392.377 112.292 392.181 112.391 392.056 112.543C391.486 113.261 390.844 113.969 390.149 114.633C388.812 115.871 387.224 117.001 385.404 117.979C383.762 118.849 381.914 119.638 379.745 120.382C377.834 121.037 375.835 121.62 373.799 122.123C372.861 122.347 371.924 122.544 370.968 122.732C371.318 123.235 371.623 123.764 371.892 124.311C372.314 125.172 372.646 126.087 372.827 127.029C373.007 127.98 373.072 128.957 372.958 129.926C372.844 130.913 372.587 131.881 372.214 132.805C371.858 133.666 371.423 134.5 370.888 135.272C369.811 136.824 368.429 138.142 366.886 139.209C365.28 140.322 363.54 141.21 361.728 141.909C359.916 142.609 358.05 143.147 356.157 143.551C354.031 144.008 351.87 144.304 349.7 144.439C347.225 144.591 344.742 144.555 342.284 144.322C339.818 144.089 337.37 143.685 334.956 143.102C330.049 141.927 325.293 140.124 320.794 137.819C318.576 136.68 316.42 135.442 314.327 134.088C312.788 133.092 311.285 132.043 309.826 130.94C309.979 131.28 310.141 131.621 310.311 131.962C310.858 133.029 311.557 134.106 312.462 135.272C313.923 137.155 315.802 138.922 318.209 140.689C320.339 142.241 322.727 143.613 325.508 144.878C327.95 145.99 330.596 146.959 333.376 147.757C338.418 149.21 343.923 150.089 349.721 150.367C350.972 150.421 352.178 150.448 353.304 150.448C357.807 150.448 362.344 150.045 366.791 149.246C372.39 148.233 377.586 146.582 382.218 144.331C384.708 143.129 387.001 141.73 389.043 140.169C390.122 139.344 391.13 138.456 392.048 137.55C392.984 136.626 393.866 135.586 394.686 134.456C396.307 132.222 397.391 129.702 397.841 127.163C398.282 124.625 398.062 121.952 397.199 119.432C396.426 117.162 395.108 114.947 393.29 112.857C393.263 112.705 393.182 112.57 393.057 112.462C392.931 112.364 392.77 112.301 392.61 112.301L392.583 112.301L392.583 112.292Z" fill="#19CCAE"/>
</g>
</g>
<g clip-path="url(#clip2)">
<path d="M348.863 142.31L348.958 142.391C349.464 142.827 349.897 143.368 350.211 143.965C350.484 144.473 350.67 145.064 350.768 145.722C350.941 146.909 350.791 148.097 350.642 149.248C350.609 149.48 350.581 149.716 350.556 149.947C350.166 153.359 350.215 156.836 350.268 160.198L350.28 160.791C350.291 161.699 350.302 162.606 350.304 163.514L350.304 164.066L350.302 164.364L350.301 164.788C350.296 165.107 350.308 165.424 350.324 165.746L350.327 165.834C350.358 166.562 350.385 167.294 350.333 167.999C350.312 168.328 350.258 168.676 350.18 169.035C350.108 169.368 349.99 169.709 349.814 170.064C349.682 170.338 349.494 170.604 349.236 170.89C349.183 170.941 349.168 171.018 349.172 171.091C349.181 171.253 349.105 171.435 348.932 171.514L348.814 171.57C348.77 171.591 348.727 171.616 348.687 171.645C347.421 172.368 345.907 172.904 344.058 173.282C343.076 173.544 342.138 173.734 341.206 173.872C339.874 174.066 338.675 174.121 337.539 174.048C335.604 174.03 333.837 173.713 332.276 173.098C332.202 173.075 332.144 173.042 332.099 173.003C332.07 172.978 332.045 172.949 332.025 172.917C332.009 172.89 331.996 172.864 331.983 172.836C331.942 172.744 331.908 172.644 331.876 172.548C331.866 172.516 331.859 172.483 331.856 172.451C331.564 169.555 331.562 166.465 331.853 163.26C332.136 160.057 332.728 156.848 333.599 153.726C334.439 150.743 335.521 147.926 336.829 145.348C338.212 142.628 339.844 140.223 341.672 138.196C341.844 138.003 342.139 137.978 342.335 138.144C342.43 138.225 342.486 138.343 342.492 138.474C342.498 138.605 342.46 138.723 342.378 138.811C342.029 139.201 342.357 139.84 342.88 139.871C342.892 139.872 342.903 139.872 342.915 139.873C343.619 139.911 344.33 140.033 345.025 140.229C345.681 140.415 346.357 140.689 347.04 141.055C347.684 141.412 348.299 141.831 348.863 142.31Z" fill="url(#paint5_linear)"/>
<path d="M360.045 145.83C360.073 145.853 360.096 145.88 360.125 145.921C360.197 146.029 360.205 146.139 360.194 146.263L360.185 146.374C360.18 146.445 360.202 146.516 360.244 146.574C360.342 146.708 360.415 146.838 360.478 146.969C360.519 147.067 360.558 147.178 360.525 147.309C360.492 147.43 360.415 147.53 360.309 147.59C360.292 147.601 360.273 147.61 360.252 147.618C360.189 147.643 360.14 147.7 360.141 147.769C360.154 148.998 360.29 150.287 360.553 151.597C360.553 151.598 360.549 151.599 360.548 151.598C360.548 151.598 360.548 151.598 360.548 151.598C360.547 151.597 360.543 151.585 360.542 151.578C361.007 153.792 361.821 156.066 362.966 158.338C364.26 160.877 365.913 163.288 367.875 165.511C368.893 166.643 369.965 167.694 371.062 168.624C371.515 169.008 371.98 169.379 372.447 169.729C372.451 169.731 372.454 169.734 372.457 169.736C372.466 169.744 372.474 169.751 372.482 169.759C372.631 169.906 372.712 170.138 372.721 170.346C372.673 172.63 371.745 175.018 369.948 177.442C368.329 179.63 366.284 181.544 363.858 183.134C363.118 183.617 362.348 184.052 361.586 184.422C361.234 184.596 360.856 184.756 360.439 184.923C360.019 185.086 359.469 185.29 358.9 185.406C358.899 185.406 358.899 185.406 358.898 185.406C358.753 185.444 358.586 185.432 358.459 185.354C357.619 184.886 356.83 184.359 356.119 183.787C356.024 183.714 355.933 183.637 355.842 183.56C355.287 183.089 354.725 182.534 354.129 181.863C353.133 180.751 352.172 179.478 351.273 178.086C349.718 175.671 348.458 172.963 347.525 170.037C345.863 164.821 345.26 158.857 345.729 152.305C345.947 149.26 346.418 146.074 347.124 142.843C347.177 142.597 347.415 142.437 347.661 142.488C347.73 142.499 347.801 142.535 347.86 142.586C347.911 142.629 347.987 142.639 348.039 142.596C348.135 142.513 348.244 142.434 348.365 142.36C348.95 142.005 349.715 141.842 350.647 141.861C351.473 141.884 352.37 142.045 353.394 142.37C354.299 142.65 355.252 143.049 356.221 143.539C357.208 144.046 358.12 144.622 358.935 145.266C359.03 145.339 359.129 145.415 359.225 145.496C359.254 145.521 359.284 145.547 359.313 145.572C359.451 145.695 359.665 145.697 359.846 145.732C359.915 145.743 359.986 145.779 360.045 145.83Z" fill="url(#paint6_linear)"/>
</g>
<g filter="url(#filter5_f)">
<rect x="336.872" y="145.821" width="23.8572" height="7.9524" transform="rotate(7.82837 336.872 145.821)" fill="#0FAF8F" fill-opacity="0.5"/>
</g>
<path d="M392.591 112.319L392.582 112.319C392.386 112.319 392.189 112.409 392.074 112.561C391.495 113.297 390.853 113.996 390.166 114.651C388.82 115.898 387.215 117.028 385.421 118.006C383.788 118.876 381.932 119.665 379.762 120.409C377.843 121.064 375.843 121.647 373.816 122.149C368.378 123.441 362.582 124.096 356.588 124.096C355.929 124.096 355.279 124.087 354.62 124.07C354.616 124.07 354.615 124.076 354.619 124.077C354.621 124.078 354.622 124.079 354.623 124.08C354.631 124.087 354.668 124.087 354.676 124.087C346.832 123.863 338.815 122.571 330.931 120.212C325.031 118.436 319.362 116.095 314.076 113.261C313.92 113.174 313.735 113.154 313.565 113.101C313.468 113.071 313.378 113.054 313.289 113.054C313.101 113.054 312.941 113.126 312.834 113.252C311.943 114.346 311.213 115.404 310.599 116.49C309.949 117.647 309.434 118.894 309.043 120.194C308.298 122.741 308.251 125.522 308.9 128.222C309.188 129.406 309.664 130.661 310.319 131.953C310.858 133.011 311.557 134.088 312.471 135.254C313.931 137.137 315.811 138.913 318.218 140.662C320.329 142.205 322.718 143.578 325.508 144.851C327.931 145.963 330.578 146.932 333.376 147.73C338.435 149.192 343.931 150.063 349.721 150.341C350.909 150.394 352.106 150.421 353.295 150.421C357.815 150.421 362.352 150.018 366.782 149.219C372.372 148.215 377.559 146.564 382.199 144.313C384.68 143.111 386.973 141.712 389.016 140.151C390.095 139.326 391.111 138.438 392.021 137.541C392.948 136.626 393.839 135.586 394.658 134.447C396.279 132.213 397.364 129.693 397.805 127.172C398.246 124.634 398.026 121.961 397.163 119.45C396.434 117.317 395.227 115.225 393.567 113.241C393.37 113.005 393.27 112.679 393.029 112.489C392.913 112.373 392.761 112.319 392.591 112.319Z" fill="url(#paint7_linear)"/>
<path d="M356.609 49.3889L356.126 49.3889C352.16 49.3889 348.176 49.8105 344.274 50.6356C340.417 51.4608 336.622 52.7345 333.017 54.4297C329.554 56.0443 326.235 58.1072 323.15 60.5559C320.153 62.9508 317.426 65.7403 315.047 68.8437C312.66 71.9561 310.639 75.3914 309.048 79.042C307.403 82.8092 306.197 86.8455 305.456 91.0522C304.856 94.4965 304.551 98.0932 304.568 101.762C304.68 103.95 304.819 106.489 305.279 108.489C305.703 110.346 306.333 112.22 307.141 114.077C308.577 117.378 310.674 120.436 313.351 123.163C315.796 125.648 318.775 127.845 322.192 129.693C325.322 131.397 328.872 132.805 332.752 133.89C336.283 134.886 340.117 135.595 344.147 135.998C346.559 136.24 348.998 136.357 351.393 136.357C352.643 136.357 353.992 136.321 355.395 136.249C359.486 136.025 363.567 135.451 367.532 134.545C371.666 133.603 375.656 132.276 379.387 130.59C383.225 128.859 386.722 126.706 389.781 124.203C392.964 121.602 395.602 118.571 397.623 115.198C398.753 113.323 399.661 111.485 400.416 109.154C401.768 104.98 401.685 101.778 401.677 97.8421C401.67 94.5675 400.276 87.718 400.276 87.718C400.556 89.1352 400.005 86.3008 400.276 87.718C399.536 83.9777 398.027 79.1586 396.615 74.8712C395.185 70.53 393.48 66.9422 391.392 63.9284C390.236 62.2511 388.928 60.7084 387.514 59.3361C386.037 57.9189 384.354 56.6452 382.538 55.5509C380.714 54.4477 378.612 53.4879 376.306 52.6986C374.321 52.0169 372.14 51.416 369.628 50.8599C365.329 49.9181 360.942 49.4248 356.609 49.3889Z" fill="#EDFBFF"/>
<mask id="mask2" mask-type="alpha" maskUnits="userSpaceOnUse" x="304" y="49" width="99" height="88">
<path d="M356.957 49.2813L356.475 49.2813C352.508 49.2813 348.525 49.7029 344.622 50.5281C340.765 51.3533 336.971 52.627 333.365 54.3222C329.903 55.9367 326.584 57.9997 323.498 60.4484C320.502 62.8432 317.774 65.6327 315.395 68.7362C313.008 71.8486 310.987 75.2839 309.396 78.9345C307.752 82.7017 306.545 86.7379 305.804 90.9446C305.204 94.3889 304.899 97.9857 304.916 101.654C305.028 103.843 305.168 106.381 305.628 108.381C306.052 110.238 306.681 112.113 307.489 113.969C308.926 117.27 311.023 120.329 313.7 123.055C316.144 125.54 319.124 127.737 322.54 129.585C325.671 131.289 329.22 132.698 333.1 133.783C336.631 134.779 340.465 135.487 344.495 135.891C346.908 136.133 349.347 136.25 351.741 136.25C352.992 136.25 354.341 136.214 355.743 136.142C359.834 135.918 363.915 135.344 367.88 134.438C372.014 133.496 376.005 132.168 379.735 130.482C383.573 128.751 387.07 126.598 390.129 124.096C393.313 121.495 395.951 118.463 397.971 115.09C399.102 113.216 400.009 111.378 400.765 109.047C402.117 104.873 402.034 101.67 402.025 97.7345C402.018 94.46 400.625 87.6104 400.625 87.6104C400.905 89.0276 400.354 86.1933 400.625 87.6104C399.884 83.8702 398.375 79.0511 396.964 74.7637C395.534 70.4224 393.828 66.8346 391.74 63.8209C390.584 62.1436 389.277 60.6008 387.862 59.2285C386.385 57.8113 384.703 56.5377 382.887 55.4434C381.062 54.3401 378.961 53.3804 376.654 52.5911C374.669 51.9094 372.488 51.3084 369.977 50.7523C365.677 49.8105 361.29 49.3172 356.957 49.2813Z" fill="#EDFBFF"/>
</mask>
<g mask="url(#mask2)">
<g filter="url(#filter6_f)">
<path d="M381.671 62.8478C381.676 62.8499 381.682 62.8537 381.69 62.8593L407.1 78.5302L405.882 108.197L396.822 133.5L351.537 138.136L350.74 132.72C358.021 132.078 385.2 131.587 392.463 104.587C398.235 83.1282 382.482 63.4428 381.69 62.8593L381.671 62.8478Z" fill="#BBEAF8"/>
</g>
</g>
<path d="M341.444 168.809L341.452 168.817L341.444 168.809Z" fill="#D23943"/>
<path d="M342.329 169.696L342.321 169.688L342.329 169.696Z" fill="#D23943"/>
<path d="M364.678 168.127L364.67 168.135L364.678 168.127Z" fill="#D23943"/>
<path d="M363.797 169.014L363.805 169.006L363.797 169.014Z" fill="#D23943"/>
<path d="M316.949 61.8973C316.949 61.8973 327.5 26.5062 359.313 21.6472C386.564 19.3759 400.827 33.6198 406.444 49.552C413.428 69.3606 407.5 90.5062 407.5 90.5062C407.5 83 406.519 77.4057 405 73.5C401.5 64.5 397.125 60.6926 397.125 60.6926L399.274 72.458L316.949 61.8973Z" fill="url(#paint8_linear)"/>
<path d="M384.442 35.0671C385.479 37.1054 387.027 38.8947 388.283 40.8093C389.554 42.7385 390.724 44.7441 391.776 46.8117C392.891 49.0114 393.86 51.2886 394.682 53.6136C395.457 55.8062 395.909 58.0803 396.639 60.2739C396.846 60.8922 397.907 60.7939 397.817 60.0839C397.235 55.3949 395.114 50.5925 393.008 46.4128C390.995 42.4239 388.369 37.4995 384.673 34.8393C384.507 34.7244 384.365 34.9353 384.442 35.0671Z" fill="#0BCFA9"/>
<path d="M392.922 38.2564C393.544 41.5056 394.724 44.6235 395.303 47.8886C395.914 51.3309 396.362 55.3138 396.236 58.8026C396.21 59.6042 397.465 59.5756 397.476 58.7744C397.573 55.2863 397.067 51.3344 396.426 47.9076C395.817 44.6135 394.994 40.9831 393.141 38.1476C393.064 38.0158 392.889 38.1088 392.922 38.2564Z" fill="#0BCFA9"/>
<path d="M399.802 47.6083C399.101 51.7777 398.481 55.6188 396.621 59.4882C396.269 60.2231 397.391 60.8354 397.729 60.1009C399.473 56.3231 400.697 51.7859 400.009 47.6036C399.992 47.515 399.829 47.5187 399.802 47.6083Z" fill="#0BCFA9"/>
<path d="M310.532 71.123C310.69 72.6119 312.242 73.1816 313.65 72.6764C323.134 69.2725 359.385 59.0421 399.114 83.9929C399.114 83.9929 400.866 83.374 401.271 79.3437C401.984 72.2547 396.97 66.0383 390.729 62.6109C377.944 55.5904 353.556 45.5879 327.496 52.7917C320.651 54.6838 313.983 58.7281 311.437 65.3641C310.502 67.8014 310.385 69.7394 310.532 71.123Z" fill="#00B9C2"/>
<ellipse rx="1.7909" ry="1.79761" transform="matrix(1 -1.33683e-08 0.00216959 0.999998 382.937 84.283)" fill="white" fill-opacity="0.22"/>
<circle r="6.03185" transform="matrix(-0.244251 -0.969712 -0.969712 0.244251 408.322 89.3287)" fill="#00B9C2"/>
<g filter="url(#filter7_i)">
<path d="M356.047 93.4304C355.802 97.7691 358.24 98.8892 361.608 99.5785C364.975 100.268 369.102 98.5052 369.347 94.1664C369.591 89.8277 366.812 86.1457 363.14 85.9425C359.467 85.7392 356.291 89.0917 356.047 93.4304Z" fill="#414A5B"/>
</g>
<path d="M322.203 93.9138C322.474 98.2502 324.973 99.0926 328.323 99.4044C331.673 99.7161 335.473 97.5084 335.202 93.172C334.93 88.8356 331.8 85.4864 328.211 85.6912C324.621 85.896 321.931 89.5774 322.203 93.9138Z" fill="#414A5B"/>
<ellipse rx="1.93838" ry="1.94565" transform="matrix(1 -1.33683e-08 0.00216959 0.999998 331.942 94.9456)" fill="white"/>
<ellipse rx="1.93838" ry="1.94565" transform="matrix(1 -1.33683e-08 0.00216959 0.999998 365.987 95.711)" fill="white"/>
<ellipse rx="0.970151" ry="0.973787" transform="matrix(1 -1.33683e-08 0.00216959 0.999998 328.972 91.9738)" fill="white" fill-opacity="0.22"/>
<ellipse rx="0.970151" ry="0.973787" transform="matrix(1 -1.33683e-08 0.00216959 0.999998 362.972 93.9738)" fill="white" fill-opacity="0.22"/>
<path d="M337.255 104.847C337.396 101.806 340.925 99.8989 343.895 100.564C344.76 100.757 345.676 100.896 346.615 100.94C347.409 100.977 348.184 100.946 348.925 100.867C351.94 100.546 355.374 102.786 355.234 105.818C355.175 107.105 354.479 108.283 353.321 108.845C351.477 109.741 348.558 110.92 346.159 110.807C343.771 110.694 340.862 109.255 339.009 108.187C337.83 107.508 337.192 106.206 337.255 104.847Z" fill="#FA667F"/>
<path d="M341.107 103.574C341.162 102.381 342.477 101.603 343.634 101.898C344.219 102.046 344.873 102.163 345.551 102.195C346.166 102.224 346.756 102.181 347.291 102.103C348.473 101.929 349.744 102.83 349.688 104.025C349.662 104.605 349.322 105.126 348.783 105.339C347.906 105.686 346.518 106.14 345.372 106.086C344.226 106.032 342.824 105.447 341.936 105.017C341.39 104.753 341.079 104.18 341.107 103.574Z" fill="white" fill-opacity="0.2"/>
<path d="M324.944 99.9806C324.165 99.2109 323.745 98.7961 324.167 97.6647C324.768 96.0551 326.848 97.8487 328.869 98.0519C330.7 98.236 331.837 96.6128 332.788 98.0519C333.379 98.9471 332.627 99.5802 331.837 99.7104C329.486 100.098 327.223 102.233 324.951 99.9879L324.944 99.9806Z" fill="url(#paint9_linear)"/>
<path d="M366.5 103.5C367.491 103.02 367.103 100.707 367 99.5C366.854 97.7881 363.4 99.3349 361.399 98.9875C359.586 98.6729 358.928 96.8039 357.625 97.9344C356.814 98.6377 357.369 99.4496 358.095 99.7875C359.234 100.317 361 101.5 364 101.5C365.191 102.481 365.468 104 366.5 103.5Z" fill="url(#paint10_linear)"/>
<path d="M308.723 148.198C307.531 146.946 305.565 146.414 303.828 146.873C303.604 146.937 303.416 147.09 303.334 147.302C298.548 154.669 295.902 163.684 295.87 172.706C295.85 178.576 296.942 184.146 299.1 189.252C299.13 189.322 299.173 189.38 299.222 189.432C299.309 189.523 299.427 189.595 299.566 189.624C299.591 189.638 299.629 189.651 299.654 189.665C300.621 190.069 301.637 189.787 302.324 189.483C302.696 189.316 303.077 189.067 303.505 188.725C303.848 188.449 304.175 188.092 304.465 187.682C304.623 187.459 304.612 187.149 304.434 186.911L304.115 185.992C303.938 185.495 303.773 184.997 303.602 184.494L303.608 184.513C302.612 181.34 301.172 179.393 301.403 171.445C301.633 163.497 305.012 156.446 306.889 152.862C307.502 151.716 308.173 150.552 308.888 149.434C308.96 149.329 309.002 149.191 309.005 149.064C309.088 148.826 309.037 148.566 308.871 148.378C308.822 148.301 308.773 148.249 308.723 148.198Z" fill="#997144"/>
<path d="M391.859 151.198C393.051 149.946 395.017 149.414 396.755 149.873C396.979 149.937 397.166 150.09 397.248 150.302C402.034 157.669 404.68 166.684 404.712 175.706C404.732 181.576 403.64 187.146 401.482 192.252C401.452 192.322 401.409 192.38 401.36 192.432C401.274 192.523 401.155 192.595 401.016 192.624C400.991 192.638 400.953 192.651 400.928 192.665C399.962 193.069 398.945 192.787 398.258 192.483C397.886 192.316 397.505 192.067 397.078 191.725C396.734 191.449 396.407 191.092 396.118 190.682C395.96 190.459 395.97 190.149 396.148 189.911L396.467 188.992C396.644 188.495 396.809 187.997 396.98 187.494L396.974 187.513C397.97 184.34 399.41 182.393 399.18 174.445C398.949 166.497 395.57 159.446 393.694 155.862C393.08 154.716 392.409 153.552 391.694 152.434C391.622 152.329 391.58 152.191 391.577 152.064C391.495 151.826 391.545 151.566 391.711 151.378C391.76 151.301 391.81 151.249 391.859 151.198Z" fill="#997144"/>
<path d="M315.918 194.001C315.861 193.943 315.798 193.879 315.741 193.822C315.741 193.822 315.741 193.822 315.746 193.829C315.7 193.785 315.654 193.742 315.613 193.705C315.367 193.512 315.12 193.331 314.86 193.148C314.541 192.921 314.228 192.7 313.902 192.479C312.6 191.75 311.315 190.986 309.999 190.269C309.95 190.251 309.913 190.177 309.906 190.125C309.9 190.073 309.914 190.005 309.95 189.965C309.988 189.912 310.043 189.88 310.102 189.868C310.166 189.862 310.215 189.881 310.263 189.912C310.275 189.913 310.281 189.92 310.294 189.921C310.302 189.903 310.311 189.885 310.326 189.862C310.364 189.809 310.419 189.777 310.476 189.777C310.541 189.772 310.59 189.79 310.644 189.815C310.836 189.927 311.022 190.031 311.213 190.142C311.223 190.111 311.233 190.08 311.256 190.051C311.28 190.009 311.327 189.983 311.374 189.969L311.323 189.906C311.072 189.591 310.679 189.514 310.381 189.715C309.557 189.385 308.656 189.117 307.694 188.93C306.165 188.621 304.523 188.572 302.941 188.784C301.282 189 299.807 189.505 298.548 190.295C297.236 191.104 296.199 192.301 295.627 193.679C295.515 193.926 295.554 194.204 295.716 194.407C295.777 194.484 295.847 194.543 295.944 194.592C296.011 194.619 296.065 194.644 296.128 194.652C296.019 195.16 295.941 195.679 295.889 196.188C295.775 197.351 295.802 198.562 295.962 199.795C296.117 200.951 296.417 202.117 296.85 203.248C297.125 203.966 297.52 204.704 298.012 205.422C298.17 205.663 298.342 205.892 298.52 206.116C298.85 206.529 299.224 206.941 299.659 207.385C300.242 207.974 300.913 208.527 301.659 209.045C303.227 210.122 304.836 210.79 306.454 211.052C307.984 211.292 309.482 211.089 310.791 210.476C312.37 209.729 313.598 208.427 314.155 206.902C314.647 205.566 314.701 203.97 314.332 202.173C314.137 201.254 313.854 200.325 313.451 199.331C313.929 199.501 314.45 199.58 314.967 199.582C315.516 199.581 316.078 199.411 316.501 199.122C316.951 198.812 317.251 198.312 317.351 197.72C317.445 197.12 317.332 196.433 316.989 195.631C316.808 195.203 316.562 194.793 316.232 194.38C316.133 194.242 316.031 194.128 315.918 194.001Z" fill="#00B9C2"/>
<path d="M384.664 197.001C384.722 196.943 384.784 196.879 384.842 196.822C384.842 196.822 384.842 196.822 384.836 196.829C384.882 196.785 384.928 196.742 384.969 196.705C385.215 196.512 385.462 196.331 385.722 196.148C386.041 195.921 386.354 195.7 386.68 195.479C387.982 194.75 389.268 193.986 390.584 193.269C390.633 193.251 390.669 193.177 390.676 193.125C390.683 193.073 390.668 193.005 390.632 192.965C390.594 192.912 390.539 192.88 390.48 192.868C390.416 192.862 390.367 192.881 390.319 192.912C390.307 192.913 390.301 192.92 390.289 192.921C390.28 192.903 390.272 192.885 390.256 192.862C390.218 192.809 390.164 192.777 390.106 192.777C390.042 192.772 389.993 192.79 389.938 192.815C389.747 192.927 389.56 193.031 389.369 193.142C389.359 193.111 389.349 193.08 389.327 193.051C389.303 193.009 389.255 192.983 389.209 192.969L389.259 192.906C389.51 192.591 389.904 192.514 390.201 192.715C391.025 192.385 391.927 192.117 392.889 191.93C394.417 191.621 396.059 191.572 397.641 191.784C399.3 192 400.775 192.505 402.034 193.295C403.346 194.104 404.383 195.301 404.956 196.679C405.067 196.926 405.029 197.204 404.867 197.407C404.805 197.484 404.735 197.543 404.639 197.592C404.572 197.619 404.517 197.644 404.454 197.652C404.563 198.16 404.642 198.679 404.694 199.188C404.807 200.351 404.78 201.562 404.621 202.795C404.466 203.951 404.165 205.117 403.732 206.248C403.457 206.966 403.062 207.704 402.57 208.422C402.412 208.663 402.241 208.892 402.062 209.116C401.732 209.529 401.358 209.941 400.924 210.385C400.34 210.974 399.669 211.527 398.924 212.045C397.355 213.122 395.746 213.79 394.129 214.052C392.598 214.292 391.1 214.089 389.792 213.476C388.212 212.729 386.984 211.427 386.427 209.902C385.936 208.566 385.881 206.97 386.25 205.173C386.445 204.254 386.728 203.325 387.132 202.331C386.653 202.501 386.132 202.58 385.615 202.582C385.066 202.581 384.504 202.411 384.082 202.122C383.631 201.812 383.331 201.312 383.232 200.72C383.138 200.12 383.251 199.433 383.593 198.631C383.774 198.203 384.021 197.793 384.35 197.38C384.449 197.242 384.551 197.128 384.664 197.001Z" fill="#00B9C2"/>
<path d="M294.233 194.529C294.552 194.928 294.936 195.252 295.37 195.48C295.448 195.521 295.528 195.549 295.623 195.553C295.767 195.576 295.986 195.563 296.121 195.445C297.224 194.561 298.474 193.789 299.831 193.15C301.514 192.39 303.268 191.848 305.053 191.532C306.679 191.273 308.256 191.213 309.773 191.349C310.448 191.42 311.112 191.535 311.733 191.682C311.957 191.734 312.187 191.677 312.364 191.526C312.558 191.396 312.656 191.261 312.72 191.039C312.888 190.461 312.986 189.881 313.009 189.292C313.033 188.691 312.98 188.094 312.822 187.408C312.637 186.573 312.245 185.752 311.681 185.045C311.447 184.751 311.179 184.473 310.893 184.23C310.858 184.201 310.816 184.177 310.782 184.147C310.689 184.06 310.575 184.003 310.463 183.977C307.736 183.371 304.712 183.513 301.484 184.389C300.061 184.772 298.584 185.346 297.082 186.089C295.735 186.754 294.475 187.557 293.342 188.476C293.209 188.581 293.08 188.706 293.03 188.917C292.981 189.013 292.945 189.098 292.93 189.179C292.737 190.199 292.834 191.355 293.238 192.622C293.431 193.223 293.716 193.808 294.067 194.307C294.122 194.389 294.183 194.466 294.233 194.529Z" fill="#04AEB7"/>
<path d="M406.349 197.529C406.031 197.928 405.646 198.252 405.213 198.48C405.134 198.521 405.055 198.549 404.959 198.553C404.815 198.576 404.597 198.563 404.462 198.445C403.358 197.561 402.108 196.789 400.752 196.15C399.069 195.39 397.315 194.848 395.529 194.532C393.904 194.273 392.326 194.213 390.809 194.349C390.134 194.42 389.471 194.535 388.849 194.682C388.625 194.734 388.395 194.677 388.218 194.526C388.025 194.396 387.926 194.261 387.863 194.039C387.694 193.461 387.596 192.881 387.573 192.292C387.549 191.691 387.602 191.094 387.76 190.408C387.946 189.573 388.337 188.752 388.901 188.045C389.136 187.751 389.404 187.473 389.689 187.23C389.724 187.201 389.766 187.177 389.801 187.147C389.893 187.06 390.008 187.003 390.12 186.977C392.847 186.371 395.87 186.513 399.099 187.389C400.521 187.772 401.998 188.346 403.5 189.089C404.847 189.754 406.107 190.557 407.24 191.476C407.373 191.581 407.503 191.706 407.552 191.917C407.602 192.013 407.637 192.098 407.652 192.179C407.846 193.199 407.748 194.355 407.344 195.622C407.151 196.223 406.867 196.808 406.515 197.307C406.461 197.389 406.399 197.466 406.349 197.529Z" fill="#04AEB7"/>
<path d="M351.233 116.84C346.64 116.916 343.511 120.432 342.204 122.238C341.939 122.604 342.284 123.057 342.721 122.939C344.56 122.443 348.193 121.584 351.398 121.555C354.373 121.527 357.414 122.21 359.144 122.679C359.608 122.805 359.973 122.29 359.665 121.921C358.132 120.087 354.86 116.781 351.233 116.84Z" fill="#414A5B"/>
<path d="M350.815 124.044C349.302 124.265 348.317 125.014 348.026 126.163C347.508 128.204 354.975 128.772 355 126.693C355.019 125.077 352.904 123.738 350.815 124.044Z" fill="#CAEFFA"/>
<ellipse cx="325.832" cy="85.3294" rx="6" ry="3.5" transform="rotate(-19.8505 325.832 85.3294)" fill="#EDFBFF"/>
<ellipse cx="365.824" cy="86.3029" rx="6" ry="3.5" transform="rotate(19.5109 365.824 86.3029)" fill="#EDFBFF"/>
<g filter="url(#filter8_f)">
<path d="M335.859 82.0914C335.843 83.6446 334.409 84.7997 332.876 84.5613C331.523 84.351 329.941 84.1557 328.669 84.1419C327.364 84.1279 325.729 84.2979 324.35 84.4846C322.859 84.6863 321.326 83.466 321.956 82.0989C322.426 81.0785 324.374 79.2787 328.719 79.3256C331.004 79.3503 332.866 79.6127 334.118 79.856C335.175 80.0615 335.87 81.0135 335.859 82.0914Z" fill="#DAF5FD"/>
</g>
<path d="M334.594 78.7343C334.979 80.2389 333.893 81.7265 332.352 81.8937C330.99 82.0414 329.411 82.2629 328.178 82.5798C326.913 82.9049 325.377 83.4936 324.093 84.032C322.706 84.6133 320.912 83.8313 321.168 82.3473C321.358 81.2395 322.776 78.9953 326.984 77.9138C329.198 77.3448 331.065 77.1154 332.336 77.0258C333.41 76.9502 334.327 77.6899 334.594 78.7343Z" fill="#C0E2EC"/>
<g filter="url(#filter9_f)">
<path d="M358.993 82.0025C358.611 83.5078 359.7 84.9919 361.244 85.1546C362.605 85.2981 364.184 85.5147 365.417 85.8275C366.682 86.1485 368.219 86.7319 369.505 87.266C370.894 87.8431 372.688 87.0564 372.43 85.5737C372.237 84.4668 370.815 82.2277 366.604 81.1595C364.389 80.5975 362.522 80.3739 361.25 80.2881C360.175 80.2157 359.259 80.9577 358.993 82.0025Z" fill="#DAF5FD"/>
</g>
<path d="M358.055 80.1604C357.501 81.6114 358.41 83.2129 359.922 83.5546C361.258 83.8564 362.802 84.2563 363.99 84.7116C365.21 85.1787 366.669 85.9385 367.884 86.6197C369.196 87.3551 371.067 86.7825 370.982 85.279C370.919 84.1567 369.766 81.7656 365.708 80.2119C363.573 79.3944 361.745 78.954 360.492 78.7201C359.434 78.5227 358.439 79.1532 358.055 80.1604Z" fill="#C0E2EC"/>
<circle opacity="0.5" cx="365.5" cy="107.5" r="1.5" fill="url(#paint11_linear)"/>
<path d="M37.43 111.232C37.95 111.726 39.874 113.26 43.15 113.26C46.816 113.26 49.13 110.79 49.13 108.112C49.13 104.758 46.218 103.25 43.696 102.236C41.59 101.378 40.628 100.546 40.628 99.324C40.628 98.492 41.434 97.504 42.916 97.504C44.346 97.504 46.322 98.804 46.53 98.934C46.842 99.142 47.232 98.934 47.44 98.622L48.428 97.14C48.61 96.88 48.532 96.438 48.272 96.282C47.752 95.892 45.724 94.54 43.072 94.54C38.938 94.54 37.222 97.218 37.222 99.532C37.222 102.6 39.666 104.16 42.11 105.148C44.294 106.032 45.412 106.942 45.412 108.268C45.412 109.386 44.398 110.27 43.046 110.27C41.356 110.27 39.25 108.736 39.12 108.658C38.886 108.476 38.444 108.476 38.236 108.84L37.3 110.452C37.066 110.868 37.196 110.998 37.43 111.232ZM51.3471 112.506C51.3471 112.766 51.5811 113 51.8411 113H53.7651C54.2591 113 54.4151 112.87 54.4151 112.506V106.786C54.6751 106.084 55.5071 105.148 56.8591 105.148C58.1071 105.148 58.8091 106.006 58.8091 107.358V112.506C58.8091 112.766 59.0171 113 59.3031 113H61.4351C61.6951 113 61.9291 112.766 61.9291 112.506V107.514C61.9291 104.81 60.6031 102.34 57.3011 102.34C55.2991 102.34 54.0251 103.458 53.6351 103.874L53.2711 102.912C53.1931 102.73 53.0631 102.6 52.8291 102.6H51.8411C51.5811 102.6 51.3471 102.808 51.3471 103.094V112.506ZM64.0235 107.774C64.0235 110.764 66.4155 113.26 69.3535 113.26C72.2915 113.26 74.6835 110.764 74.6835 107.774C74.6835 104.836 72.2915 102.34 69.3535 102.34C66.4155 102.34 64.0235 104.836 64.0235 107.774ZM66.8575 107.774C66.8575 106.318 67.9495 105.148 69.3535 105.148C70.7315 105.148 71.8495 106.318 71.8495 107.774C71.8495 109.256 70.7315 110.452 69.3535 110.452C67.9495 110.452 66.8575 109.256 66.8575 107.774ZM79.1496 112.974C79.2016 113.13 79.3576 113.26 79.5916 113.26H79.7216C79.9296 113.26 80.0596 113.156 80.1376 113.026L83.3876 106.968H83.4136L86.6896 113.026C86.7676 113.156 86.8976 113.26 87.1056 113.26H87.2096C87.4696 113.26 87.6256 113.13 87.6776 112.974L90.9276 103.198C91.0576 102.86 90.8236 102.6 90.4596 102.6H88.7696C88.4836 102.6 88.2756 102.626 88.1716 102.912L86.6116 107.566H86.5856L83.9596 102.574C83.8816 102.444 83.7776 102.34 83.5436 102.34H83.3356C83.1016 102.34 82.9716 102.47 82.9196 102.574L80.2676 107.566H80.2416L78.6816 102.912C78.6296 102.73 78.3696 102.6 78.2136 102.6H76.3416C75.9776 102.6 75.7436 102.86 75.8996 103.198L79.1496 112.974ZM93.0131 112.506C93.0131 112.766 93.2471 113 93.5071 113H95.6131C95.8731 113 96.1071 112.766 96.1071 112.506V106.786C96.3671 106.084 96.9911 105.148 98.2911 105.148C99.6171 105.148 100.215 106.006 100.215 107.358V112.506C100.215 112.766 100.423 113 100.709 113H102.659C102.919 113 103.153 112.766 103.153 112.506V107.228C103.153 106.76 103.127 106.24 103.127 106.24C103.127 106.24 103.803 105.148 105.311 105.148C106.611 105.148 107.261 106.006 107.261 107.358V112.506C107.261 112.766 107.469 113 107.755 113H109.861C110.147 113 110.355 112.766 110.355 112.506V107.54C110.355 104.81 109.133 102.34 105.805 102.34C103.933 102.34 102.581 103.484 102.139 103.952C101.281 102.912 100.241 102.34 98.7591 102.34C96.9131 102.34 95.7171 103.38 95.2751 103.874L94.9111 102.886C94.8591 102.73 94.7031 102.6 94.4691 102.6H93.5071C93.2471 102.6 93.0131 102.808 93.0131 103.094V112.506ZM112.521 109.698C112.521 111.908 113.951 113.26 116.031 113.26C117.643 113.26 118.605 112.48 119.203 111.934L119.515 112.636C119.645 112.922 119.775 113 119.957 113H120.893C121.153 113 121.387 112.766 121.387 112.506V106.864C121.387 104.03 120.633 102.34 117.383 102.34C115.719 102.34 114.055 102.756 113.847 102.834C113.613 102.912 113.405 103.094 113.483 103.484L113.717 104.836C113.769 105.174 113.951 105.408 114.315 105.304C114.913 105.122 116.265 104.914 117.227 104.914C118.189 104.914 118.605 105.382 118.579 106.708C118.579 106.708 117.721 106.422 116.681 106.422C114.029 106.422 112.521 107.852 112.521 109.698ZM115.381 109.698C115.381 108.866 116.057 108.294 117.071 108.294C117.825 108.294 118.527 108.606 118.527 108.606V110.036C118.371 110.348 117.565 111.05 116.733 111.05C115.927 111.05 115.381 110.478 115.381 109.698ZM124.371 112.506C124.371 112.766 124.605 113 124.865 113H126.789C127.283 113 127.439 112.87 127.439 112.506V106.786C127.699 106.084 128.531 105.148 129.883 105.148C131.131 105.148 131.833 106.006 131.833 107.358V112.506C131.833 112.766 132.041 113 132.327 113H134.459C134.719 113 134.953 112.766 134.953 112.506V107.514C134.953 104.81 133.627 102.34 130.325 102.34C128.323 102.34 127.049 103.458 126.659 103.874L126.295 102.912C126.217 102.73 126.087 102.6 125.853 102.6H124.865C124.605 102.6 124.371 102.808 124.371 103.094V112.506ZM143.591 112.506C143.591 112.766 143.825 113 144.085 113H146.243C146.633 113 146.789 112.792 146.789 112.506V106.994C147.049 105.928 147.855 105.148 149.051 105.148C150.299 105.148 151.105 106.058 151.105 107.488V112.506C151.105 112.766 151.313 113 151.599 113H153.705C153.965 113 154.199 112.766 154.199 112.506V107.514C154.199 104.888 152.847 102.34 149.545 102.34C148.323 102.34 147.309 102.808 146.789 103.198V95.294C146.789 95.034 146.555 94.8 146.295 94.8H144.085C143.825 94.8 143.591 95.034 143.591 95.294V112.506ZM156.345 109.698C156.345 111.908 157.775 113.26 159.855 113.26C161.467 113.26 162.429 112.48 163.027 111.934L163.339 112.636C163.469 112.922 163.599 113 163.781 113H164.717C164.977 113 165.211 112.766 165.211 112.506V106.864C165.211 104.03 164.457 102.34 161.207 102.34C159.543 102.34 157.879 102.756 157.671 102.834C157.437 102.912 157.229 103.094 157.307 103.484L157.541 104.836C157.593 105.174 157.775 105.408 158.139 105.304C158.737 105.122 160.089 104.914 161.051 104.914C162.013 104.914 162.429 105.382 162.403 106.708C162.403 106.708 161.545 106.422 160.505 106.422C157.853 106.422 156.345 107.852 156.345 109.698ZM159.205 109.698C159.205 108.866 159.881 108.294 160.895 108.294C161.649 108.294 162.351 108.606 162.351 108.606V110.036C162.195 110.348 161.389 111.05 160.557 111.05C159.751 111.05 159.205 110.478 159.205 109.698ZM167.779 112.298C168.325 112.714 169.521 113.26 171.237 113.26C173.863 113.26 175.371 111.804 175.371 110.088C175.371 108.06 173.863 107.202 171.861 106.422C170.899 106.032 170.431 105.876 170.431 105.408C170.431 105.07 170.691 104.81 171.315 104.81C172.303 104.81 173.473 105.356 173.473 105.356C173.681 105.434 173.967 105.408 174.097 105.174L174.747 103.848C174.877 103.588 174.747 103.302 174.513 103.146C173.967 102.782 172.849 102.34 171.315 102.34C168.663 102.34 167.493 103.822 167.493 105.408C167.493 106.994 168.429 108.06 170.431 108.84C171.809 109.386 172.173 109.672 172.173 110.14C172.173 110.582 171.809 110.79 171.289 110.79C170.093 110.79 168.923 110.166 168.923 110.166C168.689 110.036 168.429 110.088 168.325 110.348L167.623 111.752C167.519 111.96 167.623 112.168 167.779 112.298ZM37.56 141.506C37.56 141.766 37.794 142 38.054 142H39.978C40.472 142 40.628 141.87 40.628 141.506V135.786C40.888 135.084 41.72 134.148 43.072 134.148C44.32 134.148 45.022 135.006 45.022 136.358V141.506C45.022 141.766 45.23 142 45.516 142H47.648C47.908 142 48.142 141.766 48.142 141.506V136.514C48.142 133.81 46.816 131.34 43.514 131.34C41.512 131.34 40.238 132.458 39.848 132.874L39.484 131.912C39.406 131.73 39.276 131.6 39.042 131.6H38.054C37.794 131.6 37.56 131.808 37.56 132.094V141.506ZM50.2364 136.774C50.2364 139.764 52.6284 142.26 55.5664 142.26C58.5044 142.26 60.8964 139.764 60.8964 136.774C60.8964 133.836 58.5044 131.34 55.5664 131.34C52.6284 131.34 50.2364 133.836 50.2364 136.774ZM53.0704 136.774C53.0704 135.318 54.1624 134.148 55.5664 134.148C56.9444 134.148 58.0624 135.318 58.0624 136.774C58.0624 138.256 56.9444 139.452 55.5664 139.452C54.1624 139.452 53.0704 138.256 53.0704 136.774ZM68.8128 140.232C69.3328 140.726 71.2568 142.26 74.5328 142.26C78.1988 142.26 80.5128 139.79 80.5128 137.112C80.5128 133.758 77.6008 132.25 75.0788 131.236C72.9728 130.378 72.0108 129.546 72.0108 128.324C72.0108 127.492 72.8168 126.504 74.2988 126.504C75.7288 126.504 77.7048 127.804 77.9128 127.934C78.2248 128.142 78.6148 127.934 78.8228 127.622L79.8108 126.14C79.9928 125.88 79.9148 125.438 79.6548 125.282C79.1348 124.892 77.1068 123.54 74.4548 123.54C70.3208 123.54 68.6048 126.218 68.6048 128.532C68.6048 131.6 71.0488 133.16 73.4928 134.148C75.6768 135.032 76.7948 135.942 76.7948 137.268C76.7948 138.386 75.7808 139.27 74.4288 139.27C72.7388 139.27 70.6328 137.736 70.5028 137.658C70.2688 137.476 69.8268 137.476 69.6188 137.84L68.6828 139.452C68.4488 139.868 68.5788 139.998 68.8128 140.232ZM83.8406 141.506C83.8406 141.766 84.0746 142 84.3346 142H86.7006C86.9866 142 87.1946 141.766 87.1946 141.506V130.326H87.2206L98.0886 142.26H98.7126C98.9726 142.26 99.2066 142.052 99.2066 141.792V124.294C99.2066 124.034 98.9726 123.8 98.7126 123.8H96.3206C96.0346 123.8 95.8266 124.034 95.8266 124.294V135.032H95.8006L84.9846 123.54H84.3346C84.0746 123.54 83.8406 123.748 83.8406 124.008V141.506ZM102.65 132.926C102.65 138.126 106.784 142.26 111.984 142.26C117.184 142.26 121.344 138.126 121.344 132.926C121.344 127.726 117.184 123.54 111.984 123.54C106.784 123.54 102.65 127.726 102.65 132.926ZM106.03 132.926C106.03 129.65 108.708 126.92 111.984 126.92C115.26 126.92 117.964 129.65 117.964 132.926C117.964 136.202 115.26 138.88 111.984 138.88C108.708 138.88 106.03 136.202 106.03 132.926ZM127.92 141.896C127.972 142.104 128.18 142.26 128.388 142.26H128.804C129.064 142.26 129.168 142.13 129.246 141.974L133.848 130.196H133.978L138.632 141.974C138.684 142.13 138.84 142.26 139.074 142.26H139.49C139.698 142.26 139.906 142.104 139.958 141.896L144.872 124.424C144.976 124.06 144.768 123.8 144.404 123.8H142.012C141.804 123.8 141.596 123.982 141.544 124.164L138.892 134.538H138.788L134.628 123.826C134.576 123.67 134.446 123.54 134.186 123.54H133.718C133.458 123.54 133.328 123.67 133.276 123.826L129.142 134.538H129.038L126.334 124.164C126.282 123.982 126.074 123.8 125.866 123.8H123.474C123.11 123.8 122.902 124.06 123.006 124.424L127.92 141.896ZM153.559 141.506C153.559 141.766 153.793 142 154.053 142H156.315C156.575 142 156.809 141.766 156.809 141.506V134.33H159.409C159.695 134.33 159.903 134.096 159.903 133.836V132.094C159.903 131.808 159.695 131.6 159.409 131.6H156.809V128.792C156.809 127.284 157.433 126.426 158.551 126.426C159.123 126.426 159.747 126.738 160.085 126.946C160.319 127.076 160.605 127.024 160.709 126.816L161.593 125.152C161.697 124.97 161.645 124.684 161.489 124.554C161.021 124.138 159.799 123.54 158.421 123.54C155.665 123.54 153.559 125.36 153.559 128.792V131.6H152.675C152.389 131.6 152.181 131.808 152.181 132.094V133.836C152.181 134.096 152.389 134.33 152.675 134.33H153.559V141.506ZM161.067 136.774C161.067 139.764 163.459 142.26 166.397 142.26C169.335 142.26 171.727 139.764 171.727 136.774C171.727 133.836 169.335 131.34 166.397 131.34C163.459 131.34 161.067 133.836 161.067 136.774ZM163.901 136.774C163.901 135.318 164.993 134.148 166.397 134.148C167.775 134.148 168.893 135.318 168.893 136.774C168.893 138.256 167.775 139.452 166.397 139.452C164.993 139.452 163.901 138.256 163.901 136.774ZM174.035 141.506C174.035 141.766 174.269 142 174.529 142H176.531C176.895 142 177.129 141.87 177.129 141.506V135.214C177.311 134.85 177.935 134.148 178.975 134.148C179.261 134.148 179.651 134.278 179.729 134.304C179.937 134.408 180.197 134.304 180.327 134.07L181.289 132.38C181.601 131.73 180.509 131.34 179.287 131.34C177.675 131.34 176.713 132.432 176.349 132.952L175.985 131.938C175.907 131.73 175.751 131.6 175.517 131.6H174.529C174.269 131.6 174.035 131.808 174.035 132.094V141.506ZM191.52 141.272L187.828 149.098C187.646 149.462 187.88 149.8 188.27 149.8H190.506C190.714 149.8 190.87 149.644 190.948 149.488L198.904 132.276C199.086 131.938 198.878 131.6 198.462 131.6H196.382C196.07 131.6 195.888 131.626 195.758 131.886L193.158 137.762H193.132L190.506 131.886C190.428 131.73 190.298 131.6 190.064 131.6H187.724C187.334 131.6 187.126 131.938 187.282 132.276L191.52 141.272ZM199.863 136.774C199.863 139.764 202.255 142.26 205.193 142.26C208.131 142.26 210.523 139.764 210.523 136.774C210.523 133.836 208.131 131.34 205.193 131.34C202.255 131.34 199.863 133.836 199.863 136.774ZM202.697 136.774C202.697 135.318 203.789 134.148 205.193 134.148C206.571 134.148 207.689 135.318 207.689 136.774C207.689 138.256 206.571 139.452 205.193 139.452C203.789 139.452 202.697 138.256 202.697 136.774ZM212.649 137.138C212.649 139.79 213.819 142.26 217.043 142.26C219.097 142.26 220.059 141.168 220.527 140.752L220.839 141.61C220.917 141.818 221.073 142 221.333 142H222.295C222.555 142 222.789 141.766 222.789 141.506V132.094C222.789 131.808 222.555 131.6 222.295 131.6H220.319C219.903 131.6 219.747 131.704 219.747 132.094V137.502C219.591 138.438 218.759 139.452 217.667 139.452C216.471 139.452 215.769 138.594 215.769 137.216V132.094C215.769 131.808 215.535 131.6 215.275 131.6H213.143C212.883 131.6 212.649 131.808 212.649 132.094V137.138ZM225.258 140.128C225.258 141.298 226.22 142.26 227.39 142.26C228.56 142.26 229.548 141.298 229.548 140.128C229.548 138.958 228.56 137.97 227.39 137.97C226.22 137.97 225.258 138.958 225.258 140.128ZM231.377 140.128C231.377 141.298 232.339 142.26 233.509 142.26C234.679 142.26 235.667 141.298 235.667 140.128C235.667 138.958 234.679 137.97 233.509 137.97C232.339 137.97 231.377 138.958 231.377 140.128ZM237.496 140.128C237.496 141.298 238.458 142.26 239.628 142.26C240.798 142.26 241.786 141.298 241.786 140.128C241.786 138.958 240.798 137.97 239.628 137.97C238.458 137.97 237.496 138.958 237.496 140.128Z" fill="#00B9C2"/>
</g>
<defs>
<filter id="filter0_d" x="154.67" y="91.8773" width="447.83" height="109.983" filterUnits="userSpaceOnUse" color-interpolation-filters="sRGB">
<feFlood flood-opacity="0" result="BackgroundImageFix"/>
<feColorMatrix in="SourceAlpha" type="matrix" values="0 0 0 0 0 0 0 0 0 0 0 0 0 0 0 0 0 0 127 0"/>
<feOffset dy="4"/>
<feGaussianBlur stdDeviation="2"/>
<feColorMatrix type="matrix" values="0 0 0 0 0 0 0 0 0 0 0 0 0 0 0 0 0 0 0.25 0"/>
<feBlend mode="normal" in2="BackgroundImageFix" result="effect1_dropShadow"/>
<feBlend mode="normal" in="SourceGraphic" in2="effect1_dropShadow" result="shape"/>
</filter>
<filter id="filter1_f" x="-53" y="138" width="326.5" height="163" filterUnits="userSpaceOnUse" color-interpolation-filters="sRGB">
<feFlood flood-opacity="0" result="BackgroundImageFix"/>
<feBlend mode="normal" in="SourceGraphic" in2="BackgroundImageFix" result="shape"/>
<feGaussianBlur stdDeviation="20" result="effect1_foregroundBlur"/>
</filter>
<filter id="filter2_d" x="-17" y="166.258" width="487.5" height="84.7422" filterUnits="userSpaceOnUse" color-interpolation-filters="sRGB">
<feFlood flood-opacity="0" result="BackgroundImageFix"/>
<feColorMatrix in="SourceAlpha" type="matrix" values="0 0 0 0 0 0 0 0 0 0 0 0 0 0 0 0 0 0 127 0"/>
<feOffset dy="4"/>
<feGaussianBlur stdDeviation="2"/>
<feColorMatrix type="matrix" values="0 0 0 0 0 0 0 0 0 0 0 0 0 0 0 0 0 0 0.25 0"/>
<feBlend mode="normal" in2="BackgroundImageFix" result="effect1_dropShadow"/>
<feBlend mode="normal" in="SourceGraphic" in2="effect1_dropShadow" result="shape"/>
</filter>
<filter id="filter3_f" x="297.084" y="117.145" width="121.357" height="103.255" filterUnits="userSpaceOnUse" color-interpolation-filters="sRGB">
<feFlood flood-opacity="0" result="BackgroundImageFix"/>
<feBlend mode="normal" in="SourceGraphic" in2="BackgroundImageFix" result="shape"/>
<feGaussianBlur stdDeviation="5" result="effect1_foregroundBlur"/>
</filter>
<filter id="filter4_f" x="299.826" y="102.292" width="108.236" height="58.1562" filterUnits="userSpaceOnUse" color-interpolation-filters="sRGB">
<feFlood flood-opacity="0" result="BackgroundImageFix"/>
<feBlend mode="normal" in="SourceGraphic" in2="BackgroundImageFix" result="shape"/>
<feGaussianBlur stdDeviation="5" result="effect1_foregroundBlur"/>
</filter>
<filter id="filter5_f" x="331.789" y="141.821" width="32.718" height="19.1278" filterUnits="userSpaceOnUse" color-interpolation-filters="sRGB">
<feFlood flood-opacity="0" result="BackgroundImageFix"/>
<feBlend mode="normal" in="SourceGraphic" in2="BackgroundImageFix" result="shape"/>
<feGaussianBlur stdDeviation="2" result="effect1_foregroundBlur"/>
</filter>
<filter id="filter6_f" x="340.74" y="52.8478" width="76.3604" height="95.2882" filterUnits="userSpaceOnUse" color-interpolation-filters="sRGB">
<feFlood flood-opacity="0" result="BackgroundImageFix"/>
<feBlend mode="normal" in="SourceGraphic" in2="BackgroundImageFix" result="shape"/>
<feGaussianBlur stdDeviation="5" result="effect1_foregroundBlur"/>
</filter>
<filter id="filter7_i" x="356.03" y="83.9337" width="13.3318" height="15.7899" filterUnits="userSpaceOnUse" color-interpolation-filters="sRGB">
<feFlood flood-opacity="0" result="BackgroundImageFix"/>
<feBlend mode="normal" in="SourceGraphic" in2="BackgroundImageFix" result="shape"/>
<feColorMatrix in="SourceAlpha" type="matrix" values="0 0 0 0 0 0 0 0 0 0 0 0 0 0 0 0 0 0 127 0" result="hardAlpha"/>
<feOffset dy="-2"/>
<feGaussianBlur stdDeviation="2"/>
<feComposite in2="hardAlpha" operator="arithmetic" k2="-1" k3="1"/>
<feColorMatrix type="matrix" values="0 0 0 0 0.196441 0 0 0 0 0.233731 0 0 0 0 0.304167 0 0 0 1 0"/>
<feBlend mode="normal" in2="shape" result="effect1_innerShadow"/>
</filter>
<filter id="filter8_f" x="319.811" y="77.3247" width="18.0483" height="9.26784" filterUnits="userSpaceOnUse" color-interpolation-filters="sRGB">
<feFlood flood-opacity="0" result="BackgroundImageFix"/>
<feBlend mode="normal" in="SourceGraphic" in2="BackgroundImageFix" result="shape"/>
<feGaussianBlur stdDeviation="1" result="effect1_foregroundBlur"/>
</filter>
<filter id="filter9_f" x="356.916" y="78.2833" width="17.5386" height="11.1728" filterUnits="userSpaceOnUse" color-interpolation-filters="sRGB">
<feFlood flood-opacity="0" result="BackgroundImageFix"/>
<feBlend mode="normal" in="SourceGraphic" in2="BackgroundImageFix" result="shape"/>
<feGaussianBlur stdDeviation="1" result="effect1_foregroundBlur"/>
</filter>
<linearGradient id="paint0_linear" x1="241.548" y1="12.1074" x2="252.76" y2="192.12" gradientUnits="userSpaceOnUse">
<stop stop-color="#DDF7FF"/>
<stop offset="1" stop-color="#F5FDFF"/>
</linearGradient>
<linearGradient id="paint1_linear" x1="362.697" y1="70.4036" x2="367.45" y2="162.102" gradientUnits="userSpaceOnUse">
<stop stop-color="#DDF7FF"/>
<stop offset="1" stop-color="#F5FDFF"/>
</linearGradient>
<linearGradient id="paint2_linear" x1="206.75" y1="158.253" x2="17.5" y2="182" gradientUnits="userSpaceOnUse">
<stop stop-color="#E2F7FD"/>
<stop offset="1" stop-color="#FEFFFF"/>
</linearGradient>
<linearGradient id="paint3_linear" x1="244" y1="150" x2="245.5" y2="237" gradientUnits="userSpaceOnUse">
<stop stop-color="#DDF7FF"/>
<stop offset="0.77123" stop-color="#F0FCFF"/>
<stop offset="1" stop-color="white"/>
</linearGradient>
<linearGradient id="paint4_linear" x1="310.735" y1="147.012" x2="398.616" y2="130.421" gradientUnits="userSpaceOnUse">
<stop stop-color="#1FDACF"/>
<stop offset="1" stop-color="#00DD92"/>
</linearGradient>
<linearGradient id="paint5_linear" x1="342.635" y1="177.921" x2="322.819" y2="158.781" gradientUnits="userSpaceOnUse">
<stop stop-color="#1ACDC3"/>
<stop offset="1" stop-color="#04CA87"/>
</linearGradient>
<linearGradient id="paint6_linear" x1="362.114" y1="185.185" x2="334.165" y2="156.094" gradientUnits="userSpaceOnUse">
<stop stop-color="#1FDACF"/>
<stop offset="1" stop-color="#00DD92"/>
</linearGradient>
<linearGradient id="paint7_linear" x1="310.735" y1="147.012" x2="398.616" y2="130.421" gradientUnits="userSpaceOnUse">
<stop stop-color="#1FDACF"/>
<stop offset="1" stop-color="#00DD92"/>
</linearGradient>
<linearGradient id="paint8_linear" x1="320.055" y1="69.601" x2="434.811" y2="46.3491" gradientUnits="userSpaceOnUse">
<stop stop-color="#1FDACF"/>
<stop offset="1" stop-color="#00DD92"/>
</linearGradient>
<linearGradient id="paint9_linear" x1="328.5" y1="97" x2="328.5" y2="101" gradientUnits="userSpaceOnUse">
<stop stop-color="#75E6FF"/>
<stop offset="1" stop-color="#399CD5" stop-opacity="0"/>
</linearGradient>
<linearGradient id="paint10_linear" x1="362.038" y1="98.0736" x2="362.5" y2="104" gradientUnits="userSpaceOnUse">
<stop stop-color="#75E6FF"/>
<stop offset="1" stop-color="#399CD5" stop-opacity="0"/>
</linearGradient>
<linearGradient id="paint11_linear" x1="365.5" y1="106" x2="365.5" y2="109" gradientUnits="userSpaceOnUse">
<stop stop-color="#75E6FF"/>
<stop offset="1" stop-color="#399CD5" stop-opacity="0"/>
</linearGradient>
<clipPath id="clip0">
<path d="M0 16C0 7.16344 7.16344 0 16 0H448C456.837 0 464 7.16344 464 16V222C464 230.837 456.837 238 448 238H16C7.16345 238 0 230.837 0 222V16Z" fill="white"/>
</clipPath>
<clipPath id="clip1">
<rect width="750" height="221.61" fill="white" transform="translate(-123 32)"/>
</clipPath>
<clipPath id="clip2">
<rect width="47.0596" height="38.802" fill="white" transform="matrix(-0.761947 -0.646289 -0.648724 0.762166 381.473 163.966)"/>
</clipPath>
</defs>
</svg>
