<svg width="16" height="16" viewBox="0 0 16 16" fill="none" xmlns="http://www.w3.org/2000/svg">
<path d="M6.44821 7.98084C6.13189 7.65641 5.79935 7.30641 5.45745 6.96575C4.4199 5.93132 3.37861 4.90064 2.33794 3.86808C1.97296 3.50559 1.60361 3.14747 1.24174 2.78187C0.870523 2.4069 0.813748 1.8248 1.09887 1.40866C1.39772 0.971926 1.97982 0.786003 2.44712 1.0156C2.65114 1.11542 2.82958 1.28263 2.99429 1.44484C4.07551 2.50922 5.14987 3.58046 6.22672 4.64983C6.78699 5.20635 7.34725 5.76287 7.90814 6.31939C7.93372 6.34497 7.9618 6.36806 8.01857 6.41922C8.24255 6.1865 8.46029 5.95004 8.68802 5.72419C10.1929 4.23119 11.699 2.73882 13.2069 1.24894C13.6455 0.815326 14.3412 0.815326 14.7623 1.2427C15.1953 1.68193 15.1909 2.3495 14.7436 2.79434C13.0478 4.47888 11.3496 6.16154 9.65195 7.84359C9.60391 7.891 9.54588 7.92781 9.47663 7.98209C9.7474 8.25099 9.9926 8.49494 10.2384 8.73888C11.737 10.2238 13.2369 11.7074 14.7336 13.1942C15.2003 13.6577 15.2016 14.3397 14.738 14.7776C14.4098 15.0877 13.7242 15.2811 13.2094 14.7564C12.5437 14.0776 11.8599 13.4163 11.1849 12.7468C10.1554 11.7261 9.126 10.7054 8.09593 9.68472C8.06661 9.65602 8.03479 9.63044 7.97989 9.5824C7.76464 9.80513 7.55626 10.0279 7.33914 10.2425C5.82992 11.7392 4.30698 13.2216 2.8146 14.7352C2.17822 15.3803 1.13818 15.0372 0.95163 14.2479C0.859917 13.8599 0.947263 13.5099 1.22927 13.2279C2.28491 12.1741 3.34991 11.1303 4.40368 10.0747C5.09434 9.38275 5.7694 8.67712 6.44821 7.98084Z" fill="#414A5B"/>
</svg>
