<svg width="24" height="24" viewBox="0 0 24 24" fill="none" xmlns="http://www.w3.org/2000/svg">
<path fill-rule="evenodd" clip-rule="evenodd" d="M5.845 3H17.905C18.922 3 19.75 3.828 19.75 4.854V21L17.815 19.29L16.726 18.282L15.574 17.211L16.051 18.876H5.845C4.828 18.876 4 18.048 4 17.022V4.854C4 3.828 4.828 3 5.845 3ZM13.837 14.025C14.107 14.367 14.431 14.754 14.431 14.754C16.42 14.691 17.185 13.386 17.185 13.386C17.185 10.488 15.889 8.139 15.889 8.139C14.593 7.167 13.36 7.194 13.36 7.194L13.234 7.338C14.764 7.806 15.475 8.481 15.475 8.481C14.539 7.968 13.621 7.716 12.766 7.617C12.118 7.545 11.497 7.563 10.948 7.635C10.9009 7.635 10.8606 7.64186 10.8152 7.64959C10.8086 7.65071 10.8019 7.65186 10.795 7.653C10.48 7.68 9.715 7.797 8.752 8.22C8.419 8.373 8.221 8.481 8.221 8.481C8.221 8.481 8.968 7.77 10.588 7.302L10.498 7.194C10.498 7.194 9.265 7.167 7.969 8.139C7.969 8.139 6.673 10.488 6.673 13.386C6.673 13.386 7.429 14.691 9.418 14.754C9.418 14.754 9.751 14.349 10.021 14.007C8.878 13.665 8.446 12.945 8.446 12.945C8.446 12.945 8.536 13.008 8.698 13.098C8.707 13.107 8.716 13.116 8.734 13.125C8.7475 13.134 8.761 13.1408 8.7745 13.1475C8.788 13.1543 8.8015 13.161 8.815 13.17C9.04 13.296 9.265 13.395 9.472 13.476C9.841 13.62 10.282 13.764 10.795 13.863C11.47 13.989 12.262 14.034 13.126 13.872C13.549 13.8 13.981 13.674 14.431 13.485C14.746 13.368 15.097 13.197 15.466 12.954C15.466 12.954 15.016 13.692 13.837 14.025ZM9.32793 11.55C9.32793 11.001 9.73293 10.551 10.2459 10.551C10.7589 10.551 11.1729 11.001 11.1639 11.55C11.1639 12.099 10.7589 12.549 10.2459 12.549C9.74193 12.549 9.32793 12.099 9.32793 11.55ZM12.6129 11.55C12.6129 11.001 13.0179 10.551 13.5309 10.551C14.0439 10.551 14.4489 11.001 14.4489 11.55C14.4489 12.099 14.0439 12.549 13.5309 12.549C13.0269 12.549 12.6129 12.099 12.6129 11.55Z" fill="#414A5B"/>
</svg>
