<svg width="12" height="12" viewBox="0 0 12 12" fill="none" xmlns="http://www.w3.org/2000/svg">
<path fill-rule="evenodd" clip-rule="evenodd" d="M6 2.99964C6.39798 2.99964 6.72003 3.32239 6.72003 3.71967C6.72003 4.11765 6.39798 4.4397 6 4.4397C5.60202 4.4397 5.27997 4.11765 5.27997 3.71967C5.27997 3.32239 5.60202 2.99964 6 2.99964ZM6.00001 9.00036C5.66875 9.00036 5.40022 8.73182 5.40022 8.40057V5.3995C5.40022 5.06825 5.66875 4.79971 6.00001 4.79971C6.33126 4.79971 6.5998 5.06825 6.5998 5.39951V8.40057C6.5998 8.73182 6.33126 9.00036 6.00001 9.00036ZM6 10.8004C8.64665 10.8004 10.8004 8.64665 10.8004 6C10.8004 3.35335 8.64665 1.19957 6 1.19957C3.35335 1.19957 1.19957 3.35335 1.19957 6C1.19957 8.64665 3.35335 10.8004 6 10.8004ZM6 0C9.31321 0 12 2.68607 12 6C12 9.31393 9.31321 12 6 12C2.68679 12 0 9.31393 0 6C0 2.68607 2.68679 0 6 0Z" fill="#838B9D"/>
</svg>
