<svg width="184" height="50" viewBox="0 0 184 50" fill="none" xmlns="http://www.w3.org/2000/svg">
<path opacity="0.3" fill-rule="evenodd" clip-rule="evenodd" d="M25 50C38.8071 50 50 38.8071 50 25C50 11.1929 38.8071 0 25 0C11.1929 0 0 11.1929 0 25C0 38.8071 11.1929 50 25 50Z" fill="url(#paint0_linear)"/>
<path opacity="0.4" fill-rule="evenodd" clip-rule="evenodd" d="M25 45C36.0457 45 45 36.0457 45 25C45 13.9543 36.0457 5 25 5C13.9543 5 5 13.9543 5 25C5 36.0457 13.9543 45 25 45Z" fill="url(#paint1_linear)"/>
<path fill-rule="evenodd" clip-rule="evenodd" d="M25 35C30.5228 35 35 30.5228 35 25C35 19.4772 30.5228 15 25 15C19.4772 15 15 19.4772 15 25C15 30.5228 19.4772 35 25 35Z" fill="white"/>
<path fill-rule="evenodd" clip-rule="evenodd" d="M40 25C40 33.2843 33.2843 40 25 40C16.7157 40 10 33.2843 10 25C10 16.7157 16.7157 10 25 10C33.2843 10 40 16.7157 40 25ZM34.9998 25.0001C34.9998 30.5229 30.5227 35.0001 24.9998 35.0001C19.477 35.0001 14.9998 30.5229 14.9998 25.0001C14.9998 19.4773 19.477 15.0001 24.9998 15.0001C30.5227 15.0001 34.9998 19.4773 34.9998 25.0001Z" fill="url(#paint2_linear)"/>
<path d="M60.0334 30.8913C60.316 31.1522 62.0552 32.6522 64.6204 32.6522C67.1639 32.6522 69.316 31 69.316 28.7391C69.316 26.2174 67.4247 25.1087 64.49 23.913C62.6639 23.1522 61.5552 22.3043 61.5552 20.8478C61.5552 19.9348 62.2508 18.4565 64.5552 18.4565C65.8813 18.4565 67.2508 19.3696 67.403 19.4565C67.7508 19.6522 67.9682 19.5652 68.1639 19.2609C68.2508 19.1304 68.3378 18.9783 68.4247 18.8478C68.6856 18.4348 68.4247 18.1739 68.2943 18.1087C68.2943 18.1087 66.7073 17 64.5769 17C61.1204 17 59.9465 19.3913 59.9465 20.8696C59.9465 23.3478 61.3813 24.3261 63.7726 25.3696C66.2726 26.413 67.5769 27.3043 67.5769 28.8043C67.5769 30.087 66.4247 31.1957 64.6639 31.1957C62.7291 31.1957 61.1421 29.6739 60.99 29.5435C60.6856 29.2826 60.4465 29.4565 60.2291 29.7391C60.1204 29.8696 60.0117 30.0217 59.903 30.1522C59.6421 30.5652 59.8595 30.7391 60.0334 30.8913Z" fill="#282E3A"/>
<path d="M72.758 32.0217C72.758 32.2391 72.9536 32.4348 73.171 32.4348H73.9319C74.171 32.4348 74.3449 32.2391 74.3449 32.0217V20.1957H74.3667L84.3449 32.6522H84.7362C84.9536 32.6522 85.1493 32.4783 85.1493 32.2609V17.6304C85.1493 17.413 84.9536 17.2174 84.7362 17.2174H83.9754C83.7362 17.2174 83.5623 17.413 83.5623 17.6304V29.2174C83.5406 29.2174 83.5406 29.2174 83.5188 29.2174L73.7145 17H73.171C72.9536 17 72.758 17.1739 72.758 17.3913V32.0217Z" fill="#282E3A"/>
<path d="M88.7697 24.8478C88.7697 29.1957 92.2262 32.6522 96.574 32.6522C100.922 32.6522 104.4 29.1957 104.4 24.8478C104.4 20.5 100.922 17 96.574 17C92.2262 17 88.7697 20.5 88.7697 24.8478ZM90.2914 24.8478C90.2914 21.3913 93.1175 18.5217 96.574 18.5217C100.031 18.5217 102.878 21.3913 102.878 24.8478C102.878 28.3043 100.031 31.1304 96.574 31.1304C93.1175 31.1304 90.2914 28.3043 90.2914 24.8478Z" fill="#282E3A"/>
<path d="M110.629 32.3478C110.672 32.5217 110.846 32.6522 111.02 32.6522H111.368C111.52 32.6522 111.672 32.5435 111.737 32.413L115.433 20.6522H115.542L119.302 32.413C119.368 32.5435 119.52 32.6522 119.672 32.6522H120.02C120.194 32.6522 120.368 32.5217 120.411 32.3478L124.52 17.7391C124.607 17.4348 124.433 17.2174 124.129 17.2174H123.215C123.042 17.2174 122.868 17.3696 122.824 17.5217L119.868 28.7826H119.781L116.085 17.2391C116.042 17.1087 115.889 17 115.715 17H115.324C115.129 17 114.998 17.1087 114.955 17.2391L111.324 28.7826H111.237L108.215 17.5217C108.172 17.3696 107.998 17.2174 107.824 17.2174H106.911C106.607 17.2174 106.433 17.4348 106.52 17.7391L110.629 32.3478Z" fill="#282E3A"/>
<path d="M126.987 30.8913C127.269 31.1522 129.008 32.6522 131.574 32.6522C134.117 32.6522 136.269 31 136.269 28.7391C136.269 26.2174 134.378 25.1087 131.443 23.913C129.617 23.1522 128.508 22.3043 128.508 20.8478C128.508 19.9348 129.204 18.4565 131.508 18.4565C132.834 18.4565 134.204 19.3696 134.356 19.4565C134.704 19.6522 134.921 19.5652 135.117 19.2609C135.204 19.1304 135.291 18.9783 135.378 18.8478C135.639 18.4348 135.378 18.1739 135.247 18.1087C135.247 18.1087 133.66 17 131.53 17C128.074 17 126.9 19.3913 126.9 20.8696C126.9 23.3478 128.334 24.3261 130.726 25.3696C133.226 26.413 134.53 27.3043 134.53 28.8043C134.53 30.087 133.378 31.1957 131.617 31.1957C129.682 31.1957 128.095 29.6739 127.943 29.5435C127.639 29.2826 127.4 29.4565 127.182 29.7391C127.074 29.8696 126.965 30.0217 126.856 30.1522C126.595 30.5652 126.813 30.7391 126.987 30.8913Z" fill="#282E3A"/>
<path d="M142.407 32.3478C142.45 32.5217 142.624 32.6522 142.798 32.6522H143.146C143.298 32.6522 143.45 32.5435 143.515 32.413L147.211 20.6522H147.32L151.081 32.413C151.146 32.5435 151.298 32.6522 151.45 32.6522H151.798C151.972 32.6522 152.146 32.5217 152.189 32.3478L156.298 17.7391C156.385 17.4348 156.211 17.2174 155.907 17.2174H154.994C154.82 17.2174 154.646 17.3696 154.602 17.5217L151.646 28.7826H151.559L147.863 17.2391C147.82 17.1087 147.668 17 147.494 17H147.102C146.907 17 146.776 17.1087 146.733 17.2391L143.102 28.7826H143.015L139.994 17.5217C139.95 17.3696 139.776 17.2174 139.602 17.2174H138.689C138.385 17.2174 138.211 17.4348 138.298 17.7391L142.407 32.3478Z" fill="#282E3A"/>
<path d="M157.343 32.4348H158.213C158.408 32.4348 158.539 32.3043 158.582 32.1957L160.169 28.6087H167.887L169.495 32.1957C169.539 32.3043 169.669 32.4348 169.865 32.4348H170.735C171.061 32.4348 171.235 32.1522 171.104 31.8696L164.539 17.2391C164.474 17.1087 164.365 17 164.169 17H163.952C163.756 17 163.648 17.1087 163.582 17.2391L156.974 31.8696C156.843 32.1522 157.017 32.4348 157.343 32.4348ZM160.778 27.2609L163.952 20.1304H164.126C165.191 22.5 166.235 24.8913 167.3 27.2609H160.778Z" fill="#282E3A"/>
<path d="M173.761 32.0217C173.761 32.2391 173.935 32.4348 174.174 32.4348H175C175.217 32.4348 175.413 32.2391 175.413 32.0217V26.913H179C181.652 26.913 183.848 24.7174 183.848 22.0217C183.848 19.3913 181.652 17.2174 178.978 17.2174H174.174C173.935 17.2174 173.761 17.413 173.761 17.6304V32.0217ZM175.413 25.3043V18.8696H178.87C180.652 18.8696 182.174 20.2174 182.174 21.9783C182.174 23.8478 180.652 25.3043 178.87 25.3043H175.413Z" fill="#282E3A"/>
<defs>
<linearGradient id="paint0_linear" x1="0" y1="0" x2="0" y2="50" gradientUnits="userSpaceOnUse">
<stop stop-color="#ACFFD6"/>
<stop offset="1" stop-color="#04D3DD"/>
</linearGradient>
<linearGradient id="paint1_linear" x1="5" y1="5" x2="5" y2="45" gradientUnits="userSpaceOnUse">
<stop stop-color="#ACFFD6"/>
<stop offset="1" stop-color="#04D3DD"/>
</linearGradient>
<linearGradient id="paint2_linear" x1="10" y1="10" x2="10" y2="40" gradientUnits="userSpaceOnUse">
<stop stop-color="#ACFFD6"/>
<stop offset="1" stop-color="#04D3DD"/>
</linearGradient>
</defs>
</svg>
