<svg width="155" height="42" viewBox="0 0 155 42" fill="none" xmlns="http://www.w3.org/2000/svg">
<path opacity="0.3" fill-rule="evenodd" clip-rule="evenodd" d="M21 42C32.598 42 42 32.598 42 21C42 9.40202 32.598 0 21 0C9.40202 0 0 9.40202 0 21C0 32.598 9.40202 42 21 42Z" fill="url(#paint0_linear)"/>
<path opacity="0.4" fill-rule="evenodd" clip-rule="evenodd" d="M21.0002 37.8C30.2786 37.8 37.8002 30.2784 37.8002 21C37.8002 11.7216 30.2786 4.20001 21.0002 4.20001C11.7218 4.20001 4.2002 11.7216 4.2002 21C4.2002 30.2784 11.7218 37.8 21.0002 37.8Z" fill="url(#paint1_linear)"/>
<path fill-rule="evenodd" clip-rule="evenodd" d="M21.0006 29.4C25.6398 29.4 29.4006 25.6392 29.4006 21C29.4006 16.3608 25.6398 12.6 21.0006 12.6C16.3614 12.6 12.6006 16.3608 12.6006 21C12.6006 25.6392 16.3614 29.4 21.0006 29.4Z" fill="white"/>
<path fill-rule="evenodd" clip-rule="evenodd" d="M33.5994 21C33.5994 27.9588 27.9582 33.6 20.9994 33.6C14.0406 33.6 8.39941 27.9588 8.39941 21C8.39941 14.0412 14.0406 8.40002 20.9994 8.40002C27.9582 8.40002 33.5994 14.0412 33.5994 21ZM29.3993 21.0001C29.3993 25.6393 25.6384 29.4001 20.9993 29.4001C16.3601 29.4001 12.5993 25.6393 12.5993 21.0001C12.5993 16.3609 16.3601 12.6001 20.9993 12.6001C25.6384 12.6001 29.3993 16.3609 29.3993 21.0001Z" fill="url(#paint2_linear)"/>
<path d="M50.4288 25.6686C50.6662 25.8878 52.127 27.1478 54.2818 27.1478C56.4184 27.1478 58.2262 25.7599 58.2262 23.8608C58.2262 21.7425 56.6375 20.8112 54.1723 19.8069C52.6384 19.1678 51.707 18.4556 51.707 17.2321C51.707 16.4652 52.2914 15.2234 54.227 15.2234C55.341 15.2234 56.4914 15.9904 56.6192 16.0634C56.9114 16.2278 57.094 16.1547 57.2584 15.8991C57.3314 15.7895 57.4044 15.6617 57.4775 15.5521C57.6966 15.2052 57.4775 14.986 57.3679 14.9312C57.3679 14.9312 56.0349 13.9999 54.2453 13.9999C51.3418 13.9999 50.3557 16.0086 50.3557 17.2504C50.3557 19.3321 51.561 20.1539 53.5697 21.0304C55.6697 21.9069 56.7653 22.6556 56.7653 23.9156C56.7653 24.993 55.7975 25.9243 54.3184 25.9243C52.6931 25.9243 51.3601 24.646 51.2323 24.5365C50.9766 24.3173 50.7757 24.4634 50.5931 24.7008C50.5018 24.8104 50.4105 24.9382 50.3192 25.0478C50.1001 25.3947 50.2827 25.5408 50.4288 25.6686Z" fill="white"/>
<path d="M61.1174 26.6182C61.1174 26.8008 61.2817 26.9652 61.4643 26.9652H62.1035C62.3043 26.9652 62.4504 26.8008 62.4504 26.6182V16.6843H62.4687L70.8504 27.1478H71.1791C71.3617 27.1478 71.5261 27.0017 71.5261 26.8191V14.5295C71.5261 14.3469 71.3617 14.1825 71.1791 14.1825H70.54C70.3391 14.1825 70.193 14.3469 70.193 14.5295V24.2625C70.1748 24.2625 70.1748 24.2625 70.1565 24.2625L61.9209 13.9999H61.4643C61.2817 13.9999 61.1174 14.146 61.1174 14.3286V26.6182Z" fill="white"/>
<path d="M74.5672 20.5921C74.5672 24.2443 77.4707 27.1478 81.1229 27.1478C84.7751 27.1478 87.6968 24.2443 87.6968 20.5921C87.6968 16.9399 84.7751 13.9999 81.1229 13.9999C77.4707 13.9999 74.5672 16.9399 74.5672 20.5921ZM75.8455 20.5921C75.8455 17.6886 78.2194 15.2782 81.1229 15.2782C84.0264 15.2782 86.4185 17.6886 86.4185 20.5921C86.4185 23.4956 84.0264 25.8695 81.1229 25.8695C78.2194 25.8695 75.8455 23.4956 75.8455 20.5921Z" fill="white"/>
<path d="M92.9287 26.8921C92.9652 27.0382 93.1113 27.1478 93.2574 27.1478H93.5495C93.6774 27.1478 93.8052 27.0565 93.86 26.9469L96.9643 17.0678H97.0556L100.215 26.9469C100.27 27.0565 100.397 27.1478 100.525 27.1478H100.817C100.963 27.1478 101.11 27.0382 101.146 26.8921L104.597 14.6208C104.67 14.3652 104.524 14.1825 104.269 14.1825H103.502C103.356 14.1825 103.21 14.3104 103.173 14.4382L100.69 23.8973H100.617L97.5122 14.2008C97.4756 14.0912 97.3478 13.9999 97.2017 13.9999H96.873C96.7087 13.9999 96.5991 14.0912 96.5626 14.2008L93.513 23.8973H93.44L90.9017 14.4382C90.8652 14.3104 90.7191 14.1825 90.573 14.1825H89.8061C89.5504 14.1825 89.4043 14.3652 89.4774 14.6208L92.9287 26.8921Z" fill="white"/>
<path d="M106.669 25.6686C106.907 25.8878 108.368 27.1478 110.522 27.1478C112.659 27.1478 114.467 25.7599 114.467 23.8608C114.467 21.7425 112.878 20.8112 110.413 19.8069C108.879 19.1678 107.948 18.4556 107.948 17.2321C107.948 16.4652 108.532 15.2234 110.468 15.2234C111.582 15.2234 112.732 15.9904 112.86 16.0634C113.152 16.2278 113.335 16.1547 113.499 15.8991C113.572 15.7895 113.645 15.6617 113.718 15.5521C113.937 15.2052 113.718 14.986 113.609 14.9312C113.609 14.9312 112.275 13.9999 110.486 13.9999C107.582 13.9999 106.596 16.0086 106.596 17.2504C106.596 19.3321 107.802 20.1539 109.81 21.0304C111.91 21.9069 113.006 22.6556 113.006 23.9156C113.006 24.993 112.038 25.9243 110.559 25.9243C108.934 25.9243 107.601 24.646 107.473 24.5365C107.217 24.3173 107.016 24.4634 106.834 24.7008C106.742 24.8104 106.651 24.9382 106.56 25.0478C106.341 25.3947 106.523 25.5408 106.669 25.6686Z" fill="white"/>
<path d="M119.622 26.8921C119.659 27.0382 119.805 27.1478 119.951 27.1478H120.243C120.371 27.1478 120.499 27.0565 120.554 26.9469L123.658 17.0678H123.749L126.908 26.9469C126.963 27.0565 127.091 27.1478 127.219 27.1478H127.511C127.657 27.1478 127.803 27.0382 127.84 26.8921L131.291 14.6208C131.364 14.3652 131.218 14.1825 130.962 14.1825H130.195C130.049 14.1825 129.903 14.3104 129.867 14.4382L127.383 23.8973H127.31L124.206 14.2008C124.169 14.0912 124.041 13.9999 123.895 13.9999H123.567C123.402 13.9999 123.293 14.0912 123.256 14.2008L120.207 23.8973H120.134L117.595 14.4382C117.559 14.3104 117.413 14.1825 117.267 14.1825H116.5C116.244 14.1825 116.098 14.3652 116.171 14.6208L119.622 26.8921Z" fill="white"/>
<path d="M132.169 26.9652H132.899C133.064 26.9652 133.173 26.8556 133.21 26.7643L134.543 23.7512H141.026L142.377 26.7643C142.413 26.8556 142.523 26.9652 142.687 26.9652H143.418C143.692 26.9652 143.838 26.7278 143.728 26.4904L138.213 14.2008C138.159 14.0912 138.067 13.9999 137.903 13.9999H137.72C137.556 13.9999 137.465 14.0912 137.41 14.2008L131.859 26.4904C131.749 26.7278 131.895 26.9652 132.169 26.9652ZM135.054 22.6191L137.72 16.6295H137.866C138.761 18.6199 139.638 20.6286 140.532 22.6191H135.054Z" fill="white"/>
<path d="M145.96 26.6182C145.96 26.8008 146.106 26.9652 146.307 26.9652H147.001C147.183 26.9652 147.348 26.8008 147.348 26.6182V22.3269H150.361C152.589 22.3269 154.433 20.4825 154.433 18.2182C154.433 16.0086 152.589 14.1825 150.342 14.1825H146.307C146.106 14.1825 145.96 14.3469 145.96 14.5295V26.6182ZM147.348 20.9756V15.5704H150.251C151.749 15.5704 153.027 16.7025 153.027 18.1817C153.027 19.7521 151.749 20.9756 150.251 20.9756H147.348Z" fill="white"/>
<defs>
<linearGradient id="paint0_linear" x1="0" y1="0" x2="0" y2="42" gradientUnits="userSpaceOnUse">
<stop stop-color="#ACFFD6"/>
<stop offset="1" stop-color="#04D3DD"/>
</linearGradient>
<linearGradient id="paint1_linear" x1="4.2002" y1="4.20001" x2="4.2002" y2="37.8" gradientUnits="userSpaceOnUse">
<stop stop-color="#ACFFD6"/>
<stop offset="1" stop-color="#04D3DD"/>
</linearGradient>
<linearGradient id="paint2_linear" x1="8.39941" y1="8.40002" x2="8.39941" y2="33.6" gradientUnits="userSpaceOnUse">
<stop stop-color="#ACFFD6"/>
<stop offset="1" stop-color="#04D3DD"/>
</linearGradient>
</defs>
</svg>
