<svg width="24" height="24" viewBox="0 0 24 24" fill="none" xmlns="http://www.w3.org/2000/svg">
<path fill-rule="evenodd" clip-rule="evenodd" d="M5.1345 7.91525C5.157 7.694 5.07225 7.47575 4.90725 7.32725L3.22725 5.30225V5H8.44575L12.4792 13.8463L16.0253 5H21V5.30225L19.563 6.68C19.4392 6.7745 19.3778 6.92975 19.4032 7.0835V17.207C19.3778 17.36 19.4392 17.5153 19.563 17.6097L20.9662 18.9875V19.2897H13.9073V18.9875L15.3615 17.576C15.504 17.4335 15.504 17.3915 15.504 17.1733V8.99075L11.4622 19.2568H10.9163L6.21 8.99075V15.8713C6.171 16.16 6.267 16.4518 6.47025 16.6603L8.361 18.9537V19.2568H3V18.9537L4.89075 16.6603C5.09325 16.451 5.18325 16.1578 5.1345 15.8713V7.91525Z" fill="#414A5B"/>
</svg>
