<svg width="18" height="15" viewBox="0 0 18 15" fill="none" xmlns="http://www.w3.org/2000/svg">
<path fill-rule="evenodd" clip-rule="evenodd" d="M1.23741 6.42168L10.9033 2.25816C15.5063 0.343641 16.4627 0.0110899 17.0861 0.000117522C17.2232 -0.00230236 17.5298 0.031675 17.7284 0.192813C17.8961 0.328856 17.9422 0.512701 17.9643 0.641651C17.9864 0.770601 18.0138 1.06453 17.992 1.29416C17.7426 3.91492 16.6633 10.275 16.1142 13.2104C15.8818 14.4525 15.4247 14.8689 14.9815 14.9097C14.019 14.9982 13.288 14.2735 12.3558 13.6625L8.65689 11.1778C7.02046 10.0995 8.0813 9.5068 9.01391 8.53818C9.25795 8.28459 13.4988 4.42724 13.5809 4.07732C13.5908 4.03356 13.6006 3.87047 13.5037 3.78428C13.4069 3.69809 13.2638 3.72793 13.1606 3.75103C13.0143 3.78425 10.6839 5.32455 6.16936 8.37201C5.50787 8.82625 4.9087 9.04758 4.37192 9.03598C3.78011 9.02319 2.64174 8.70138 1.79547 8.42627C0.757477 8.08888 -0.0675029 7.91047 0.00436422 7.33746C0.0417563 7.03902 0.452771 6.73382 1.23738 6.42175L1.23741 6.42168Z" fill="#414A5B"/>
</svg>
