<svg width="39" height="37" viewBox="0 0 39 37" fill="none" xmlns="http://www.w3.org/2000/svg">
<path d="M18 36C8.1 36 0 27.9 0 18C0 8.1 8.1 0 18 0C27.9 0 36 8.1 36 18C36 27.9 27.9 36 18 36Z" fill="#002868"/>
<path d="M27.0722 28.8H8.9282C7.9778 28.8 7.2002 28.0224 7.2002 27.072V8.928C7.2002 7.9776 7.9778 7.2 8.9282 7.2H27.0722C28.0226 7.2 28.8002 7.9776 28.8002 8.928V27.072C28.8002 28.0224 28.0226 28.8 27.0722 28.8Z" fill="white"/>
<path d="M11.4144 26.6256C11.3575 26.6256 11.3114 26.5738 11.3114 26.5169V23.6146C11.3114 23.5577 11.2654 23.5058 11.2085 23.5058H10.1839C10.1263 23.5058 10.0752 23.4598 10.0752 23.4029V22.842C10.0752 22.7851 10.127 22.7333 10.1839 22.7333H13.3375C13.3944 22.7333 13.4462 22.7844 13.4462 22.842V23.4029C13.4462 23.4598 13.3944 23.5058 13.3375 23.5058H12.3187C12.2618 23.5058 12.21 23.557 12.21 23.6146V26.5169C12.21 26.5738 12.1639 26.6256 12.107 26.6256H11.4144Z" fill="#002868"/>
<path d="M16.5946 22.842C16.5946 22.7851 16.6407 22.7333 16.6976 22.7333H17.3845C17.4414 22.7333 17.4932 22.7844 17.4932 22.842V24.8227C17.4932 25.9963 16.8294 26.6774 15.776 26.6774C14.7284 26.6774 14.0703 25.9963 14.0703 24.8227V22.842C14.0703 22.7851 14.1164 22.7333 14.1733 22.7333H14.8602C14.917 22.7333 14.9689 22.7844 14.9689 22.842V24.8508C14.9689 25.429 15.2662 25.8408 15.7818 25.8408C16.2973 25.8408 16.5946 25.429 16.5946 24.8508V22.842Z" fill="#002868"/>
<path d="M20.6479 24.0041C20.5565 24.0041 20.5277 23.9695 20.4931 23.9011C20.3729 23.6203 20.1094 23.4432 19.7091 23.4432C19.3483 23.4432 19.0452 23.5692 19.0452 23.8097C19.0452 24.0732 19.326 24.1819 19.9438 24.2561C20.8827 24.3648 21.4205 24.6514 21.4205 25.3951C21.4205 26.231 20.6875 26.6717 19.7494 26.6717C18.9365 26.6717 18.2381 26.2764 18.1294 25.447C18.1179 25.367 18.1582 25.3382 18.2381 25.3382H18.8681C18.948 25.3382 18.9941 25.3728 19.0171 25.4354C19.1028 25.7105 19.3951 25.9222 19.8185 25.9222C20.1907 25.9222 20.5169 25.7846 20.5169 25.493C20.5169 25.1438 20.1735 25.0812 19.4866 24.9948C18.6967 24.8918 18.1474 24.6629 18.1474 23.9357C18.1474 23.2085 18.7716 22.6879 19.7501 22.6879C20.6314 22.6879 21.2441 23.1631 21.3701 23.873C21.3874 23.953 21.3643 24.0048 21.2787 24.0048H20.6479V24.0041Z" fill="#002868"/>
<path d="M22.1987 26.6256C22.1418 26.6256 22.0957 26.5738 22.0957 26.5169V22.842C22.0957 22.7851 22.1418 22.7333 22.1987 22.7333H23.7553C24.9116 22.7333 25.8102 23.5289 25.8102 24.691C25.8102 25.8358 24.9231 26.6256 23.7553 26.6256H22.1987ZM23.7553 25.8523C24.3795 25.8523 24.8655 25.3598 24.8655 24.6787C24.8655 23.9976 24.3788 23.5051 23.7495 23.5051H23.103C23.0461 23.5051 23 23.5562 23 23.6138V25.7486C23 25.8055 23.0461 25.8516 23.103 25.8516H23.7553V25.8523Z" fill="#002868"/>
<path d="M28.2238 20.592H7.77579C7.61739 20.592 7.48779 20.4624 7.48779 20.304V8.928C7.48779 8.136 8.13579 7.488 8.92779 7.488H27.0718C27.8638 7.488 28.5118 8.136 28.5118 8.928V20.304C28.5118 20.4624 28.3822 20.592 28.2238 20.592Z" fill="#002868"/>
<path d="M19.0602 18.2563H17.1882C17.0694 18.2563 16.9722 18.1591 16.9722 18.0403V10.1203C16.9722 10.0015 17.0694 9.90426 17.1882 9.90426H19.0602C19.179 9.90426 19.2762 10.0015 19.2762 10.1203V18.0403C19.2762 18.1591 19.179 18.2563 19.0602 18.2563Z" fill="white"/>
<path d="M22.2481 12.2083H13.7521C13.6333 12.2083 13.5361 12.1111 13.5361 11.9923V10.1203C13.5361 10.0015 13.6333 9.90426 13.7521 9.90426H22.2481C22.3669 9.90426 22.4641 10.0015 22.4641 10.1203V11.9923C22.4641 12.1111 22.3669 12.2083 22.2481 12.2083Z" fill="white"/>
<path d="M29.4734 19.5H29.4533L29.4333 19.5016C27.4504 19.661 25.5119 20.4885 24.0773 21.9015C22.5471 23.37 21.6334 25.4178 21.501 27.5206L21.5 27.5363V27.552V28.37V28.3854L21.501 28.4009C21.5675 29.4777 21.8096 30.5603 22.2771 31.5566C23.2334 33.6463 25.0696 35.3053 27.2477 36.0407C27.9665 36.294 28.7102 36.4121 29.4192 36.4965L29.4487 36.5H29.4783H30.4451H30.4623L30.4794 36.4988C32.5961 36.3535 34.6661 35.4333 36.1371 33.8725C37.5478 32.4237 38.357 30.4674 38.4987 28.478L38.5 28.4603V28.4425V27.555V27.5372L38.4987 27.5194C38.3596 25.5725 37.5828 23.6567 36.2254 22.2162C34.7495 20.606 32.6431 19.6388 30.4793 19.501L30.4634 19.5H30.4475H29.4734Z" fill="#0169DA" stroke="#F5F8FA"/>
<path d="M29.5323 23.0525C30.049 22.9775 30.5931 23.0285 31.0623 23.2675C31.9081 23.6595 32.4831 24.5667 32.4747 25.4983C32.4939 25.8417 32.3973 26.1734 32.3239 26.5042C32.6139 26.4175 32.899 26.315 33.1823 26.2082C33.2981 26.4207 33.3847 26.6474 33.4156 26.8891C32.6756 27.1182 31.9606 27.4171 31.2231 27.654C31.019 26.9082 30.7823 26.1715 30.5956 25.4215C30.8164 25.328 31.0478 25.26 31.2898 25.256C31.3848 25.5668 31.4348 25.8927 31.5556 26.1943C31.5806 26.2077 31.6315 26.2343 31.6564 26.2468C31.7881 25.8127 31.8281 25.3385 31.6598 24.9068C31.4148 24.1885 30.6678 23.6968 29.9158 23.7168C29.4183 23.7477 28.9233 23.966 28.6038 24.356C28.0256 25 28.039 26.0751 28.6223 26.712C28.8298 26.9528 29.1231 27.0945 29.3523 27.3111C29.4348 27.5945 29.3763 27.9003 29.3848 28.1928C28.7939 27.7737 28.1208 27.3928 27.7608 26.7379C27.315 25.9553 27.3592 24.9337 27.8475 24.182C28.2281 23.6017 28.8456 23.1725 29.5323 23.0525Z" fill="white"/>
<path d="M29.6975 24.9384C29.9342 24.9325 30.17 24.9334 30.4066 24.9384C30.4566 25.7908 30.4183 26.6459 30.43 27.5C30.38 28.8125 30.4175 30.1267 30.4034 31.44C30.1666 31.4542 29.9292 31.456 29.6934 31.4292C29.696 29.2659 29.6917 27.1017 29.6975 24.9384Z" fill="white"/>
<path d="M30.7334 28.315C31.4484 28.7558 32.1884 29.3183 32.3942 30.1808C32.8117 31.5617 31.7742 33.1533 30.3367 33.31C29.0384 33.5783 27.6876 32.5775 27.4887 31.2825C27.3521 30.7334 27.5804 30.2025 27.7887 29.7065C27.4853 29.759 27.1829 29.8185 26.8847 29.8957C26.7897 29.6682 26.7656 29.4232 26.7539 29.179C27.5189 29.0657 28.2622 28.8182 29.0339 28.7523C29.1281 29.5182 29.2664 30.279 29.3219 31.0483C29.0945 31.0917 28.865 31.1234 28.6344 31.1434C28.5694 30.785 28.5419 30.4217 28.4802 30.0634C27.8727 30.765 28.2482 31.8934 28.9852 32.3466C29.6761 32.8192 30.6869 32.7017 31.2544 32.0883C31.8269 31.535 31.931 30.5843 31.5069 29.9134C31.3261 29.5917 31.0061 29.3934 30.7277 29.1658C30.7201 28.8825 30.7134 28.5983 30.7334 28.315Z" fill="white"/>
</svg>
