<svg width="39" height="37" viewBox="0 0 39 37" fill="none" xmlns="http://www.w3.org/2000/svg">
<path d="M18 36C27.9411 36 36 27.9411 36 18C36 8.05887 27.9411 0 18 0C8.05887 0 0 8.05887 0 18C0 27.9411 8.05887 36 18 36Z" fill="#26A17B"/>
<path fill-rule="evenodd" clip-rule="evenodd" d="M20.1622 19.5559V19.5536C20.0384 19.5626 19.4005 19.6009 17.9774 19.6009C16.8412 19.6009 16.0413 19.5671 15.76 19.5536V19.557C11.386 19.3646 8.12128 18.603 8.12128 17.6917C8.12128 16.7816 11.386 16.02 15.76 15.8242V18.7987C16.0458 18.819 16.8648 18.8674 17.9965 18.8674C19.3544 18.8674 20.035 18.8111 20.1622 18.7999V15.8265C24.5272 16.0211 27.784 16.7827 27.784 17.6917C27.784 18.603 24.5272 19.3624 20.1622 19.5559ZM20.1622 15.5171V12.8554H26.2529V8.79637H9.66928V12.8554H15.76V15.516C10.81 15.7432 7.0874 16.7242 7.0874 17.8987C7.0874 19.0732 10.81 20.0531 15.76 20.2815V28.8112H20.1622V20.2792C25.1043 20.052 28.8179 19.0721 28.8179 17.8987C28.8179 16.7254 25.1043 15.7455 20.1622 15.5171Z" fill="white"/>
<path d="M29.4734 19.5H29.4533L29.4333 19.5016C27.4504 19.661 25.5119 20.4885 24.0773 21.9015C22.5471 23.37 21.6334 25.4178 21.501 27.5206L21.5 27.5363V27.552V28.37V28.3854L21.501 28.4009C21.5675 29.4777 21.8096 30.5603 22.2771 31.5566C23.2334 33.6463 25.0696 35.3053 27.2477 36.0407C27.9665 36.294 28.7102 36.4121 29.4192 36.4965L29.4487 36.5H29.4783H30.4451H30.4623L30.4794 36.4988C32.5961 36.3535 34.6661 35.4333 36.1371 33.8725C37.5478 32.4237 38.357 30.4674 38.4987 28.478L38.5 28.4603V28.4425V27.555V27.5372L38.4987 27.5194C38.3596 25.5725 37.5828 23.6567 36.2254 22.2162C34.7495 20.606 32.6431 19.6388 30.4793 19.501L30.4634 19.5H30.4475H29.4734Z" fill="#0169DA" stroke="#F5F8FA"/>
<path d="M29.5323 23.0525C30.049 22.9775 30.5931 23.0285 31.0623 23.2675C31.9081 23.6595 32.4831 24.5667 32.4747 25.4983C32.4939 25.8417 32.3973 26.1734 32.3239 26.5042C32.6139 26.4175 32.899 26.315 33.1823 26.2082C33.2981 26.4207 33.3847 26.6474 33.4156 26.8891C32.6756 27.1182 31.9606 27.4171 31.2231 27.654C31.019 26.9082 30.7823 26.1715 30.5956 25.4215C30.8164 25.328 31.0478 25.26 31.2898 25.256C31.3848 25.5668 31.4348 25.8927 31.5556 26.1943C31.5806 26.2077 31.6315 26.2343 31.6564 26.2468C31.7881 25.8127 31.8281 25.3385 31.6598 24.9068C31.4148 24.1885 30.6678 23.6968 29.9158 23.7168C29.4183 23.7477 28.9233 23.966 28.6038 24.356C28.0256 25 28.039 26.0751 28.6223 26.712C28.8298 26.9528 29.1231 27.0945 29.3523 27.3111C29.4348 27.5945 29.3763 27.9003 29.3848 28.1928C28.7939 27.7737 28.1208 27.3928 27.7608 26.7379C27.315 25.9553 27.3592 24.9337 27.8475 24.182C28.2281 23.6017 28.8456 23.1725 29.5323 23.0525Z" fill="white"/>
<path d="M29.6975 24.9384C29.9342 24.9325 30.17 24.9334 30.4066 24.9384C30.4566 25.7908 30.4183 26.6459 30.43 27.5C30.38 28.8125 30.4175 30.1267 30.4034 31.44C30.1666 31.4542 29.9292 31.456 29.6934 31.4292C29.696 29.2659 29.6917 27.1017 29.6975 24.9384Z" fill="white"/>
<path d="M30.7334 28.315C31.4484 28.7558 32.1884 29.3183 32.3942 30.1808C32.8117 31.5617 31.7742 33.1533 30.3367 33.31C29.0384 33.5783 27.6876 32.5775 27.4887 31.2825C27.3521 30.7334 27.5804 30.2025 27.7887 29.7065C27.4853 29.759 27.1829 29.8185 26.8847 29.8957C26.7897 29.6682 26.7656 29.4232 26.7539 29.179C27.5189 29.0657 28.2622 28.8182 29.0339 28.7523C29.1281 29.5182 29.2664 30.279 29.3219 31.0483C29.0945 31.0917 28.865 31.1234 28.6344 31.1434C28.5694 30.785 28.5419 30.4217 28.4802 30.0634C27.8727 30.765 28.2482 31.8934 28.9852 32.3466C29.6761 32.8192 30.6869 32.7017 31.2544 32.0883C31.8269 31.535 31.931 30.5843 31.5069 29.9134C31.3261 29.5917 31.0061 29.3934 30.7277 29.1658C30.7201 28.8825 30.7134 28.5983 30.7334 28.315Z" fill="white"/>
</svg>
