<svg width="50" height="50" viewBox="0 0 50 50" fill="none" xmlns="http://www.w3.org/2000/svg">
<path opacity="0.3" fill-rule="evenodd" clip-rule="evenodd" d="M25 50C38.8071 50 50 38.8071 50 25C50 11.1929 38.8071 0 25 0C11.1929 0 0 11.1929 0 25C0 38.8071 11.1929 50 25 50Z" fill="url(#paint0_linear)"/>
<path opacity="0.4" fill-rule="evenodd" clip-rule="evenodd" d="M25 45C36.0457 45 45 36.0457 45 25C45 13.9543 36.0457 5 25 5C13.9543 5 5 13.9543 5 25C5 36.0457 13.9543 45 25 45Z" fill="url(#paint1_linear)"/>
<path fill-rule="evenodd" clip-rule="evenodd" d="M25 35C30.5228 35 35 30.5228 35 25C35 19.4772 30.5228 15 25 15C19.4772 15 15 19.4772 15 25C15 30.5228 19.4772 35 25 35Z" fill="white"/>
<path fill-rule="evenodd" clip-rule="evenodd" d="M40 25C40 33.2843 33.2843 40 25 40C16.7157 40 10 33.2843 10 25C10 16.7157 16.7157 10 25 10C33.2843 10 40 16.7157 40 25ZM34.9998 25.0001C34.9998 30.5229 30.5227 35.0001 24.9998 35.0001C19.477 35.0001 14.9998 30.5229 14.9998 25.0001C14.9998 19.4773 19.477 15.0001 24.9998 15.0001C30.5227 15.0001 34.9998 19.4773 34.9998 25.0001Z" fill="url(#paint2_linear)"/>
<defs>
<linearGradient id="paint0_linear" x1="0" y1="0" x2="0" y2="50" gradientUnits="userSpaceOnUse">
<stop stop-color="#ACFFD6"/>
<stop offset="1" stop-color="#04D3DD"/>
</linearGradient>
<linearGradient id="paint1_linear" x1="5" y1="5" x2="5" y2="45" gradientUnits="userSpaceOnUse">
<stop stop-color="#ACFFD6"/>
<stop offset="1" stop-color="#04D3DD"/>
</linearGradient>
<linearGradient id="paint2_linear" x1="10" y1="10" x2="10" y2="40" gradientUnits="userSpaceOnUse">
<stop stop-color="#ACFFD6"/>
<stop offset="1" stop-color="#04D3DD"/>
</linearGradient>
</defs>
</svg>
